{"glyphs":{"0":{"ha":1780,"x_min":7,"x_max":1773,"o":"m 452 -243 l 446 -243 q 441 -236 441 -243 q 427 -229 441 -229 q 408 -231 420 -229 q 387 -233 395 -233 q 373 -229 373 -233 q 386 -221 373 -225 q 419 -214 399 -216 q 488 -189 488 -203 q 481 -179 488 -184 q 478 -175 478 -177 q 521 -153 478 -167 q 596 -124 567 -138 q 625 -105 625 -111 q 622 -104 625 -104 q 562 -123 612 -104 q 465 -153 503 -147 q 452 -155 456 -155 q 450 -154 450 -155 q 496 -135 450 -151 q 604 -85 569 -109 q 704 -5 663 -45 q 722 18 722 12 l 722 19 q 736 43 722 27 q 822 142 785 96 q 842 169 839 163 q 952 294 850 186 q 1114 479 1054 402 q 1260 684 1185 570 q 1291 738 1291 731 q 1341 829 1291 745 q 1489 1146 1431 979 q 1558 1414 1546 1314 q 1570 1560 1570 1514 q 1548 1709 1570 1646 q 1471 1829 1522 1787 q 1331 1889 1419 1872 q 1237 1898 1285 1898 q 1022 1858 1133 1898 q 712 1638 859 1796 q 452 1248 565 1480 q 367 1052 399 1137 q 295 821 336 967 q 241 614 256 686 q 220 461 226 541 q 214 328 216 397 q 213 208 213 258 q 219 115 213 115 q 226 94 226 115 q 224 86 226 86 q 216 96 222 86 q 212 100 214 100 q 210 97 210 100 q 213 75 210 90 q 222 43 216 60 q 234 13 227 26 q 254 -19 240 -1 q 283 -54 268 -38 q 310 -87 310 -81 q 307 -89 310 -89 q 274 -75 300 -89 q 222 -18 249 -61 q 177 83 196 24 q 160 123 165 123 q 159 120 159 123 q 173 52 159 97 q 208 -33 187 7 q 220 -64 220 -58 q 219 -66 220 -66 q 214 -63 218 -66 q 198 -56 205 -56 q 195 -57 195 -56 l 193 -58 q 181 -43 189 -58 q 160 -3 172 -28 q 138 47 148 22 q 123 90 127 72 q 111 109 119 109 q 105 106 108 109 q 100 103 102 103 q 81 151 91 103 q 51 417 52 299 q 47 485 51 485 q 41 443 45 485 q 31 256 34 366 q 26 213 30 213 q 22 222 24 213 q 7 368 7 277 q 50 745 7 543 q 275 1371 127 1079 q 608 1839 424 1662 q 991 2070 774 2000 q 1088 2096 1045 2089 q 1258 2106 1149 2106 q 1383 2096 1330 2106 q 1518 2052 1455 2085 q 1746 1779 1682 1974 q 1764 1719 1758 1745 q 1772 1659 1770 1694 q 1773 1560 1773 1625 q 1760 1359 1773 1442 q 1704 1147 1746 1276 q 1392 507 1598 814 q 988 42 1203 229 q 563 -211 773 -144 q 504 -229 527 -222 q 468 -240 481 -236 q 452 -243 455 -243 m 1690 1839 q 1691 1840 1691 1839 q 1665 1883 1691 1845 q 1608 1950 1638 1922 q 1602 1954 1603 1954 l 1602 1954 q 1634 1905 1602 1948 q 1690 1839 1683 1839 m 777 1942 q 808 1957 779 1942 q 936 2026 936 2020 l 935 2026 q 852 1990 926 2026 q 773 1945 773 1951 q 777 1942 773 1942 m 1573 1972 l 1573 1973 q 1545 2000 1573 1976 q 1501 2028 1512 2028 q 1496 2026 1496 2028 q 1535 1996 1496 2022 q 1573 1972 1569 1972 m 958 2028 q 966 2031 962 2028 q 972 2038 970 2035 q 975 2042 975 2041 q 972 2044 975 2044 q 964 2042 969 2044 q 949 2032 949 2037 q 958 2028 949 2028 m 1481 2029 q 1485 2030 1485 2029 q 1477 2038 1485 2032 q 1463 2045 1470 2043 q 1452 2048 1456 2048 q 1449 2047 1449 2048 q 1456 2040 1449 2045 q 1470 2032 1463 2035 q 1481 2029 1477 2029 m 1062 2058 q 1080 2061 1070 2058 q 1095 2068 1089 2064 q 1101 2073 1101 2072 q 1098 2075 1101 2075 q 1081 2072 1093 2075 q 1048 2061 1048 2064 q 1062 2058 1048 2058 m 241 29 q 232 43 237 29 q 227 66 227 56 q 228 72 227 72 q 237 57 231 72 q 243 33 243 42 q 241 29 243 30 z "},"1":{"ha":1898,"x_min":7,"x_max":1891,"o":"m 99 -138 l 81 -138 q 13 -129 14 -138 q 11 -105 11 -121 q 24 -71 14 -71 q 35 -61 35 -71 q 25 -56 35 -56 q 16 -58 22 -56 q 8 -60 10 -60 q 7 -59 7 -60 q 20 -47 7 -56 q 52 -7 35 -34 q 79 49 68 20 q 95 62 82 58 q 136 67 107 66 q 441 81 302 71 q 520 96 509 85 q 531 113 527 101 q 549 175 549 159 q 544 183 549 183 q 539 194 539 183 q 578 328 539 231 q 598 392 598 381 q 597 395 598 394 l 597 395 q 585 380 594 395 q 563 341 575 366 q 539 298 550 316 q 524 277 528 279 q 517 275 519 275 q 513 281 513 275 q 680 640 513 333 q 999 1244 806 872 q 1206 1651 1200 1630 q 1204 1653 1206 1653 q 1175 1639 1197 1653 q 941 1518 1108 1596 q 781 1453 857 1479 q 751 1444 757 1444 q 749 1445 749 1444 q 752 1453 749 1447 l 753 1455 q 751 1457 753 1457 q 733 1453 746 1457 q 713 1448 720 1448 q 709 1452 709 1448 q 737 1472 711 1460 q 766 1493 766 1485 q 755 1504 766 1499 q 753 1506 753 1505 q 790 1530 753 1514 q 833 1555 833 1548 l 833 1556 q 830 1556 832 1556 q 781 1541 819 1556 q 730 1525 747 1525 l 729 1527 q 738 1534 729 1529 q 762 1546 746 1539 q 809 1570 795 1560 q 894 1650 894 1640 q 947 1718 894 1660 q 1030 1795 997 1772 q 1078 1826 1054 1811 q 1267 1952 1166 1876 q 1437 2095 1368 2028 q 1485 2136 1478 2136 q 1673 2299 1491 2136 q 1891 2491 1887 2491 q 1891 2488 1891 2491 q 1867 2439 1889 2479 q 1661 2051 1700 2131 q 1644 2007 1644 2015 l 1642 1994 q 1636 1990 1639 1990 q 1436 1624 1624 1990 q 1364 1487 1413 1580 q 1265 1297 1316 1394 q 905 598 954 699 q 829 460 849 488 q 764 342 808 433 q 678 185 732 280 q 633 114 637 114 l 633 117 q 636 131 636 127 q 635 134 636 134 q 621 116 631 134 q 616 105 616 109 q 642 98 616 98 q 798 92 780 98 q 802 87 802 90 q 801 85 802 87 q 800 83 800 84 q 814 76 800 76 q 839 66 839 76 q 813 46 838 56 q 791 37 791 38 l 790 35 q 804 30 790 32 q 825 17 825 26 q 810 -3 825 9 q 796 -27 796 -15 q 769 -60 796 -39 q 749 -75 750 -74 l 749 -77 q 764 -80 749 -80 q 785 -85 784 -81 q 785 -91 785 -90 q 769 -108 785 -99 q 233 -136 740 -123 q 99 -138 146 -138 m 484 -109 q 498 -106 498 -109 q 484 -101 498 -101 q 469 -106 469 -101 q 484 -109 469 -109 m 385 -99 q 394 -96 394 -99 q 383 -92 394 -92 q 374 -94 378 -92 q 370 -97 370 -96 q 385 -99 370 -99 m 570 96 q 579 103 574 96 q 589 122 585 111 q 605 172 605 165 q 604 174 605 174 q 587 149 602 174 q 563 102 563 111 q 570 96 563 96 m 1044 1278 q 1074 1322 1047 1278 q 1095 1371 1095 1360 q 1094 1372 1095 1372 q 1065 1326 1088 1372 q 1044 1279 1044 1284 l 1044 1278 m 1103 1384 q 1118 1404 1107 1384 q 1125 1421 1125 1417 q 1124 1423 1125 1423 q 1108 1404 1120 1423 q 1102 1385 1102 1391 q 1103 1384 1102 1384 m 1229 1610 q 1236 1616 1231 1610 q 1243 1625 1242 1622 q 1244 1630 1244 1628 q 1241 1634 1244 1634 q 1237 1632 1240 1634 q 1231 1622 1234 1629 q 1228 1611 1228 1614 q 1229 1610 1228 1610 m 1244 1643 q 1284 1699 1284 1691 q 1281 1707 1284 1707 q 1244 1643 1275 1707 z "},"2":{"ha":2206,"x_min":7,"x_max":2199,"o":"m 82 -69 q 7 -48 7 -69 q 420 169 7 2 q 1039 594 731 349 q 1586 1092 1346 840 q 1931 1541 1826 1343 q 1994 1697 1991 1656 q 1997 1746 1997 1738 q 1954 1858 1997 1811 q 1844 1907 1914 1907 q 1704 1872 1785 1907 q 1412 1643 1573 1810 q 1160 1310 1250 1476 q 1138 1276 1143 1276 q 1136 1282 1136 1276 q 1133 1289 1135 1289 q 1116 1261 1129 1289 q 1099 1234 1103 1234 q 1098 1238 1098 1234 q 1112 1286 1098 1250 q 1122 1325 1122 1314 q 1118 1334 1122 1334 q 1101 1320 1112 1334 q 1091 1308 1093 1308 q 1090 1310 1090 1308 q 1115 1370 1090 1319 q 1142 1423 1127 1396 q 1164 1472 1164 1463 q 1163 1473 1164 1473 q 1136 1436 1159 1473 q 1100 1373 1119 1409 q 1064 1316 1069 1316 q 1063 1318 1063 1316 q 1097 1394 1063 1328 q 1199 1628 1199 1596 q 1198 1632 1199 1630 q 1197 1639 1197 1636 q 1208 1654 1197 1649 q 1223 1675 1223 1660 q 1262 1746 1223 1691 q 1301 1812 1301 1802 q 1334 1855 1301 1822 q 1487 1984 1410 1931 q 1671 2082 1590 2053 q 1839 2111 1752 2111 q 1927 2106 1904 2111 q 1994 2081 1955 2101 q 2103 2007 2054 2052 q 2197 1813 2192 1923 q 2199 1751 2199 1765 q 2186 1628 2199 1685 q 1926 1165 2134 1433 q 1404 623 1718 898 q 1179 432 1242 480 q 889 217 945 252 q 842 183 844 189 q 852 182 842 182 q 971 191 886 182 q 1135 199 1057 199 q 1316 185 1207 199 q 1482 151 1467 165 q 1585 111 1495 138 q 1750 50 1688 80 q 1777 32 1777 37 q 1775 31 1777 31 q 1701 52 1764 31 q 1493 104 1617 81 q 1422 114 1440 114 q 1421 113 1421 114 q 1506 87 1421 109 q 1643 45 1643 51 q 1627 37 1643 42 q 1606 34 1618 34 q 1554 41 1586 34 q 1447 61 1475 61 q 1431 55 1431 61 l 1432 50 q 1375 39 1432 41 q 1173 37 1363 39 q 1071 23 1071 36 q 1171 16 1071 18 q 1307 3 1307 15 q 1166 -12 1307 -12 q 401 -41 675 -12 q 82 -69 127 -69 m 878 437 q 990 515 888 437 q 1139 636 1139 629 q 1069 588 1134 636 q 907 463 980 523 q 878 437 878 439 m 1394 848 q 1475 920 1400 848 q 1541 985 1511 955 q 1583 1032 1583 1029 q 1449 906 1577 1032 q 1394 848 1394 852 m 1540 135 q 1529 138 1529 136 q 1534 141 1529 139 q 1545 143 1539 143 q 1554 138 1554 142 q 1540 135 1554 135 m 1567 730 q 1565 734 1565 730 q 1582 751 1565 739 q 1594 760 1592 760 q 1586 747 1594 758 q 1567 730 1572 730 z "},"3":{"ha":1680,"x_min":7,"x_max":1673,"o":"m 319 -182 q 256 -177 311 -182 q 10 61 41 -152 q 7 90 7 82 q 8 96 7 96 q 13 89 10 96 q 18 82 16 82 q 23 116 23 82 q 36 250 24 174 q 59 364 47 327 l 73 403 q 55 146 55 223 q 60 76 55 100 q 67 60 65 60 q 71 131 71 60 q 93 281 73 281 q 97 275 97 281 q 95 267 97 271 q 94 258 94 262 q 99 252 94 252 q 105 223 105 252 q 104 198 105 212 q 102 160 102 178 q 106 112 102 134 q 125 76 113 76 q 138 66 130 76 q 153 41 146 56 q 195 -1 168 9 q 272 -11 222 -11 l 361 -9 l 294 -2 q 199 37 199 9 q 208 39 199 39 q 240 35 222 39 q 292 30 260 30 q 475 52 342 30 q 1141 419 851 117 q 1282 607 1258 541 q 1306 709 1306 673 q 1036 975 1306 869 q 787 1043 920 1020 q 662 1075 698 1057 q 608 1133 626 1093 q 594 1177 594 1158 q 600 1202 594 1188 q 661 1278 611 1245 q 834 1361 710 1312 q 1185 1521 1054 1449 q 1379 1669 1316 1594 q 1457 1836 1442 1744 q 1461 1870 1461 1855 q 1420 1932 1461 1921 q 1360 1940 1395 1940 q 1089 1879 1263 1940 q 936 1797 1025 1855 q 786 1678 848 1739 q 727 1619 753 1647 q 693 1579 701 1591 q 682 1567 684 1567 q 681 1568 681 1567 l 682 1572 q 684 1586 684 1581 q 683 1588 684 1588 q 663 1559 679 1588 q 644 1533 649 1533 q 642 1537 642 1533 q 652 1569 642 1546 q 668 1615 668 1598 q 665 1628 668 1628 q 653 1615 663 1628 q 640 1603 644 1603 q 639 1605 639 1603 q 653 1634 639 1611 q 687 1683 667 1656 q 726 1730 707 1709 q 741 1750 741 1747 q 741 1750 741 1750 q 730 1745 739 1750 q 682 1697 711 1731 q 631 1628 653 1664 q 611 1603 614 1603 q 610 1605 610 1603 q 610 1607 610 1606 q 718 1770 610 1620 q 764 1837 757 1824 q 771 1857 771 1851 l 770 1862 l 771 1863 q 773 1860 772 1863 q 784 1853 778 1853 q 795 1870 795 1853 q 859 1946 795 1882 q 933 2009 922 2009 q 941 2023 941 2009 q 992 2060 941 2036 q 1112 2106 1042 2084 q 1354 2145 1241 2145 q 1552 2099 1475 2145 q 1673 1840 1673 2026 q 1671 1804 1673 1819 q 1649 1733 1666 1776 q 1350 1381 1570 1519 q 1190 1290 1284 1339 q 1005 1206 1088 1237 l 1054 1194 q 1314 1063 1193 1154 q 1486 869 1436 972 q 1517 713 1517 798 q 1463 496 1517 597 q 1335 315 1421 420 q 1035 53 1209 166 q 748 -101 876 -55 q 424 -169 621 -148 q 326 -182 340 -179 q 319 -182 325 -182 m 1319 783 q 1320 785 1320 783 q 1305 820 1320 793 q 1253 882 1284 852 q 1232 900 1233 900 q 1257 869 1232 898 q 1304 804 1295 825 q 1319 783 1314 783 m 1203 916 q 1204 917 1204 916 q 1166 950 1204 929 q 1138 962 1144 962 q 1137 961 1137 962 q 1168 937 1137 958 q 1203 916 1196 918 m 764 1073 q 766 1074 766 1073 q 724 1106 766 1076 l 685 1133 q 642 1178 642 1162 l 644 1189 q 637 1198 644 1198 q 626 1185 631 1198 l 626 1184 q 642 1158 626 1176 q 684 1119 659 1140 q 735 1086 710 1099 q 764 1073 760 1073 m 651 1208 q 690 1239 659 1208 l 722 1270 q 659 1223 662 1225 q 648 1212 648 1214 q 651 1208 648 1208 z "},"4":{"ha":1871,"x_min":7,"x_max":1864,"o":"m 7 424 l 13 452 l 13 451 q 389 768 28 451 q 972 1293 753 1088 q 1157 1474 1124 1436 q 1361 1687 1180 1501 q 1669 2007 1521 1850 q 1807 2141 1794 2141 q 1811 2140 1809 2140 q 1821 2146 1817 2140 q 1837 2156 1828 2156 q 1840 2153 1840 2156 q 1827 2130 1840 2147 q 1807 2089 1807 2104 q 1810 2081 1807 2081 q 1828 2093 1815 2081 l 1849 2112 q 1807 2044 1807 2051 q 1809 2043 1807 2043 q 1864 2090 1814 2043 q 1844 2048 1854 2070 q 1827 1993 1833 2027 q 1820 1942 1820 1960 q 1819 1919 1819 1924 q 1824 1888 1819 1898 q 1837 1794 1837 1868 q 1828 1742 1837 1773 q 1687 1409 1812 1684 q 1462 870 1628 1280 q 1416 744 1416 757 q 1432 733 1416 736 q 1492 730 1449 730 q 1556 723 1556 730 q 1553 720 1556 722 q 1550 718 1550 719 q 1627 710 1550 711 q 1723 704 1704 709 q 1742 696 1742 700 q 1676 683 1742 688 q 1620 681 1648 681 q 1548 671 1556 681 l 1548 671 q 1607 662 1548 662 q 1662 659 1660 662 q 1664 654 1664 656 q 1659 646 1664 652 q 1643 637 1655 641 q 1617 632 1630 633 q 1567 627 1586 632 q 1548 615 1548 621 l 1548 612 q 1512 595 1548 604 q 1413 578 1472 585 q 1348 563 1348 570 q 1367 557 1348 559 q 1413 554 1385 554 q 1466 546 1466 553 q 1385 527 1466 536 l 1325 520 q 1208 180 1228 226 q 1178 93 1192 145 q 1149 11 1165 43 q 1128 -51 1136 -16 q 1119 -76 1122 -76 q 1114 -67 1117 -76 q 1109 -58 1112 -58 q 1093 -98 1103 -58 q 1075 -148 1085 -130 q 1059 -167 1065 -167 q 1056 -159 1056 -167 q 1059 -138 1056 -152 q 1064 -103 1061 -124 q 1070 -66 1067 -83 q 1072 -48 1072 -54 q 1069 -41 1072 -41 q 1044 -95 1064 -41 q 1031 -115 1037 -115 q 1021 -84 1021 -115 q 1023 -61 1021 -73 q 1025 -40 1025 -48 q 1017 -22 1025 -22 q 1007 -9 1008 -22 q 1006 15 1006 4 q 1008 63 1006 34 q 1010 109 1010 92 q 1007 132 1010 132 q 1005 130 1006 132 q 970 49 975 57 q 964 41 966 41 q 960 52 962 41 q 959 62 959 56 q 1044 359 959 127 l 1102 518 l 929 511 q 634 491 821 507 q 269 456 447 475 q 7 424 90 437 m 90 477 q 162 534 95 477 l 208 572 q 293 649 293 644 q 292 650 293 650 q 174 555 286 650 q 88 479 88 485 q 90 477 88 477 m 323 674 q 351 691 328 674 q 391 727 380 712 l 393 730 q 393 731 393 731 q 334 688 385 731 q 322 675 322 677 q 323 674 322 674 m 658 704 l 664 705 q 908 724 711 713 q 1126 734 1059 734 q 1153 733 1147 734 l 1155 733 q 1164 732 1160 732 q 1185 750 1175 732 q 1244 897 1196 770 q 1401 1270 1312 1065 q 1511 1537 1511 1524 q 1444 1471 1504 1537 q 1343 1366 1377 1396 q 1139 1169 1294 1320 q 703 756 826 866 q 655 706 655 713 q 658 704 655 704 m 1222 783 q 1240 808 1226 783 q 1259 852 1259 844 q 1258 853 1259 853 q 1240 827 1253 853 q 1221 784 1221 794 q 1222 783 1221 783 m 1261 868 q 1269 876 1263 868 q 1276 890 1274 883 q 1279 901 1279 897 q 1278 904 1279 904 q 1271 897 1276 904 q 1263 883 1265 890 q 1260 871 1260 876 q 1261 868 1260 868 m 618 916 q 641 937 623 916 q 654 953 654 950 l 654 954 q 637 944 651 954 q 615 923 615 930 q 618 916 615 916 m 669 960 q 742 1021 741 1020 q 743 1023 743 1021 q 741 1027 743 1025 q 739 1028 740 1028 q 703 996 732 1028 l 669 960 m 1347 1057 q 1377 1115 1375 1103 q 1375 1120 1377 1120 q 1363 1106 1370 1120 q 1347 1057 1356 1091 m 1789 1961 q 1804 1980 1795 1961 q 1817 2024 1808 1988 q 1789 1971 1790 1978 q 1788 1964 1788 1965 q 1789 1961 1788 1961 z "},"5":{"ha":1752,"x_min":7,"x_max":1746,"o":"m 313 -164 q 247 -158 274 -164 q 20 52 68 -109 q 7 139 7 94 q 48 310 7 220 q 148 494 87 399 q 186 542 178 542 q 186 541 186 542 q 175 519 186 537 q 142 467 142 471 q 142 466 142 466 q 210 549 147 466 q 314 669 260 614 q 342 691 337 691 q 290 615 342 686 q 175 441 227 531 q 152 394 152 401 q 153 393 152 393 q 194 448 157 393 q 292 574 277 574 q 295 571 295 574 l 290 561 q 283 546 283 553 q 284 542 283 543 q 286 539 286 541 q 271 509 286 529 q 231 438 253 481 q 216 404 216 411 q 219 400 216 400 q 224 401 221 400 q 235 405 232 405 q 238 401 238 405 q 216 337 238 393 q 185 234 197 292 q 172 135 172 176 q 176 117 172 117 q 188 161 183 117 q 199 204 190 178 q 220 256 208 231 q 247 303 242 303 q 248 300 248 303 q 235 242 248 289 q 220 142 220 186 q 225 100 220 113 q 247 75 231 87 q 270 62 258 66 q 314 58 282 58 q 518 88 429 58 q 823 243 673 144 q 1082 460 972 343 q 1234 684 1193 576 q 1249 793 1249 729 q 1231 905 1249 855 q 1052 1089 1175 1049 q 824 1129 928 1129 q 610 1105 726 1129 q 490 1085 515 1085 q 484 1101 484 1085 q 503 1233 484 1135 q 672 1876 563 1535 q 711 1984 696 1952 q 738 2018 726 2016 q 758 2020 751 2020 q 807 2013 777 2020 q 1012 1984 855 2002 q 1438 1947 1194 1963 q 1685 1931 1649 1931 q 1702 1928 1702 1931 q 1696 1922 1702 1925 q 1689 1916 1689 1919 q 1719 1910 1689 1911 q 1746 1908 1746 1910 q 1706 1902 1746 1906 q 1644 1885 1644 1893 q 1655 1883 1644 1883 q 1662 1876 1662 1883 q 1660 1872 1662 1875 q 1638 1865 1657 1868 q 1594 1861 1619 1862 q 1557 1859 1557 1860 q 1622 1853 1557 1857 q 1689 1847 1689 1849 q 1646 1845 1689 1845 q 1431 1821 1534 1839 q 1402 1809 1418 1818 q 1369 1798 1387 1801 l 1331 1792 q 1164 1767 1202 1767 l 1124 1767 q 967 1779 1057 1767 q 886 1786 912 1786 q 862 1781 863 1786 q 846 1738 857 1771 q 810 1609 817 1656 q 794 1555 804 1575 q 773 1497 787 1541 q 749 1409 760 1453 q 738 1353 738 1364 q 760 1339 738 1339 l 770 1339 l 799 1340 q 825 1341 812 1341 q 1222 1237 1028 1341 q 1310 1165 1253 1219 q 1396 1050 1357 1122 q 1451 909 1436 979 q 1459 812 1459 865 q 1429 608 1459 696 q 1160 236 1357 409 q 1063 147 1096 180 q 1041 128 1045 128 q 1040 129 1040 128 l 1010 113 q 936 65 980 94 q 726 -56 821 -11 q 313 -164 501 -164 m 1157 503 q 1166 511 1158 503 q 1190 541 1175 519 q 1221 588 1206 563 q 1245 632 1236 612 q 1255 656 1255 651 q 1255 657 1255 657 q 1226 614 1250 657 q 1171 526 1193 556 q 1156 504 1156 506 l 1157 503 m 1260 684 q 1271 696 1265 684 q 1279 728 1279 714 q 1277 734 1279 734 q 1260 702 1271 734 q 1257 688 1257 693 q 1260 684 1257 684 m 1253 945 q 1255 952 1255 945 q 1249 964 1255 956 q 1235 985 1244 973 q 1215 1008 1225 996 q 1253 945 1246 945 m 1215 1015 q 1192 1043 1215 1017 q 1143 1083 1163 1072 l 1140 1084 q 1139 1083 1139 1084 q 1168 1053 1139 1078 q 1215 1015 1211 1015 l 1215 1015 m 1116 1093 q 1118 1093 1118 1093 q 1114 1100 1118 1095 q 1106 1108 1111 1105 q 1096 1111 1101 1111 q 1092 1109 1092 1111 q 1099 1101 1092 1106 q 1116 1093 1113 1093 z "},"6":{"ha":1366,"x_min":7,"x_max":1359,"o":"m 414 -293 q 337 -286 373 -293 q 29 52 114 -235 q 9 186 12 113 q 7 330 7 232 q 11 469 7 417 q 28 591 16 527 q 247 1224 100 937 q 598 1713 394 1512 q 1148 2033 852 1964 q 1282 2053 1236 2053 q 1303 2049 1298 2053 q 1316 2044 1309 2045 q 1326 2043 1322 2043 q 1338 2045 1332 2043 q 1350 2046 1345 2046 q 1359 2040 1359 2046 q 1349 2032 1359 2035 q 1325 2028 1339 2028 q 1294 2025 1312 2028 q 1263 2017 1276 2022 q 1237 2007 1251 2012 q 1270 1995 1270 1997 q 1212 1976 1270 1990 q 1118 1944 1118 1954 q 1122 1943 1118 1943 q 1139 1946 1127 1943 q 1303 1978 1280 1978 l 1307 1977 q 1244 1957 1307 1972 q 1085 1898 1158 1936 q 1008 1831 1013 1859 q 998 1814 1006 1814 q 935 1762 989 1814 q 880 1701 880 1709 q 791 1609 880 1692 q 653 1463 725 1547 q 530 1305 582 1380 q 417 1098 485 1234 q 319 875 350 961 q 215 462 220 587 q 210 315 210 336 q 283 -3 210 117 q 418 -79 327 -79 q 445 -78 431 -79 q 822 125 631 -60 q 1095 563 1012 312 q 1134 754 1134 682 q 1087 875 1134 829 q 955 933 1030 933 q 755 865 871 933 q 665 805 703 836 q 579 725 626 774 q 517 664 522 664 l 517 665 q 519 670 517 666 q 559 729 559 724 l 559 729 q 504 667 553 729 q 460 608 481 637 q 377 501 384 501 q 376 502 376 501 q 430 603 376 511 q 548 774 495 714 q 565 795 565 793 l 564 795 q 538 771 563 795 q 460 682 505 740 q 410 623 417 625 q 406 631 406 623 q 412 665 406 646 q 425 689 417 680 q 473 756 441 709 q 500 802 499 793 q 501 811 501 810 q 498 815 501 815 q 481 806 494 815 l 479 804 l 479 805 q 512 854 479 809 q 723 1040 602 968 q 771 1071 771 1068 l 770 1072 q 676 1029 745 1070 q 538 936 606 989 l 494 901 l 528 943 q 672 1062 582 1010 q 862 1136 762 1114 q 946 1146 907 1146 q 1012 1141 974 1146 q 1269 1005 1192 1115 q 1345 758 1345 896 q 1340 673 1345 718 q 1145 187 1301 425 q 782 -178 989 -51 q 414 -293 586 -293 m 538 -255 q 554 -253 545 -255 q 574 -246 564 -250 q 584 -239 584 -241 q 578 -238 584 -238 q 562 -240 572 -238 q 542 -247 552 -243 q 532 -254 532 -251 q 538 -255 532 -255 m 659 -217 q 732 -183 669 -215 q 822 -128 791 -151 q 836 -116 836 -117 l 835 -115 l 762 -156 l 709 -185 q 659 -216 659 -213 l 659 -217 m 205 -188 q 207 -185 207 -188 q 175 -153 207 -182 l 143 -124 q 198 -183 193 -179 q 205 -188 203 -188 m 860 -100 q 876 -90 869 -100 l 876 -87 q 873 -85 876 -85 q 866 -87 871 -85 q 852 -97 852 -92 q 860 -100 852 -100 m 94 -31 l 94 -30 q 74 41 94 -20 q 56 86 58 86 q 55 83 55 86 q 66 28 55 65 q 94 -31 85 -31 l 94 -31 m 45 140 q 49 154 49 140 q 45 168 49 168 q 42 154 42 168 q 45 140 42 140 z "},"7":{"ha":1683,"x_min":7,"x_max":1676,"o":"m 48 -69 q 46 -66 46 -69 q 79 49 46 -56 q 104 144 104 132 q 104 146 104 146 q 71 75 100 146 q 41 18 48 18 q 34 39 34 18 q 43 95 34 64 q 53 138 52 126 q 46 154 53 151 q 39 168 39 157 q 56 239 39 185 q 97 352 77 305 q 109 385 109 375 q 106 389 109 389 q 82 351 99 389 q 35 270 64 314 l 7 227 l 13 261 q 111 478 28 332 q 400 899 216 663 q 591 1135 528 1062 q 818 1385 682 1239 q 1052 1631 953 1531 l 1194 1776 l 1125 1768 q 792 1761 1042 1761 q 395 1769 477 1761 q 325 1785 325 1776 l 326 1788 q 321 1792 326 1790 q 306 1794 316 1794 q 288 1797 295 1794 q 281 1802 281 1799 q 297 1807 281 1807 q 313 1806 304 1807 q 328 1805 321 1805 q 358 1823 349 1805 q 374 1839 364 1835 q 397 1843 383 1843 l 408 1842 l 423 1841 q 453 1846 447 1841 l 453 1847 q 392 1854 453 1853 l 325 1855 l 406 1865 q 551 1902 488 1874 q 625 1931 610 1930 q 666 1946 637 1931 q 937 1970 691 1961 q 1188 1984 1173 1980 q 1298 1995 1199 1990 q 1565 2020 1426 2001 q 1648 2028 1620 2028 q 1676 2018 1676 2028 q 1612 1932 1676 2001 l 1583 1900 q 1130 1409 1381 1671 q 440 589 645 904 q 339 442 374 489 q 163 125 296 387 q 125 59 130 59 l 125 60 q 135 89 125 68 q 142 104 142 102 l 141 104 q 130 91 140 104 q 95 19 113 69 q 56 -61 74 -38 q 48 -69 50 -69 m 722 1242 q 732 1250 724 1242 q 808 1331 744 1265 l 871 1399 q 720 1244 720 1253 q 722 1242 720 1242 m 985 1511 q 1057 1579 989 1511 q 1116 1647 1116 1638 l 1115 1648 q 1045 1580 1105 1647 q 985 1511 985 1514 m 1181 1423 q 1179 1427 1179 1423 q 1196 1444 1179 1431 q 1208 1453 1206 1453 l 1208 1452 q 1200 1440 1208 1451 q 1181 1423 1185 1423 z "},"8":{"ha":1697,"x_min":7,"x_max":1691,"o":"m 366 -194 q 269 -180 311 -194 q 188 -140 217 -161 q 153 -119 159 -119 q 79 -15 137 -115 q 7 265 7 106 q 60 491 7 360 q 151 656 100 588 q 279 786 199 717 q 418 890 359 856 q 530 965 451 909 q 774 1128 713 1094 q 827 1166 827 1158 q 775 1259 824 1176 q 638 1655 638 1491 q 659 1772 638 1718 q 808 1945 694 1860 q 1068 2087 922 2030 q 1356 2147 1223 2147 q 1445 2141 1413 2147 q 1520 2115 1482 2134 q 1634 2017 1588 2079 q 1691 1855 1691 1940 q 1665 1723 1691 1793 q 1521 1518 1620 1598 q 1386 1425 1444 1456 q 1354 1411 1362 1411 q 1351 1413 1352 1411 q 1347 1414 1350 1414 q 1282 1380 1332 1414 q 1210 1333 1254 1362 q 1126 1278 1166 1303 q 1047 1220 1047 1227 q 1048 1219 1047 1219 q 1126 1258 1057 1219 q 1201 1293 1187 1293 q 1202 1292 1202 1293 q 1202 1291 1202 1291 q 1191 1281 1202 1286 q 1179 1270 1179 1276 l 1180 1266 q 1126 1223 1180 1255 q 1067 1183 1067 1186 q 1112 1110 1067 1181 q 1299 610 1299 821 q 1293 541 1299 574 q 757 -80 1233 162 q 510 -175 604 -156 q 366 -194 416 -194 m 375 18 q 498 43 425 18 q 837 215 696 110 q 1043 449 978 321 q 1086 620 1086 533 q 981 924 1086 745 l 940 993 l 723 840 q 427 621 527 703 q 287 475 327 539 q 231 326 247 410 q 222 243 222 283 q 250 113 222 175 q 316 28 279 39 q 375 18 353 18 m 614 57 q 648 71 624 57 q 665 84 665 80 q 663 85 665 85 q 628 71 655 85 q 612 58 612 62 q 614 57 612 57 m 683 85 q 742 115 687 85 q 793 149 793 146 l 792 149 q 736 125 787 149 q 677 87 677 95 q 683 85 677 85 m 818 163 q 863 193 827 163 l 897 223 l 826 178 q 814 168 814 169 q 818 163 814 163 m 1062 408 q 1078 427 1066 408 q 1084 446 1084 440 q 1083 447 1084 447 q 1067 427 1079 447 q 1061 410 1061 414 q 1062 408 1061 408 m 1122 568 q 1125 613 1125 568 q 1122 658 1125 658 q 1120 613 1120 658 q 1122 568 1120 568 m 715 885 q 795 930 725 885 q 891 989 846 962 q 913 1007 904 996 q 923 1027 923 1018 q 915 1033 923 1033 q 824 970 911 1033 q 714 886 714 892 q 715 885 714 885 m 1031 1257 q 1063 1272 1044 1257 q 1076 1284 1076 1282 q 1073 1286 1075 1286 q 1047 1276 1066 1286 q 1031 1270 1036 1270 q 1029 1272 1029 1270 q 1059 1292 1029 1276 q 1081 1301 1075 1301 q 1084 1299 1084 1301 l 1083 1297 q 1080 1290 1080 1292 q 1082 1288 1080 1288 q 1159 1328 1092 1288 q 1234 1370 1226 1368 q 1274 1385 1255 1373 q 1282 1394 1282 1390 q 1336 1432 1282 1402 q 1374 1457 1359 1445 q 1390 1472 1390 1468 q 1384 1481 1390 1481 q 1358 1471 1377 1481 q 1344 1465 1346 1465 l 1343 1465 q 1410 1518 1343 1469 q 1467 1565 1442 1543 q 1497 1594 1491 1587 q 1502 1603 1502 1601 q 1501 1604 1502 1604 q 1473 1589 1492 1604 q 1458 1574 1463 1581 q 1388 1519 1440 1554 q 1326 1485 1335 1485 q 1325 1485 1325 1485 q 1370 1521 1325 1491 q 1482 1629 1440 1569 q 1524 1721 1524 1689 q 1520 1737 1524 1730 q 1518 1743 1518 1741 q 1520 1744 1518 1744 q 1525 1742 1521 1744 q 1531 1740 1529 1740 q 1536 1749 1536 1740 q 1527 1775 1536 1760 q 1523 1788 1523 1782 q 1527 1800 1523 1794 q 1531 1813 1531 1805 q 1516 1867 1531 1833 q 1483 1908 1497 1908 q 1480 1907 1481 1908 q 1476 1906 1478 1906 q 1457 1918 1470 1906 q 1396 1938 1433 1936 q 1349 1940 1359 1940 q 1243 1927 1295 1940 q 1079 1860 1181 1910 q 919 1770 977 1811 q 844 1636 844 1718 q 920 1422 844 1565 q 987 1307 955 1356 q 1031 1257 1020 1257 m 1460 1648 q 1459 1649 1459 1648 q 1458 1655 1458 1651 q 1475 1678 1458 1664 q 1487 1687 1485 1687 l 1488 1687 q 1478 1672 1488 1685 q 1461 1649 1468 1659 l 1460 1648 z "},"9":{"ha":1417,"x_min":7,"x_max":1411,"o":"m 13 -214 q 7 -212 7 -214 q 76 -180 7 -208 q 272 -83 174 -140 q 319 -52 313 -60 q 319 -51 319 -51 q 229 -90 309 -51 q 97 -147 115 -147 q 94 -145 94 -147 q 100 -132 94 -141 q 117 -114 106 -122 q 138 -100 127 -105 q 192 -72 162 -90 q 243 -39 221 -55 q 266 -19 266 -23 q 259 -14 266 -14 q 247 -18 250 -14 q 237 -20 239 -20 q 237 -20 237 -20 q 347 69 237 -17 q 432 140 416 126 q 493 193 452 160 q 516 218 516 211 q 515 219 516 219 q 442 171 507 219 q 319 90 372 117 q 292 77 298 77 l 290 78 q 380 159 290 83 q 607 365 485 245 q 801 569 730 485 q 1067 979 961 762 q 1201 1463 1201 1260 q 1095 1760 1201 1643 q 1006 1828 1060 1796 q 878 1867 935 1867 q 690 1816 794 1867 q 520 1680 616 1775 q 370 1499 424 1584 q 243 1119 243 1290 l 243 1110 q 286 981 243 1019 q 424 942 330 942 q 695 1012 583 942 q 888 1223 804 1080 q 930 1310 915 1270 q 945 1338 939 1338 q 949 1335 947 1338 q 954 1332 951 1332 q 964 1354 959 1332 q 985 1392 972 1392 q 987 1390 987 1392 q 985 1379 987 1386 q 979 1356 982 1373 q 972 1321 975 1340 q 969 1295 969 1303 q 972 1289 969 1289 q 981 1295 975 1289 q 990 1301 987 1301 q 992 1298 992 1301 q 983 1264 992 1293 q 949 1178 972 1225 q 935 1146 935 1152 q 936 1144 935 1144 q 990 1245 951 1144 q 1024 1318 1019 1318 q 1025 1316 1025 1318 q 993 1217 1025 1300 q 946 1096 956 1125 q 917 1040 932 1064 q 905 1007 905 1019 q 905 1004 905 1005 q 906 1001 906 1002 q 850 913 906 982 q 804 864 825 882 q 774 830 774 839 q 732 801 774 821 q 638 764 691 782 q 546 739 586 746 q 437 731 489 731 q 233 772 323 731 q 54 969 104 833 q 36 1111 36 1024 q 59 1301 36 1223 q 460 1912 184 1688 q 871 2079 671 2079 q 1198 1954 1048 2079 q 1363 1727 1315 1858 q 1411 1463 1411 1596 q 1309 1002 1411 1268 q 1126 647 1230 795 q 1027 505 1097 606 q 757 207 924 363 q 440 -43 589 50 q 276 -138 348 -100 q 191 -178 205 -177 q 237 -148 191 -172 q 276 -124 276 -127 l 275 -123 q 167 -167 267 -123 q 13 -214 56 -214 m 541 241 q 560 259 546 241 q 568 271 568 269 q 545 252 564 271 q 539 245 539 247 q 541 241 539 241 m 1218 1531 q 1221 1550 1221 1531 q 1208 1619 1221 1580 q 1198 1645 1200 1645 l 1198 1640 q 1211 1565 1204 1615 q 1218 1531 1215 1531 m 1179 1687 q 1180 1689 1180 1687 q 1169 1716 1180 1693 q 1149 1746 1153 1746 q 1148 1744 1148 1746 q 1159 1716 1148 1738 q 1179 1687 1175 1687 m 722 1868 q 730 1869 725 1868 q 740 1874 736 1871 q 744 1879 744 1876 q 730 1882 744 1882 q 719 1879 724 1882 q 715 1873 715 1876 q 722 1868 715 1868 m 776 1887 q 852 1904 802 1887 q 860 1908 860 1906 q 855 1908 860 1908 q 791 1900 824 1908 q 768 1889 768 1895 q 776 1887 768 1887 z "},"\u0000":{"ha":0,"x_min":0,"x_max":0,"o":""},"\u001d":{"ha":0,"x_min":0,"x_max":0,"o":""}," ":{"ha":471,"x_min":0,"x_max":0,"o":""}," ":{"ha":471,"x_min":0,"x_max":0,"o":""},"!":{"ha":1151,"x_min":7,"x_max":1144,"o":"m 272 -287 q 257 -281 257 -287 q 258 -278 257 -280 q 260 -275 260 -276 q 252 -265 260 -268 q 244 -260 244 -262 q 252 -258 244 -258 q 260 -253 256 -258 q 264 -240 264 -248 q 267 -224 264 -233 q 277 -209 271 -216 q 283 -201 283 -203 q 281 -199 283 -199 q 273 -202 278 -199 q 264 -204 267 -204 q 261 -201 261 -204 q 269 -182 261 -197 q 278 -152 277 -166 q 271 -116 278 -138 q 262 -59 262 -84 l 262 -52 q 250 -28 262 -35 q 239 -24 244 -24 q 222 -32 231 -24 q 216 -50 216 -38 q 222 -84 216 -62 q 228 -117 228 -107 q 220 -134 228 -130 q 212 -152 212 -139 q 213 -160 212 -156 q 214 -169 214 -165 q 202 -180 214 -180 q 178 -196 187 -180 q 154 -208 171 -208 q 95 -200 144 -208 q 134 -245 134 -243 q 119 -248 134 -248 q 68 -221 98 -248 q 22 -161 39 -195 q 7 -53 7 -124 q 151 173 7 108 q 235 191 193 191 q 329 168 282 191 q 454 26 417 125 q 467 -56 467 -16 q 448 -151 467 -105 q 325 -274 412 -235 q 272 -287 293 -287 m 119 125 q 126 127 122 125 q 139 134 130 130 q 161 142 149 138 q 178 151 172 147 q 184 157 184 155 q 180 159 183 159 q 148 149 170 159 q 117 127 117 134 q 119 125 117 125 m 317 134 q 320 135 320 134 q 313 142 320 137 q 298 149 306 146 q 283 151 290 151 q 277 149 277 151 q 288 142 277 147 q 317 134 309 134 m 433 250 q 431 254 431 250 q 435 269 431 258 q 450 322 443 295 q 460 365 457 349 q 464 385 464 380 q 463 387 464 387 q 439 346 459 387 q 413 317 422 317 q 404 334 404 317 q 408 360 404 344 q 409 374 409 368 q 401 396 409 391 q 394 408 394 399 q 393 418 393 417 q 398 466 393 435 q 406 528 406 513 q 405 532 406 531 q 380 492 400 532 q 357 462 363 462 q 353 475 353 462 q 421 682 353 526 q 572 1046 454 755 q 737 1446 684 1323 q 850 1716 802 1598 q 917 1877 908 1862 q 972 2001 929 1900 q 1042 2152 1024 2129 q 1068 2170 1055 2170 q 1074 2163 1074 2170 q 1072 2154 1074 2159 q 1070 2144 1070 2148 q 1081 2128 1070 2132 q 1091 2107 1091 2124 q 1089 2091 1091 2100 q 1086 2073 1086 2078 q 1087 2071 1086 2071 q 1122 2140 1088 2071 q 1114 2051 1114 2064 q 1121 2005 1114 2019 q 1138 1948 1131 1982 q 1144 1895 1144 1915 q 1097 1770 1144 1875 q 1055 1659 1055 1670 q 1040 1623 1055 1646 q 847 1162 1019 1586 q 726 860 777 989 q 668 717 704 803 q 630 616 646 667 q 603 554 618 574 q 573 493 587 535 q 516 367 545 412 q 499 348 504 348 q 497 349 498 348 q 495 350 496 350 q 473 315 487 350 q 452 271 463 289 q 433 250 438 250 m 608 1073 q 620 1090 611 1073 q 634 1124 634 1114 q 633 1126 634 1126 q 620 1109 629 1126 q 606 1075 606 1084 q 608 1073 606 1073 m 640 1141 q 645 1144 642 1141 q 651 1151 648 1146 q 654 1159 654 1155 q 650 1164 654 1164 q 644 1162 648 1164 q 637 1156 640 1160 q 635 1147 635 1151 q 640 1141 635 1141 m 696 1266 q 704 1272 699 1266 q 711 1281 709 1278 q 712 1286 712 1284 q 709 1291 712 1291 q 705 1288 707 1291 q 699 1278 702 1285 q 696 1267 696 1270 q 696 1266 696 1266 m 715 1307 q 729 1319 723 1307 q 739 1350 739 1338 q 738 1352 739 1352 q 727 1339 736 1352 q 713 1310 713 1320 q 715 1307 713 1307 z "},"\"":{"ha":623,"x_min":7,"x_max":616,"o":"m 168 1206 q 152 1217 157 1206 q 136 1227 147 1227 q 131 1227 133 1227 q 126 1226 128 1226 q 78 1254 109 1226 q 37 1280 50 1280 q 33 1278 35 1280 q 27 1276 31 1276 q 14 1283 20 1276 q 7 1303 7 1291 q 16 1345 7 1316 q 56 1480 47 1447 q 119 1655 106 1649 q 124 1656 121 1656 q 165 1642 139 1656 q 178 1630 177 1634 q 184 1626 178 1626 q 190 1627 187 1626 q 195 1628 193 1628 q 217 1617 208 1628 q 240 1603 229 1603 q 275 1579 252 1603 l 298 1554 q 241 1353 260 1437 q 211 1244 223 1272 q 168 1206 193 1206 m 481 1205 q 468 1216 472 1205 q 454 1226 463 1226 q 449 1225 451 1226 q 444 1225 446 1225 q 422 1236 432 1225 q 397 1251 409 1251 q 373 1272 385 1251 q 360 1286 366 1286 q 354 1280 357 1286 q 342 1273 349 1273 q 335 1275 339 1273 q 325 1296 325 1281 q 398 1558 325 1326 q 442 1655 428 1655 q 482 1645 457 1655 q 500 1630 500 1636 q 505 1624 500 1624 q 509 1626 507 1624 q 513 1627 511 1627 q 530 1617 522 1627 q 552 1602 541 1603 q 590 1580 564 1600 l 616 1558 q 564 1377 576 1424 q 511 1212 522 1212 q 488 1206 504 1212 q 481 1205 485 1205 z "},"#":{"ha":2282,"x_min":7,"x_max":2275,"o":"m 241 -550 q 239 -547 239 -550 q 259 -461 239 -541 q 275 -382 275 -400 q 273 -378 275 -378 q 263 -395 270 -378 q 242 -452 258 -412 q 224 -477 231 -477 q 216 -457 216 -477 q 223 -416 216 -442 q 229 -380 229 -391 q 220 -366 229 -370 q 212 -338 212 -362 q 235 -190 212 -302 l 235 -186 l 235 -185 q 206 -233 230 -185 q 174 -286 181 -286 q 172 -277 172 -286 q 209 -126 172 -243 q 241 -35 224 -76 q 258 18 258 11 q 257 20 258 19 q 255 20 257 20 q 200 9 240 20 q 39 -24 76 -24 q 17 -18 22 -24 q 11 -8 11 -12 q 21 0 11 -3 q 31 15 31 4 q 31 20 31 18 q 30 25 30 23 q 56 49 30 37 q 75 61 75 58 q 67 63 75 63 q 27 54 54 63 q 8 48 12 48 q 7 49 7 48 q 19 60 7 51 q 48 74 38 74 q 72 87 54 74 q 106 116 90 100 q 122 136 122 131 q 161 182 122 143 q 206 217 182 205 q 274 239 229 229 q 352 262 347 258 q 435 484 359 276 q 619 1004 619 986 q 618 1006 619 1006 q 616 1006 618 1006 q 517 985 597 1006 q 444 967 476 975 q 405 958 412 959 q 192 905 218 912 q 168 900 175 900 q 163 905 163 900 l 165 913 q 157 918 165 918 q 148 917 154 918 q 134 914 138 914 q 132 915 132 914 q 146 925 132 917 q 166 937 161 933 q 171 944 171 941 q 162 952 171 947 q 158 957 158 954 q 184 973 158 964 q 220 994 220 986 q 214 996 220 996 q 178 988 203 996 q 152 977 161 983 q 146 976 149 976 q 142 980 142 976 q 174 1000 142 988 q 245 1046 211 1014 q 258 1068 258 1060 q 288 1100 258 1076 q 317 1134 317 1124 q 354 1157 317 1144 q 572 1215 427 1179 q 663 1236 633 1230 q 718 1253 709 1244 q 853 1612 724 1258 q 1025 2069 910 1770 q 1092 2231 1084 2222 q 1096 2235 1095 2235 q 1098 2231 1097 2235 q 1101 2227 1099 2227 q 1114 2243 1105 2227 q 1124 2258 1122 2258 q 1125 2256 1125 2258 q 1122 2228 1125 2249 q 1119 2203 1119 2211 q 1124 2194 1119 2194 q 1130 2196 1126 2194 q 1136 2197 1134 2197 q 1141 2190 1141 2197 q 1136 2162 1141 2182 q 1131 2125 1131 2136 q 1133 2119 1131 2119 q 1147 2151 1137 2119 q 1167 2195 1163 2195 q 1168 2191 1168 2195 q 1162 2150 1168 2182 q 1154 2078 1154 2113 q 1154 2059 1154 2067 q 1172 1885 1172 1915 q 1147 1807 1172 1875 q 1020 1466 1040 1511 q 990 1388 1002 1421 q 968 1336 978 1350 q 962 1324 962 1328 q 971 1318 962 1318 q 1012 1328 983 1318 q 1250 1392 1046 1339 q 1509 1462 1437 1440 q 1581 1493 1581 1485 q 1593 1541 1583 1499 q 1616 1639 1603 1582 q 1640 1732 1629 1695 q 1656 1768 1652 1768 q 1660 1766 1658 1766 q 1665 1773 1665 1766 q 1674 1783 1665 1783 q 1680 1776 1680 1783 q 1678 1769 1680 1773 q 1677 1763 1677 1766 q 1688 1748 1677 1752 q 1704 1711 1704 1741 l 1704 1707 q 1708 1689 1704 1689 q 1714 1695 1710 1689 q 1721 1713 1718 1702 q 1725 1734 1724 1724 q 1726 1739 1725 1739 q 1733 1703 1729 1739 q 1743 1659 1736 1679 q 1757 1631 1750 1638 q 1770 1611 1764 1624 q 1778 1587 1776 1599 q 1786 1566 1781 1575 q 1796 1555 1792 1557 q 1809 1553 1801 1553 q 1987 1588 1860 1553 q 2090 1612 2051 1606 q 2148 1623 2129 1618 q 2160 1626 2157 1626 q 2161 1625 2161 1626 q 2154 1617 2161 1623 q 2146 1610 2146 1612 q 2150 1609 2146 1609 q 2167 1611 2155 1609 q 2275 1627 2196 1617 l 2231 1607 q 2192 1589 2212 1598 q 2157 1572 2171 1579 q 2129 1558 2144 1565 q 2155 1563 2142 1560 q 2182 1568 2167 1565 q 2206 1574 2196 1571 q 2221 1577 2216 1577 q 2227 1572 2227 1577 q 2214 1550 2227 1560 q 2195 1538 2205 1542 q 2163 1507 2171 1528 q 2094 1455 2155 1487 q 2047 1424 2047 1430 q 2051 1422 2047 1422 q 2094 1432 2061 1422 q 2124 1436 2112 1436 q 2137 1430 2137 1436 q 2079 1398 2137 1419 q 1900 1345 2015 1373 l 1759 1310 l 1747 1273 q 1640 781 1733 1232 q 1600 599 1608 624 q 1598 591 1598 594 q 1606 585 1598 585 q 1624 587 1612 585 q 1657 593 1635 589 q 1700 601 1678 597 q 1751 612 1721 605 q 1805 626 1781 618 q 1867 638 1830 633 q 1937 645 1904 644 q 1994 648 1970 646 q 2022 652 2018 650 q 2030 654 2026 654 q 2045 651 2039 654 q 2047 648 2047 650 q 1992 620 2047 640 q 1938 593 1938 600 q 1942 592 1938 592 q 1982 600 1952 592 q 2005 604 1996 604 q 2023 593 2023 604 q 1989 568 2023 580 q 1970 555 1980 564 q 1957 536 1961 547 q 1894 488 1948 513 q 1841 460 1841 463 q 1849 458 1841 458 q 1889 462 1863 458 q 1924 464 1910 464 q 1938 460 1938 463 q 1709 382 1938 440 l 1552 342 q 1531 239 1537 262 q 1520 203 1525 215 q 1503 138 1509 176 q 1481 53 1495 93 q 1454 0 1468 14 q 1440 -37 1441 -14 q 1425 -82 1440 -57 q 1415 -95 1418 -95 q 1413 -87 1413 -95 q 1417 -39 1413 -75 q 1419 3 1419 -13 q 1415 22 1419 22 q 1412 21 1413 22 q 1404 10 1407 18 q 1401 -7 1401 2 q 1399 -26 1401 -16 q 1393 -42 1396 -36 q 1385 -49 1389 -49 q 1374 -20 1378 -49 q 1372 2 1372 -8 q 1368 18 1372 12 q 1358 25 1364 25 q 1339 78 1348 25 q 1335 122 1335 104 q 1338 143 1335 137 q 1339 147 1339 146 q 1333 152 1339 152 q 1326 148 1329 152 q 1323 138 1323 144 q 1320 120 1323 132 q 1312 97 1317 109 q 1301 78 1305 78 q 1292 123 1292 78 q 1308 252 1292 186 q 1311 271 1311 264 q 1307 279 1310 279 q 1206 255 1297 279 q 923 186 1166 244 q 527 80 552 98 q 489 5 507 64 q 444 -111 470 -58 q 403 -214 415 -173 q 363 -317 391 -256 q 328 -407 338 -374 q 309 -444 315 -444 q 309 -441 309 -444 q 312 -422 309 -436 q 315 -408 315 -411 q 315 -407 315 -407 q 290 -451 310 -407 q 277 -482 282 -468 q 248 -543 264 -521 q 241 -550 242 -550 m 937 221 q 972 231 956 221 q 981 238 981 236 q 976 239 981 239 q 937 231 960 239 q 923 223 923 224 q 937 221 923 221 m 1140 262 q 1150 265 1143 262 q 1160 271 1158 268 q 1163 275 1163 273 q 1159 279 1163 279 q 1146 272 1153 279 q 1139 262 1139 264 q 1140 262 1139 262 m 1183 273 q 1223 281 1196 273 q 1236 288 1236 286 q 1230 289 1236 289 q 1201 285 1215 289 q 1181 273 1181 279 q 1183 273 1181 273 m 621 328 q 773 363 641 328 q 1118 451 848 382 q 1349 513 1329 504 q 1365 527 1358 517 q 1375 549 1373 538 q 1480 1036 1417 763 q 1525 1242 1525 1230 l 1525 1242 l 1523 1242 q 1397 1211 1514 1242 q 1075 1128 1280 1180 q 878 1078 888 1082 q 722 655 870 1062 l 681 542 q 617 366 624 387 q 611 337 611 345 q 621 328 611 328 m 512 626 q 537 675 531 661 q 552 724 543 689 q 527 675 533 689 q 512 626 521 661 m 1433 700 q 1447 730 1436 700 q 1449 741 1449 738 q 1446 745 1449 745 q 1434 732 1438 745 q 1431 712 1431 725 q 1433 700 1431 700 m 553 730 q 561 737 555 730 q 568 751 566 745 q 571 762 571 758 q 570 766 571 766 q 563 759 568 766 q 555 744 557 751 q 552 733 552 737 q 553 730 552 730 m 1443 759 q 1452 766 1445 759 q 1459 779 1459 773 q 1456 783 1459 783 q 1451 781 1454 783 q 1446 770 1449 778 q 1442 760 1442 763 q 1443 759 1442 759 m 622 905 q 639 933 626 905 q 646 951 646 949 l 646 951 q 635 939 645 951 q 620 910 620 920 q 622 905 620 905 m 1493 924 q 1497 929 1494 924 q 1501 942 1499 935 q 1503 954 1503 949 q 1498 963 1503 963 q 1489 943 1489 963 q 1493 924 1489 924 m 648 968 q 671 1009 669 1003 q 673 1018 673 1016 q 669 1023 673 1023 q 655 992 663 1023 l 648 968 m 1108 1168 q 1137 1177 1123 1168 q 1147 1185 1147 1183 q 1137 1187 1147 1187 q 1108 1177 1124 1187 q 1099 1170 1099 1172 q 1108 1168 1099 1168 m 1327 1217 q 1341 1221 1341 1217 q 1339 1223 1341 1222 q 1334 1225 1337 1225 q 1329 1225 1331 1225 q 1321 1223 1325 1225 q 1316 1220 1316 1221 q 1327 1217 1316 1218 m 1358 1227 q 1388 1231 1373 1227 q 1435 1244 1398 1232 l 1411 1244 q 1367 1236 1387 1244 q 1352 1229 1352 1231 q 1358 1227 1352 1227 z "},"$":{"ha":1872,"x_min":7,"x_max":1866,"o":"m 182 -758 q 181 -754 181 -758 q 216 -653 181 -752 q 246 -555 246 -571 l 246 -553 q 214 -610 239 -553 q 184 -659 193 -659 q 176 -640 176 -659 q 187 -590 176 -623 q 197 -544 197 -558 q 193 -532 197 -534 q 187 -522 189 -530 q 186 -510 186 -515 q 192 -464 186 -503 l 161 -474 q 125 -480 142 -480 q 64 -461 93 -480 q 9 -378 18 -433 q 7 -361 7 -370 q 50 -256 7 -319 q 261 -12 102 -180 q 405 164 385 120 l 448 260 q 703 841 594 589 q 850 1166 783 1021 q 911 1310 911 1296 q 910 1311 911 1311 q 906 1312 909 1312 q 859 1304 895 1312 q 498 1190 682 1270 q 398 1154 427 1158 q 357 1150 369 1150 q 293 1162 324 1150 q 220 1262 220 1192 q 322 1475 220 1347 q 616 1782 419 1592 q 972 2102 812 1971 q 1178 2253 1063 2175 q 1354 2365 1292 2332 q 1390 2386 1377 2375 q 1418 2425 1403 2398 q 1458 2507 1432 2452 q 1517 2614 1508 2614 l 1518 2613 q 1522 2609 1519 2609 q 1534 2623 1526 2609 q 1544 2637 1543 2637 q 1545 2634 1545 2637 q 1541 2603 1545 2627 q 1538 2574 1538 2582 q 1541 2566 1538 2566 q 1552 2573 1545 2566 q 1561 2579 1558 2579 q 1563 2576 1563 2579 q 1549 2534 1563 2569 q 1533 2481 1533 2491 q 1534 2479 1533 2479 q 1542 2491 1536 2479 q 1557 2520 1549 2502 q 1571 2555 1565 2538 q 1577 2577 1577 2571 q 1580 2582 1577 2582 q 1585 2576 1585 2582 q 1575 2532 1585 2560 q 1554 2466 1560 2492 l 1549 2442 l 1660 2447 q 1699 2444 1683 2447 q 1756 2424 1725 2440 q 1856 2334 1830 2389 q 1864 2300 1862 2321 q 1866 2237 1866 2279 q 1864 2171 1866 2195 q 1773 1966 1858 2116 q 1659 1799 1730 1889 q 1571 1699 1581 1699 l 1568 1700 q 1541 1684 1560 1700 q 1521 1670 1528 1670 q 1519 1672 1519 1670 q 1539 1701 1519 1682 q 1579 1758 1567 1727 q 1585 1775 1585 1771 q 1581 1781 1585 1781 q 1558 1763 1575 1781 q 1554 1759 1554 1759 q 1589 1817 1554 1764 q 1669 1944 1669 1938 q 1668 1946 1669 1946 q 1617 1883 1662 1946 q 1548 1792 1587 1837 q 1532 1776 1534 1776 l 1532 1777 q 1560 1822 1532 1781 q 1650 1982 1619 1909 q 1682 2089 1682 2054 q 1681 2100 1682 2095 q 1680 2111 1680 2106 q 1686 2130 1680 2126 q 1695 2184 1695 2138 q 1689 2225 1695 2208 q 1676 2235 1687 2233 q 1653 2237 1666 2237 q 1560 2222 1588 2237 q 1534 2184 1539 2211 q 1447 1980 1528 2160 q 1358 1782 1366 1807 q 1288 1630 1346 1750 l 1226 1501 l 1279 1448 q 1362 1247 1362 1367 q 1270 943 1362 1123 q 1063 606 1198 801 q 824 293 929 412 q 752 210 784 249 q 687 132 729 180 q 555 -32 555 -22 l 555 -33 q 476 -201 555 -40 q 396 -372 396 -364 q 332 -508 396 -380 q 289 -589 304 -561 q 273 -617 274 -617 l 273 -616 q 283 -585 283 -590 q 282 -585 283 -585 q 245 -652 279 -585 q 182 -758 191 -758 m 127 -452 q 147 -444 140 -452 l 147 -442 q 123 -433 147 -433 q 74 -414 94 -433 q 54 -368 54 -395 q 93 -274 54 -329 q 124 -220 124 -229 q 123 -219 124 -219 q 74 -280 113 -219 q 35 -356 35 -341 q 44 -398 35 -374 q 74 -433 52 -418 q 127 -452 102 -452 m 178 -433 q 201 -419 188 -433 q 210 -402 210 -407 q 207 -399 210 -399 q 186 -414 201 -399 q 176 -431 176 -426 q 178 -433 176 -433 m 641 642 q 675 702 645 642 q 705 772 705 763 l 705 774 q 671 714 701 774 q 641 642 641 654 m 890 728 q 941 800 894 728 q 1094 1063 1039 945 q 1148 1247 1148 1181 q 1141 1290 1148 1290 q 1061 1124 1135 1290 l 998 979 q 903 765 909 780 q 890 729 890 732 l 890 728 m 711 787 q 727 817 714 787 q 735 834 735 831 l 734 835 q 724 822 733 835 q 709 793 709 802 q 711 787 709 787 m 808 991 q 829 1029 811 991 q 842 1059 842 1053 q 841 1060 842 1060 q 821 1032 836 1060 q 806 996 806 1004 q 808 991 806 991 m 857 1095 q 876 1122 861 1095 q 891 1162 891 1152 q 889 1165 891 1165 q 871 1140 884 1165 q 855 1097 855 1112 q 857 1095 855 1095 m 1167 1178 q 1175 1204 1172 1178 q 1177 1246 1177 1223 q 1173 1289 1175 1289 q 1165 1223 1170 1289 q 1164 1198 1164 1208 q 1167 1178 1164 1178 m 899 1178 q 907 1193 903 1180 q 909 1200 909 1198 q 907 1203 909 1203 q 903 1201 906 1203 q 897 1195 900 1199 q 894 1187 894 1190 q 897 1178 894 1178 l 899 1178 m 380 1197 q 426 1201 404 1197 q 448 1210 448 1204 q 439 1212 448 1212 q 383 1205 424 1212 q 367 1199 367 1202 q 380 1197 367 1197 m 478 1218 q 590 1257 490 1218 q 705 1308 705 1301 q 703 1308 705 1308 q 625 1284 693 1308 q 503 1236 534 1252 q 477 1219 477 1221 q 478 1218 477 1218 m 844 1335 q 853 1338 853 1335 q 846 1342 853 1342 l 842 1342 q 833 1340 838 1342 q 829 1337 829 1338 q 844 1335 829 1335 m 597 1451 q 654 1471 611 1451 q 798 1510 701 1490 q 945 1529 896 1529 q 958 1529 952 1529 q 968 1528 964 1528 q 1004 1536 990 1528 q 1043 1589 1021 1545 q 1128 1783 1055 1615 q 1215 1978 1176 1898 q 1243 2043 1243 2035 l 1242 2043 q 1178 1999 1235 2043 q 1086 1923 1121 1956 q 1004 1855 1051 1890 q 762 1640 932 1804 q 591 1457 591 1476 q 597 1451 591 1451 m 1569 1705 l 1571 1706 q 1587 1729 1577 1716 q 1597 1744 1597 1742 l 1596 1744 q 1585 1735 1595 1744 q 1568 1712 1568 1722 q 1569 1705 1568 1705 z "},"%":{"ha":1518,"x_min":7,"x_max":1511,"o":"m 428 -473 l 428 -472 q 449 -418 428 -466 l 450 -416 l 465 -380 q 472 -360 472 -365 q 463 -355 472 -355 q 421 -334 453 -355 q 214 -121 277 -237 q 191 -63 196 -88 q 186 9 186 -37 l 186 109 l 541 763 q 779 1212 692 1045 q 1058 1729 857 1360 q 1220 2035 1219 2024 q 1215 2036 1219 2036 q 1038 1998 1187 2036 q 761 1907 876 1956 q 654 1845 662 1864 q 652 1834 652 1840 q 669 1761 652 1820 q 690 1607 690 1678 q 673 1490 690 1544 q 600 1380 654 1434 q 477 1292 546 1326 q 408 1266 435 1272 q 322 1261 381 1261 q 239 1265 263 1261 q 184 1289 215 1270 q 14 1520 47 1360 q 7 1594 7 1557 q 43 1758 7 1676 q 208 1955 96 1877 q 359 2025 267 1995 q 545 2066 452 2056 q 699 2104 636 2075 q 1030 2207 810 2155 q 1373 2262 1255 2262 q 1474 2245 1440 2262 l 1511 2227 l 1504 2165 q 1488 2094 1501 2129 q 1441 1999 1475 2060 q 1323 1778 1369 1866 q 1088 1339 1196 1537 q 879 948 996 1168 q 669 557 705 623 q 517 274 579 392 q 417 90 458 162 q 389 24 389 43 q 468 -100 389 -35 q 538 -147 524 -147 q 578 -92 545 -147 q 602 -46 602 -54 q 600 -43 602 -43 q 581 -56 595 -43 q 573 -62 574 -62 q 572 -62 572 -62 q 576 -53 572 -60 q 693 89 616 16 q 844 199 770 161 q 903 220 877 216 q 983 225 928 225 q 1057 229 1052 225 q 1061 233 1061 232 q 1011 245 1061 238 q 985 246 998 246 q 840 214 922 246 q 661 109 741 176 l 615 69 q 640 102 628 86 q 676 141 652 119 q 725 183 700 163 q 890 267 823 256 q 987 277 958 277 q 1118 251 1056 277 q 1259 123 1206 213 q 1279 82 1272 99 q 1288 41 1286 64 q 1289 -28 1289 17 q 1284 -121 1289 -94 q 1261 -182 1279 -148 q 1082 -372 1199 -305 q 888 -440 966 -438 q 802 -442 810 -442 q 511 -380 661 -442 q 506 -379 509 -379 q 463 -423 492 -379 q 428 -473 431 -473 m 804 -225 q 911 -212 867 -224 q 1003 -159 960 -195 q 1069 -77 1046 -123 q 1085 -28 1085 -45 q 1079 1 1085 -16 q 985 64 1061 64 q 754 -52 873 64 q 680 -117 686 -117 q 679 -116 679 -117 q 676 -114 679 -114 q 663 -121 673 -114 q 628 -163 647 -136 q 614 -186 614 -182 q 615 -187 614 -187 q 618 -186 616 -187 q 623 -184 621 -184 q 632 -192 629 -184 q 688 -217 640 -208 q 789 -225 736 -225 l 804 -225 m 635 -176 q 635 -175 635 -176 q 648 -153 635 -172 q 675 -121 670 -121 q 677 -123 677 -121 q 661 -152 677 -131 q 635 -176 642 -176 m 574 -176 q 589 -161 578 -176 q 648 -82 607 -134 q 674 -45 674 -49 q 669 -48 673 -45 q 629 -90 652 -63 q 589 -141 606 -117 q 572 -174 572 -165 q 574 -176 572 -176 m 526 680 q 536 694 531 682 q 538 702 538 699 q 536 705 538 705 q 525 697 530 705 q 522 688 522 692 q 525 680 522 680 l 526 680 m 546 719 q 555 734 550 721 q 557 741 557 739 q 555 744 557 744 q 550 742 553 744 q 545 736 547 741 q 542 728 542 732 q 545 719 542 719 l 546 719 m 566 758 q 625 857 570 758 q 675 959 675 948 l 675 960 l 659 939 q 601 833 644 914 l 583 800 q 564 760 564 764 l 564 759 q 566 758 564 758 m 703 1013 q 733 1056 707 1013 q 755 1103 755 1095 q 755 1104 755 1104 q 724 1060 749 1104 q 702 1013 702 1019 l 703 1013 m 314 1462 q 393 1486 349 1462 q 475 1553 467 1520 q 483 1602 483 1586 q 453 1737 483 1653 q 431 1812 435 1789 q 427 1853 427 1836 q 433 1925 427 1863 l 414 1898 q 379 1871 393 1871 q 302 1806 366 1871 q 242 1731 242 1746 l 242 1730 q 243 1725 243 1728 q 233 1695 243 1711 q 220 1608 220 1669 q 234 1519 220 1548 q 314 1462 261 1462 m 956 1470 q 972 1490 960 1470 q 979 1508 979 1503 q 977 1510 979 1510 q 962 1490 973 1510 q 955 1472 955 1476 q 956 1470 955 1470 m 985 1522 q 991 1525 988 1522 q 998 1531 995 1527 q 1001 1540 1001 1536 q 996 1546 1001 1546 q 990 1543 994 1546 q 984 1536 987 1541 q 981 1528 981 1532 q 985 1522 981 1522 m 1048 1633 q 1099 1718 1053 1633 q 1131 1788 1131 1777 q 1130 1789 1131 1789 q 1109 1761 1126 1789 q 1078 1702 1095 1735 q 1048 1634 1048 1641 q 1048 1633 1048 1633 z "},"&":{"ha":1969,"x_min":7,"x_max":1963,"o":"m 515 3 q 215 116 357 3 q 62 300 114 195 q 7 543 7 418 q 24 685 7 613 q 239 1053 72 886 q 293 1120 293 1107 l 292 1124 q 293 1126 292 1126 q 297 1124 294 1126 q 303 1123 300 1123 q 341 1141 317 1123 q 441 1203 378 1168 q 559 1261 504 1238 q 621 1290 621 1287 q 575 1393 621 1300 q 478 1672 479 1591 q 477 1755 477 1753 q 564 2012 477 1910 q 823 2145 651 2115 q 908 2150 859 2150 q 1118 2129 1036 2150 q 1351 1980 1289 2081 q 1413 1780 1413 1879 q 1398 1669 1413 1727 q 1264 1414 1363 1537 q 1035 1213 1166 1290 q 983 1180 983 1184 q 1111 1024 983 1170 q 1248 878 1239 878 q 1333 968 1255 878 q 1755 1213 1550 1213 q 1768 1211 1768 1213 q 1765 1207 1768 1209 q 1763 1204 1763 1206 q 1801 1192 1763 1197 q 1838 1185 1821 1190 q 1861 1176 1855 1180 q 1867 1171 1867 1173 q 1862 1170 1867 1170 q 1838 1173 1855 1170 q 1771 1179 1804 1179 q 1699 1168 1720 1179 q 1690 1160 1690 1162 q 1710 1157 1690 1157 q 1730 1154 1730 1156 q 1701 1143 1730 1152 q 1598 1096 1653 1127 q 1519 1042 1542 1065 q 1506 1025 1506 1028 q 1507 1025 1506 1025 q 1571 1066 1513 1025 q 1645 1106 1602 1088 q 1711 1129 1687 1124 q 1743 1135 1735 1135 q 1755 1128 1755 1135 q 1716 1115 1755 1121 q 1548 1023 1633 1105 q 1466 931 1500 979 q 1428 856 1431 884 q 1413 825 1427 833 q 1389 782 1400 816 l 1377 747 q 1615 495 1573 543 q 1653 446 1653 452 q 1762 326 1653 434 q 1919 156 1870 217 l 1963 97 q 1605 425 1621 425 q 1604 424 1604 425 q 1706 317 1605 416 q 1763 257 1737 285 q 1799 218 1790 230 q 1818 195 1809 207 q 1765 229 1778 229 q 1697 280 1752 229 q 1578 379 1592 379 q 1574 374 1574 379 q 1586 353 1574 367 q 1589 349 1589 349 l 1588 349 q 1390 510 1578 349 q 1291 587 1301 587 q 1290 587 1290 587 q 1289 586 1289 587 q 1313 555 1289 577 q 1413 451 1356 513 q 1459 395 1459 399 l 1459 394 q 1377 457 1454 394 q 1302 522 1331 494 q 1265 549 1274 549 q 1253 538 1260 549 q 1147 400 1225 493 q 1006 243 1070 308 q 595 9 791 27 q 515 3 542 3 m 534 212 q 964 507 721 212 l 1121 699 q 897 939 951 879 q 821 1027 846 996 q 747 1097 764 1096 q 679 1080 727 1097 q 579 1038 631 1063 q 492 990 526 1013 q 274 758 335 882 q 212 535 212 635 q 366 261 212 356 q 534 212 450 212 m 578 1079 q 589 1082 583 1079 q 604 1089 596 1084 q 611 1097 611 1095 q 608 1098 611 1098 q 596 1095 604 1098 q 582 1087 589 1093 q 575 1080 575 1082 q 578 1079 575 1079 m 633 1099 q 683 1113 640 1099 q 726 1134 726 1128 q 721 1135 726 1135 q 665 1120 705 1135 q 631 1100 631 1108 q 633 1099 631 1099 m 854 1362 q 924 1396 867 1363 q 1135 1596 1050 1472 q 1201 1773 1201 1699 q 1179 1850 1201 1816 q 935 1936 1122 1936 q 779 1913 833 1936 q 691 1763 691 1876 q 738 1550 691 1668 q 802 1422 767 1480 q 854 1362 837 1365 m 1302 1510 q 1331 1552 1305 1510 q 1353 1604 1353 1590 q 1352 1606 1353 1606 q 1323 1562 1346 1606 q 1301 1510 1301 1516 l 1302 1510 m 1378 1680 q 1383 1694 1383 1680 q 1378 1708 1383 1708 q 1375 1694 1375 1708 q 1378 1680 1375 1680 m 1389 1735 q 1392 1784 1392 1735 q 1380 1872 1392 1830 q 1350 1943 1364 1923 q 1345 1948 1347 1948 q 1345 1946 1345 1948 q 1356 1914 1345 1941 q 1383 1792 1377 1862 q 1389 1735 1387 1735 m 1333 1967 q 1335 1971 1335 1967 q 1329 1978 1335 1972 q 1312 1993 1322 1984 q 1291 2011 1302 2002 q 1333 1967 1327 1967 m 1284 2016 q 1286 2020 1286 2016 q 1269 2037 1286 2024 q 1257 2045 1259 2045 l 1257 2045 q 1265 2033 1257 2043 q 1284 2016 1280 2016 m 1773 336 q 1710 390 1769 336 q 1662 444 1662 437 q 1663 444 1662 444 q 1725 390 1672 444 q 1773 336 1773 343 m 1522 951 q 1522 952 1522 951 q 1535 971 1522 956 q 1558 991 1554 991 q 1558 990 1558 991 q 1545 971 1558 986 q 1522 951 1527 951 z "},"'":{"ha":233,"x_min":7,"x_max":227,"o":"m 178 1236 q 165 1251 170 1236 q 157 1262 161 1262 q 149 1254 153 1262 q 136 1246 145 1246 q 107 1253 126 1246 q 61 1278 73 1265 q 50 1288 54 1288 q 37 1276 45 1287 q 26 1265 30 1265 q 14 1280 22 1265 q 7 1314 7 1295 q 7 1324 7 1320 q 17 1501 12 1350 q 27 1662 22 1652 q 51 1666 33 1666 q 132 1650 96 1665 q 161 1640 143 1645 q 227 1615 174 1638 l 222 1344 q 213 1262 219 1277 q 202 1249 209 1253 q 178 1236 185 1236 z "},"(":{"ha":1040,"x_min":7,"x_max":1033,"o":"m 429 -104 q 381 -75 421 -104 q 340 -45 361 -61 q 297 -15 304 -15 q 295 -16 295 -15 q 328 -56 295 -22 q 363 -95 363 -87 q 353 -102 363 -102 q 300 -79 328 -102 q 262 -60 278 -60 l 254 -61 q 203 -30 238 -61 q 137 48 167 4 q 119 69 123 69 q 119 67 119 69 q 155 -14 119 53 q 180 -68 180 -60 q 179 -69 180 -69 q 170 -64 176 -69 q 86 49 127 -33 q 24 227 45 131 q 7 473 7 319 q 24 735 7 627 q 148 1172 64 964 q 380 1619 231 1379 q 652 1956 505 1818 q 935 2136 800 2094 q 990 2150 981 2150 q 996 2147 996 2150 q 994 2143 996 2145 q 993 2141 993 2142 q 1005 2137 993 2137 l 1015 2138 q 1030 2140 1026 2140 q 1033 2139 1033 2140 q 1010 2127 1033 2136 q 978 2099 978 2110 q 990 2091 978 2093 q 991 2090 991 2091 q 960 2072 991 2087 q 922 2049 922 2055 q 925 2047 922 2047 q 962 2058 933 2047 q 1007 2072 997 2072 q 1010 2070 1010 2072 q 981 2053 1010 2067 q 938 2024 960 2043 q 905 1987 916 2004 q 893 1962 893 1971 q 895 1956 893 1959 q 896 1950 896 1953 q 892 1944 896 1946 q 857 1885 883 1940 q 806 1814 828 1829 q 706 1710 780 1795 q 627 1612 627 1621 q 597 1569 627 1603 q 480 1384 549 1512 q 357 1123 411 1257 q 217 488 217 777 q 352 12 217 181 q 371 -16 371 -13 q 370 -16 371 -16 q 365 -13 369 -16 q 346 -2 351 -2 q 343 -5 343 -2 q 375 -43 343 -15 q 421 -90 410 -75 q 431 -103 431 -100 q 429 -104 431 -104 m 74 844 q 78 856 78 844 q 76 864 78 859 q 73 868 75 868 q 71 858 71 868 q 74 844 71 844 m 82 885 q 89 895 85 885 q 95 915 93 905 q 98 930 98 924 q 96 936 98 936 q 90 925 94 936 q 81 891 81 907 q 82 885 81 885 m 102 952 q 108 959 104 952 q 115 974 113 966 q 118 989 118 983 q 116 995 118 995 q 109 984 113 995 q 100 955 100 962 q 102 952 100 952 m 172 1136 q 181 1150 176 1138 q 182 1158 182 1155 q 180 1161 182 1161 q 176 1159 179 1161 q 170 1153 173 1157 q 168 1145 168 1148 q 170 1136 168 1136 l 172 1136 m 189 1187 q 202 1198 193 1187 q 216 1232 216 1217 q 213 1238 216 1238 q 201 1223 210 1238 q 188 1190 188 1198 q 189 1187 188 1187 z "},")":{"ha":1031,"x_min":7,"x_max":1025,"o":"m 12 -135 q 7 -132 7 -135 q 59 -96 7 -125 q 114 -65 90 -79 q 142 -46 137 -52 q 147 -39 147 -41 q 146 -39 147 -39 l 143 -39 q 36 -83 52 -83 q 32 -77 32 -83 q 39 -62 32 -71 q 71 -35 50 -47 q 97 -7 97 -20 l 96 -3 q 142 62 96 12 q 208 140 208 133 q 208 140 208 140 q 182 123 204 140 q 103 71 115 71 q 101 74 101 71 q 198 184 101 89 q 665 922 494 463 q 819 1585 819 1320 q 812 1693 819 1642 q 777 1832 802 1786 q 680 1933 752 1877 l 653 1954 l 680 1954 q 703 1963 703 1954 q 701 1970 703 1966 q 699 1978 699 1974 q 707 1983 699 1983 q 739 1974 716 1983 q 760 1968 755 1968 q 763 1969 763 1968 q 728 1990 763 1975 q 696 2007 696 2005 q 697 2008 696 2008 q 701 2009 698 2009 q 799 1986 722 2009 q 909 1944 892 1957 q 949 1920 937 1923 q 978 1882 962 1914 q 1008 1803 995 1849 q 1024 1643 1018 1759 q 1025 1600 1025 1622 q 987 1260 1025 1449 q 860 833 943 1044 q 749 593 818 730 q 632 378 681 456 q 597 317 599 326 q 566 273 597 311 q 495 183 536 241 q 392 73 453 125 q 300 -10 337 24 q 193 -81 275 -35 q 104 -122 120 -122 q 101 -121 102 -122 q 100 -118 100 -119 q 105 -115 100 -115 q 118 -111 109 -115 q 134 -101 126 -107 q 137 -98 137 -99 q 135 -97 137 -97 q 92 -111 127 -97 q 12 -135 29 -135 m 589 689 q 612 720 593 689 q 636 768 636 758 q 635 770 636 770 q 612 739 631 770 q 588 690 588 699 q 589 689 588 689 m 641 786 q 647 788 644 786 q 653 795 650 791 q 656 804 656 800 q 651 809 656 809 q 646 807 649 809 q 639 800 642 805 q 636 791 636 795 q 641 786 636 786 m 736 998 q 744 1008 738 998 q 753 1037 753 1022 q 751 1046 753 1046 q 744 1037 749 1046 q 734 1003 734 1021 q 736 998 734 998 z "},"*":{"ha":745,"x_min":7,"x_max":739,"o":"m 189 1293 q 185 1301 185 1293 l 186 1328 l 186 1337 q 183 1345 186 1345 q 172 1339 180 1345 q 160 1332 165 1332 q 158 1333 159 1332 q 148 1350 153 1335 q 128 1381 140 1372 q 120 1393 123 1384 q 117 1413 117 1402 q 113 1432 117 1432 q 104 1426 110 1432 q 90 1421 98 1421 q 85 1423 87 1421 q 79 1438 79 1429 q 103 1489 79 1457 q 127 1525 127 1521 q 97 1529 127 1529 l 77 1528 q 15 1539 28 1528 q 7 1564 7 1549 q 24 1604 7 1590 q 28 1609 28 1607 q 22 1611 28 1611 l 21 1611 q 16 1615 16 1611 q 29 1637 16 1621 q 50 1672 50 1664 q 70 1710 50 1682 q 105 1737 86 1735 q 145 1737 116 1737 q 189 1736 163 1736 q 218 1737 208 1736 q 239 1752 235 1740 q 243 1799 243 1764 q 267 1870 246 1870 q 278 1865 272 1870 q 291 1860 285 1860 q 297 1862 295 1860 q 301 1864 299 1864 q 313 1855 307 1864 q 320 1847 318 1847 q 322 1853 322 1847 q 328 1859 322 1859 q 380 1836 333 1859 l 413 1820 q 443 1800 436 1809 q 450 1768 450 1790 q 453 1743 450 1746 q 460 1740 456 1740 q 475 1742 466 1740 q 594 1749 496 1748 q 672 1746 650 1749 q 700 1733 694 1742 q 718 1722 709 1722 q 722 1723 720 1722 q 727 1725 724 1725 q 738 1718 734 1725 q 739 1716 739 1718 q 716 1697 739 1707 q 698 1686 698 1690 q 706 1682 698 1683 q 722 1671 720 1678 q 723 1662 723 1664 q 713 1649 723 1653 q 700 1628 703 1645 q 673 1593 696 1611 q 658 1575 658 1579 q 667 1573 658 1573 q 684 1565 683 1571 l 684 1558 q 650 1535 684 1541 q 627 1533 638 1533 q 608 1529 608 1533 q 616 1520 608 1527 q 657 1450 657 1488 q 634 1426 657 1426 q 618 1415 618 1426 l 618 1414 q 606 1397 618 1407 q 545 1368 572 1369 q 533 1363 538 1367 q 528 1353 528 1359 q 517 1335 528 1335 q 430 1402 499 1335 l 353 1477 q 298 1390 312 1409 q 275 1361 283 1371 q 260 1343 266 1352 q 254 1331 254 1335 q 242 1316 254 1324 q 215 1304 230 1308 q 198 1295 209 1302 q 189 1293 193 1293 z "},"+":{"ha":824,"x_min":7,"x_max":817,"o":"m 459 480 q 442 499 449 480 q 431 518 435 517 q 427 519 427 519 q 416 503 419 519 q 410 491 414 491 q 396 503 406 491 q 365 519 380 519 q 337 538 350 519 q 317 557 325 557 q 310 544 310 557 q 300 530 310 530 q 283 545 290 530 q 277 640 277 564 l 275 720 q 63 725 103 722 q 10 736 13 728 q 7 747 7 743 q 20 783 7 760 q 28 808 28 799 q 27 812 28 812 q 25 813 25 812 q 41 838 25 820 q 63 869 63 861 l 63 870 q 79 903 63 878 q 96 921 87 916 q 124 928 104 926 q 281 929 144 929 q 284 1107 281 1084 q 297 1140 288 1131 q 312 1149 307 1149 q 321 1142 317 1149 q 332 1135 326 1135 q 336 1137 334 1135 q 341 1139 338 1139 q 355 1133 348 1139 q 365 1127 362 1127 q 368 1133 368 1127 q 371 1136 368 1136 q 388 1124 376 1136 q 424 1105 408 1105 q 464 1085 439 1105 q 487 1046 485 1070 q 488 1017 488 1034 l 486 929 q 734 925 702 928 q 777 911 775 921 q 785 903 778 907 q 799 900 791 900 q 817 893 817 900 q 791 876 817 884 l 764 869 l 811 850 q 778 812 781 819 q 774 802 774 805 q 774 800 774 800 q 775 798 775 799 q 750 774 775 790 q 726 758 726 762 q 741 750 726 753 q 756 742 756 747 q 715 718 756 722 q 490 714 686 714 l 490 614 q 477 511 488 516 q 466 494 466 508 q 459 480 466 480 z "},",":{"ha":387,"x_min":7,"x_max":380,"o":"m 134 -144 q 115 -127 120 -144 q 107 -115 113 -120 q 96 -110 102 -110 q 84 -105 90 -110 q 76 -93 79 -100 q 67 -77 73 -85 q 56 -63 62 -68 q 47 -49 51 -57 q 44 -35 44 -41 q 36 -24 44 -24 q 28 -26 33 -24 q 22 -27 24 -27 q 7 -9 7 -27 q 16 16 7 3 q 171 252 137 187 q 192 283 182 276 q 224 291 202 291 q 264 281 256 291 q 273 274 269 274 q 276 275 275 274 l 277 275 q 332 238 287 275 l 380 196 q 312 79 334 115 q 272 16 290 44 q 230 -57 231 -48 q 195 -104 229 -66 q 152 -140 166 -136 q 134 -144 138 -144 z "},"-":{"ha":726,"x_min":7,"x_max":720,"o":"m 611 666 q 589 671 607 668 q 294 677 566 673 q 37 685 76 680 q 9 693 12 688 q 7 705 7 699 q 11 724 7 713 q 33 755 18 743 q 37 762 37 758 q 29 772 37 766 q 21 780 21 778 q 25 782 21 782 q 39 797 29 783 q 84 884 49 810 l 486 883 l 564 882 q 655 881 627 882 q 690 875 690 880 l 687 869 q 705 856 687 862 q 720 848 720 852 q 698 834 720 846 q 677 818 677 823 q 685 814 677 814 q 702 792 702 808 q 692 782 702 782 q 685 778 688 782 q 682 768 682 774 q 659 736 682 755 q 635 710 635 718 q 649 704 635 704 q 663 697 663 704 q 637 675 663 684 q 611 666 616 666 m 409 696 q 423 699 423 696 q 409 703 423 703 q 395 699 395 703 q 409 696 395 696 z "},"­":{"ha":726,"x_min":7,"x_max":720,"o":"m 611 666 q 589 671 607 668 q 294 677 566 673 q 37 685 76 680 q 9 693 12 688 q 7 705 7 699 q 11 724 7 713 q 33 755 18 743 q 37 762 37 758 q 29 772 37 766 q 21 780 21 778 q 25 782 21 782 q 39 797 29 783 q 84 884 49 810 l 486 883 l 564 882 q 655 881 627 882 q 690 875 690 880 l 687 869 q 705 856 687 862 q 720 848 720 852 q 698 834 720 846 q 677 818 677 823 q 685 814 677 814 q 702 792 702 808 q 692 782 702 782 q 685 778 688 782 q 682 768 682 774 q 659 736 682 755 q 635 710 635 718 q 649 704 635 704 q 663 697 663 704 q 637 675 663 684 q 611 666 616 666 m 409 696 q 423 699 423 696 q 409 703 423 703 q 395 699 395 703 q 409 696 395 696 z "},".":{"ha":449,"x_min":7,"x_max":443,"o":"m 252 -55 q 243 -50 243 -55 q 245 -45 243 -47 q 246 -40 246 -42 q 238 -35 246 -35 l 236 -35 q 231 -33 231 -35 q 239 -25 231 -31 q 248 -9 248 -20 q 248 -4 248 -6 q 247 0 247 -2 q 258 21 247 12 q 269 33 269 31 l 268 33 q 257 30 265 33 l 249 28 q 240 36 240 28 q 251 49 240 41 q 257 71 257 54 q 255 96 257 81 q 249 162 249 149 q 238 196 248 185 q 220 207 228 207 q 210 203 215 207 q 204 182 204 199 q 217 116 204 151 l 218 111 q 207 102 218 102 q 196 99 200 102 q 191 92 191 96 q 201 83 191 83 q 211 76 211 83 q 206 65 211 71 q 192 56 201 59 q 177 48 183 54 q 172 36 172 42 q 166 26 172 27 q 155 25 160 25 q 92 32 149 25 q 136 -15 114 9 l 114 -15 q 58 19 90 -15 q 15 93 27 53 q 7 161 7 124 q 33 294 7 239 q 124 389 68 360 q 225 418 180 418 q 263 414 244 418 q 396 317 349 388 q 443 175 443 247 q 412 62 443 125 q 369 -3 389 16 q 311 -37 343 -22 q 252 -55 271 -55 m 104 351 q 137 363 111 351 q 168 382 168 377 q 166 384 168 384 q 134 371 159 384 q 103 351 103 356 q 104 351 103 351 m 296 357 q 298 361 298 357 q 277 376 298 365 q 260 382 263 382 q 274 370 260 381 q 292 358 288 359 q 296 357 295 357 z "},"/":{"ha":865,"x_min":7,"x_max":858,"o":"m 88 -63 q 85 -55 85 -63 q 100 6 85 -43 q 114 66 114 55 q 113 71 114 71 q 92 37 108 71 q 68 -1 75 -1 q 60 26 60 -1 q 62 52 60 39 q 64 70 64 62 q 56 91 64 85 q 47 104 47 94 l 47 115 q 54 170 47 132 q 62 240 62 220 q 61 245 62 244 q 33 196 56 245 l 7 144 l 12 195 q 50 331 16 243 q 255 869 97 452 q 315 1029 302 994 q 430 1328 340 1101 q 529 1583 520 1554 q 630 1847 538 1611 q 741 2124 692 2007 q 766 2165 762 2165 l 768 2165 q 785 2178 774 2165 q 794 2187 791 2187 q 796 2178 796 2187 l 795 2157 q 804 2138 795 2138 l 809 2139 q 816 2129 816 2139 q 802 2077 816 2113 q 799 2067 799 2070 q 801 2065 799 2065 q 807 2067 803 2065 q 815 2080 810 2070 q 823 2102 820 2089 q 830 2124 825 2115 q 839 2138 835 2134 l 842 2139 q 845 2135 845 2139 q 842 2121 845 2130 q 831 2060 831 2090 q 838 2011 831 2036 q 858 1902 858 1940 q 849 1841 858 1873 q 808 1729 838 1800 q 759 1593 759 1604 q 740 1546 759 1583 q 647 1310 715 1495 q 590 1158 616 1225 q 558 1072 565 1090 q 357 535 460 813 q 300 372 300 383 q 261 281 300 364 q 222 184 222 197 q 195 113 222 170 q 172 66 182 89 q 155 31 161 43 q 144 7 150 20 q 149 39 149 37 q 149 41 149 41 q 134 17 146 41 q 121 -14 126 1 q 115 -33 115 -28 q 111 -44 115 -38 q 99 -57 106 -51 q 88 -63 92 -63 m 280 867 q 306 916 300 901 q 321 964 311 930 q 295 916 301 930 q 280 867 289 901 m 324 970 q 333 985 328 972 q 335 992 335 989 q 333 995 335 995 q 329 993 332 995 q 322 986 326 991 q 319 979 319 982 q 323 970 319 970 l 324 970 m 380 1107 q 387 1115 382 1107 q 395 1129 392 1122 q 397 1140 397 1136 q 396 1143 397 1143 q 389 1136 394 1143 q 381 1122 384 1129 q 378 1111 378 1115 q 380 1107 378 1107 m 397 1150 q 422 1194 417 1184 q 427 1208 427 1204 q 425 1213 427 1213 q 397 1150 414 1213 z "},":":{"ha":353,"x_min":7,"x_max":347,"o":"m 202 332 q 189 344 191 332 q 186 376 186 362 q 193 408 186 399 q 197 416 197 413 q 191 420 197 420 q 184 425 184 420 q 189 438 184 429 q 195 456 194 448 q 196 468 196 464 q 195 480 196 475 q 180 578 187 513 q 170 585 180 585 q 163 566 163 585 q 164 537 163 554 q 166 508 166 519 q 161 488 166 488 q 155 481 155 488 q 157 474 155 477 q 158 467 158 471 q 134 422 158 445 q 111 410 121 410 q 94 405 96 410 q 92 398 92 400 q 102 385 92 392 q 112 372 112 378 q 94 361 112 361 q 41 406 66 361 q 7 548 7 467 q 31 662 7 613 q 102 744 61 723 q 174 764 143 764 q 309 670 257 764 q 327 622 322 647 q 331 554 331 597 l 331 522 q 323 444 331 465 q 258 361 304 397 q 202 332 222 332 m 237 704 q 238 705 238 704 q 235 712 238 707 q 226 720 231 717 q 216 722 221 722 q 212 720 212 722 q 219 713 212 718 q 237 704 233 704 m 211 820 q 186 835 194 820 q 184 842 184 839 q 191 849 184 849 q 197 859 197 849 q 195 869 197 863 q 193 879 193 875 q 199 888 193 888 q 210 899 210 888 q 204 905 210 905 q 201 904 203 905 q 197 903 199 903 q 194 911 194 903 q 196 926 194 916 q 199 960 199 941 q 191 1038 199 1000 q 178 1064 184 1064 q 172 1044 172 1064 q 173 1021 172 1034 q 174 999 174 1008 q 169 976 174 976 q 163 969 163 976 q 164 962 163 966 q 165 954 165 958 q 138 903 165 932 q 116 888 125 888 q 106 882 106 888 q 112 869 106 878 q 117 853 117 859 q 104 843 117 843 q 74 856 94 843 q 25 942 34 889 q 16 1026 16 996 q 28 1120 16 1073 q 79 1201 43 1166 q 178 1246 125 1246 q 283 1197 239 1246 q 341 1086 335 1137 q 347 1019 347 1034 q 305 883 347 947 q 211 820 260 820 m 77 1170 q 127 1200 122 1196 q 132 1207 132 1205 q 128 1209 132 1209 q 98 1192 116 1209 l 77 1170 m 230 1191 q 235 1195 235 1191 q 233 1201 235 1198 q 227 1208 231 1205 q 218 1211 222 1211 q 212 1206 212 1211 q 215 1200 212 1204 q 221 1194 217 1196 q 230 1191 226 1191 z "},";":{"ha":473,"x_min":7,"x_max":466,"o":"m 100 321 q 95 327 95 321 q 85 333 95 333 q 74 331 81 333 q 62 329 66 329 q 58 332 58 329 q 64 347 58 336 q 75 371 75 364 q 71 375 75 375 q 62 372 68 375 l 58 371 q 41 421 47 371 q 20 475 34 475 q 7 485 7 475 q 50 545 7 507 q 163 737 134 623 q 181 785 174 783 l 186 785 q 206 782 193 785 q 252 775 239 775 q 271 768 266 775 q 323 740 277 762 q 366 711 364 720 l 366 703 q 363 686 366 696 q 236 431 335 549 q 172 364 201 387 q 102 321 144 341 l 100 321 m 330 955 q 318 966 318 955 l 317 981 q 323 1016 317 990 q 326 1032 326 1027 q 323 1038 326 1038 q 318 1036 321 1038 q 314 1034 315 1034 q 313 1036 313 1034 q 318 1050 313 1040 q 325 1070 323 1060 q 326 1087 326 1081 q 319 1135 326 1093 q 315 1167 317 1153 q 304 1206 311 1206 q 298 1177 298 1206 l 300 1135 q 293 1110 300 1110 q 287 1098 287 1110 l 288 1075 q 281 1061 288 1061 q 274 1057 277 1061 q 271 1047 271 1053 q 246 1032 269 1032 q 222 1023 222 1032 q 233 1005 222 1016 q 240 993 240 999 q 235 983 240 987 q 225 979 231 979 q 177 1019 205 979 q 141 1164 141 1070 q 157 1272 141 1228 q 304 1384 208 1384 q 436 1296 385 1384 q 463 1204 460 1248 q 466 1147 466 1161 q 451 1061 466 1095 q 366 968 418 995 q 330 955 342 955 m 219 1321 q 235 1330 224 1323 q 254 1343 246 1337 q 261 1351 261 1350 q 259 1352 261 1352 q 241 1344 255 1352 q 216 1322 216 1329 q 217 1321 216 1321 l 219 1321 m 359 1325 q 366 1330 366 1325 q 363 1335 366 1332 q 356 1342 361 1339 q 348 1345 352 1345 q 342 1340 342 1345 q 344 1334 342 1337 q 351 1328 347 1331 q 359 1325 355 1325 z "},";":{"ha":473,"x_min":7,"x_max":466,"o":"m 100 321 q 95 327 95 321 q 85 333 95 333 q 74 331 81 333 q 62 329 66 329 q 58 332 58 329 q 64 347 58 336 q 75 371 75 364 q 71 375 75 375 q 62 372 68 375 l 58 371 q 41 421 47 371 q 20 475 34 475 q 7 485 7 475 q 50 545 7 507 q 163 737 134 623 q 181 785 174 783 l 186 785 q 206 782 193 785 q 252 775 239 775 q 271 768 266 775 q 323 740 277 762 q 366 711 364 720 l 366 703 q 363 686 366 696 q 236 431 335 549 q 172 364 201 387 q 102 321 144 341 l 100 321 m 330 955 q 318 966 318 955 l 317 981 q 323 1016 317 990 q 326 1032 326 1027 q 323 1038 326 1038 q 318 1036 321 1038 q 314 1034 315 1034 q 313 1036 313 1034 q 318 1050 313 1040 q 325 1070 323 1060 q 326 1087 326 1081 q 319 1135 326 1093 q 315 1167 317 1153 q 304 1206 311 1206 q 298 1177 298 1206 l 300 1135 q 293 1110 300 1110 q 287 1098 287 1110 l 288 1075 q 281 1061 288 1061 q 274 1057 277 1061 q 271 1047 271 1053 q 246 1032 269 1032 q 222 1023 222 1032 q 233 1005 222 1016 q 240 993 240 999 q 235 983 240 987 q 225 979 231 979 q 177 1019 205 979 q 141 1164 141 1070 q 157 1272 141 1228 q 304 1384 208 1384 q 436 1296 385 1384 q 463 1204 460 1248 q 466 1147 466 1161 q 451 1061 466 1095 q 366 968 418 995 q 330 955 342 955 m 219 1321 q 235 1330 224 1323 q 254 1343 246 1337 q 261 1351 261 1350 q 259 1352 261 1352 q 241 1344 255 1352 q 216 1322 216 1329 q 217 1321 216 1321 l 219 1321 m 359 1325 q 366 1330 366 1325 q 363 1335 366 1332 q 356 1342 361 1339 q 348 1345 352 1345 q 342 1340 342 1345 q 344 1334 342 1337 q 351 1328 347 1331 q 359 1325 355 1325 z "},"<":{"ha":1359,"x_min":7,"x_max":1352,"o":"m 1154 477 q 1074 492 1120 477 q 907 558 1040 503 q 568 696 774 614 q 7 926 16 913 q 199 1019 7 932 q 479 1148 391 1105 q 911 1341 689 1251 q 1017 1379 1004 1379 l 1017 1379 q 1027 1370 1027 1375 q 1023 1360 1027 1365 q 1016 1348 1018 1354 q 1014 1337 1014 1342 l 1015 1331 q 1009 1316 1015 1324 q 992 1297 1004 1307 q 969 1276 981 1287 q 1035 1304 1025 1304 q 1038 1303 1038 1304 q 1010 1278 1038 1298 q 954 1206 978 1255 l 920 1138 q 589 970 910 1112 q 536 941 536 946 q 614 905 536 938 q 964 770 783 835 q 1085 717 1046 738 q 1144 692 1132 692 q 1223 659 1160 692 q 1276 623 1276 629 q 1275 621 1276 622 q 1274 619 1274 621 q 1303 601 1274 613 q 1352 569 1352 581 q 1347 566 1352 566 q 1286 579 1336 566 q 1232 591 1245 591 l 1230 590 q 1266 570 1230 586 q 1298 545 1298 555 q 1270 536 1298 536 l 1247 537 q 1225 529 1225 537 q 1198 522 1225 522 q 1113 530 1166 522 q 1089 533 1097 533 q 1083 531 1083 533 q 1125 507 1083 526 q 1169 482 1169 486 q 1154 477 1169 477 m 559 722 q 562 723 562 722 q 516 749 562 730 q 468 766 477 766 q 466 764 466 766 q 507 741 466 760 q 559 722 545 723 m 446 770 q 456 772 456 770 q 446 779 456 774 q 413 789 432 789 q 408 787 408 789 q 417 779 408 785 q 446 770 431 770 m 246 859 q 248 859 248 859 q 231 872 248 863 q 197 886 208 886 q 195 886 195 886 q 212 872 195 882 q 246 859 235 859 m 181 887 q 184 888 184 887 q 163 902 184 892 q 109 924 131 918 q 96 927 99 927 q 95 926 95 927 q 105 916 95 923 q 132 903 116 909 q 181 887 169 887 z "},"=":{"ha":716,"x_min":7,"x_max":709,"o":"m 89 538 q 9 547 11 538 q 7 566 7 555 q 13 595 7 581 q 21 606 17 606 q 28 609 26 606 q 31 616 31 612 q 25 622 31 622 q 21 621 24 622 q 14 617 16 617 q 12 618 12 617 q 26 638 12 627 q 44 665 41 649 q 60 711 48 684 q 81 738 69 731 q 181 745 92 745 q 377 758 210 745 q 623 773 574 773 q 664 765 661 773 q 690 748 672 755 q 702 741 702 744 q 680 724 702 736 q 659 709 659 713 q 674 706 659 707 q 690 698 690 704 q 661 642 690 686 q 642 618 650 627 q 629 599 629 604 q 641 595 629 595 q 653 591 652 595 q 655 584 655 586 q 634 562 655 568 q 210 541 575 551 q 89 538 132 538 m 406 567 q 420 570 420 567 q 411 575 420 575 q 400 573 406 575 q 395 570 395 571 q 406 567 395 568 m 106 861 l 72 861 q 9 870 11 861 q 7 886 7 878 q 14 918 7 902 q 23 928 18 927 q 28 930 28 928 q 20 938 28 932 q 12 948 12 943 q 17 955 12 951 q 32 975 22 958 q 52 1013 41 991 q 70 1048 62 1038 q 85 1062 77 1059 q 111 1065 94 1065 q 544 1093 255 1068 q 608 1095 577 1095 q 650 1093 637 1095 q 668 1088 663 1090 q 672 1085 672 1086 q 670 1084 672 1084 q 669 1083 669 1084 q 672 1080 669 1082 q 686 1073 675 1077 q 709 1063 697 1068 l 680 1047 q 660 1031 660 1037 q 668 1027 660 1029 q 680 1022 675 1026 q 685 1015 685 1019 q 672 983 685 1005 q 642 940 659 961 q 629 921 629 926 q 641 918 629 918 q 653 913 652 918 q 655 906 655 908 q 634 884 655 890 q 210 863 578 875 q 106 861 132 861 m 319 888 q 323 891 320 888 q 328 898 326 895 q 330 904 330 902 q 324 908 330 908 q 314 899 314 908 q 319 888 314 888 m 411 890 q 420 892 420 890 q 411 897 420 897 q 400 895 406 897 q 395 892 395 893 q 411 890 395 890 z "},">":{"ha":1200,"x_min":7,"x_max":1193,"o":"m 21 436 q 7 440 7 436 q 56 475 7 444 q 100 511 100 504 q 98 513 100 513 q 66 499 91 513 q 33 486 41 486 q 26 498 26 486 q 34 513 26 504 q 52 528 41 522 q 72 555 72 543 l 72 559 q 111 612 72 576 q 149 640 130 629 q 161 649 161 648 q 160 650 161 650 q 97 635 149 650 q 84 633 89 633 q 77 637 77 633 q 132 682 77 650 q 280 749 178 708 q 499 841 376 787 q 695 926 623 896 l 553 997 q 237 1167 239 1155 q 238 1170 238 1168 q 236 1176 238 1172 q 230 1185 235 1179 q 224 1194 224 1192 q 228 1196 224 1196 q 243 1193 233 1196 q 260 1190 254 1190 q 271 1202 271 1190 q 278 1215 271 1215 q 285 1213 281 1215 q 300 1207 292 1211 q 317 1201 309 1204 q 328 1198 326 1198 q 329 1199 329 1198 q 301 1222 329 1200 q 273 1242 273 1240 l 293 1236 q 337 1227 321 1227 l 355 1227 q 393 1236 382 1227 q 454 1250 404 1244 q 481 1252 469 1252 q 536 1239 505 1252 q 680 1168 556 1231 l 720 1147 q 1193 911 737 1138 q 998 827 1092 865 q 615 661 815 750 q 509 613 524 621 q 396 561 482 598 q 299 524 310 524 q 238 500 289 524 q 80 437 182 474 l 78 437 q 77 437 77 437 q 90 450 77 440 q 102 463 102 459 q 99 464 102 464 q 65 451 90 464 q 40 440 54 444 q 21 436 26 436 m 648 877 q 681 888 666 881 q 696 899 696 895 q 694 899 696 899 q 673 895 689 899 q 642 879 642 883 q 646 877 642 877 l 648 877 z "},"?":{"ha":1187,"x_min":7,"x_max":1181,"o":"m 444 -259 q 420 -252 427 -259 q 412 -241 412 -245 q 418 -232 412 -236 q 424 -220 424 -229 q 423 -214 424 -216 q 422 -209 422 -211 q 434 -190 422 -198 q 446 -182 446 -184 q 433 -180 446 -180 l 431 -180 q 420 -176 420 -180 q 426 -166 420 -172 q 431 -149 431 -161 q 426 -122 431 -138 q 410 -98 417 -98 q 400 -103 406 -98 q 393 -113 395 -108 q 391 -122 391 -119 q 391 -126 391 -125 q 392 -130 392 -128 q 372 -165 392 -142 q 349 -184 358 -181 q 333 -188 340 -188 q 318 -186 326 -188 q 304 -184 311 -184 q 290 -191 290 -184 q 304 -203 290 -197 q 319 -219 319 -210 q 304 -229 319 -229 q 238 -181 262 -229 q 214 -74 214 -133 q 321 107 214 57 q 410 132 367 132 q 473 117 442 132 q 579 11 544 91 q 602 -81 602 -37 q 513 -237 602 -168 q 444 -259 481 -259 m 304 73 l 347 85 q 361 96 361 90 q 357 98 361 98 q 329 87 347 98 l 304 73 m 469 75 q 473 78 473 75 q 462 91 473 86 q 444 94 454 94 q 437 92 437 94 q 446 84 437 90 q 469 75 461 75 m 449 213 q 431 245 444 213 q 409 351 415 287 l 402 420 q 391 289 395 302 q 383 277 388 277 q 369 300 376 277 q 361 342 363 318 q 346 393 357 393 q 343 392 345 393 q 340 391 341 391 q 332 424 332 391 q 340 542 332 484 q 349 589 344 574 q 357 627 357 612 q 355 633 357 633 q 326 567 347 633 q 286 472 294 472 q 284 482 284 472 q 363 755 284 597 q 622 1182 432 894 q 826 1502 755 1386 q 927 1686 897 1618 q 966 1814 956 1754 q 971 1858 971 1839 q 946 1915 971 1900 q 893 1926 928 1926 q 803 1914 857 1926 q 552 1816 687 1889 q 307 1646 416 1743 q 241 1572 271 1613 q 212 1516 212 1532 q 244 1497 212 1508 q 319 1478 277 1487 q 396 1468 361 1470 q 418 1466 409 1468 q 427 1460 427 1463 q 433 1453 427 1457 q 448 1446 439 1449 q 460 1440 460 1442 q 433 1434 460 1436 q 399 1420 399 1432 q 401 1415 399 1418 q 402 1411 402 1413 q 387 1402 402 1402 q 368 1396 368 1402 q 399 1380 368 1385 q 405 1378 405 1379 q 344 1373 405 1375 q 213 1364 222 1368 q 207 1361 210 1363 q 191 1358 201 1358 q 125 1372 165 1358 q 86 1392 100 1381 q 43 1418 62 1411 q 18 1457 28 1424 q 7 1535 7 1491 q 142 1774 11 1642 q 479 2011 273 1907 q 890 2133 724 2133 q 988 2120 943 2133 q 1136 2028 1090 2091 q 1181 1861 1181 1965 l 1181 1845 q 1148 1670 1181 1763 q 1017 1411 1114 1575 q 732 961 920 1247 q 661 844 673 869 q 611 751 642 803 q 589 719 597 728 q 543 633 572 698 q 491 504 514 569 q 466 414 467 438 q 453 385 466 399 q 438 328 438 368 q 445 264 438 301 q 451 220 451 232 q 449 213 451 213 m 345 1383 q 353 1392 347 1383 l 354 1394 q 331 1401 354 1401 l 321 1401 q 303 1399 303 1401 q 337 1387 303 1397 q 345 1383 345 1384 m 861 1511 q 899 1567 867 1515 q 935 1632 935 1624 q 933 1634 935 1634 q 882 1556 927 1634 q 859 1511 859 1516 l 861 1511 m 937 1647 q 949 1660 939 1647 q 964 1689 964 1680 q 962 1695 964 1695 q 945 1666 958 1695 q 937 1648 937 1651 l 937 1647 m 998 1908 q 1002 1913 1002 1908 q 989 1938 1002 1925 q 977 1948 980 1948 q 977 1946 977 1948 q 985 1925 977 1942 q 998 1908 993 1908 z "},"@":{"ha":1862,"x_min":7,"x_max":1855,"o":"m 568 171 q 434 176 473 171 q 317 207 378 186 q 214 252 255 228 q 87 371 140 295 q 15 536 34 447 q 7 637 7 579 q 40 884 7 766 q 297 1363 117 1139 q 694 1700 477 1588 q 980 1777 841 1777 q 1114 1758 1048 1777 q 1380 1606 1266 1719 q 1514 1284 1514 1470 q 1308 772 1514 1048 q 940 450 1133 541 q 897 426 897 430 q 899 425 897 425 q 1076 479 935 425 q 1293 571 1182 519 q 1473 663 1404 622 q 1544 703 1535 703 q 1547 701 1547 703 q 1544 693 1547 698 q 1540 687 1540 688 q 1541 686 1540 686 q 1547 688 1543 686 q 1553 694 1552 691 q 1555 700 1555 698 l 1554 705 q 1597 746 1554 715 q 1654 777 1640 777 l 1657 777 q 1727 827 1671 777 q 1855 943 1807 901 l 1832 911 q 1740 809 1805 873 q 1607 691 1674 745 q 1530 627 1530 631 q 1584 659 1537 627 q 1708 752 1610 678 q 1770 798 1767 798 q 1766 791 1770 795 q 1753 763 1753 777 q 1674 684 1750 747 q 1598 610 1598 621 q 1601 607 1598 607 q 1615 610 1605 607 l 1617 610 q 1618 610 1618 610 q 1597 587 1618 605 q 1461 487 1545 543 q 1308 397 1377 432 q 1232 353 1232 358 q 1234 353 1232 353 q 1434 441 1255 353 q 1534 487 1527 487 q 1535 486 1535 487 q 1447 420 1535 473 q 1339 362 1397 391 q 626 172 977 181 l 568 171 m 562 385 q 770 402 652 385 q 856 425 856 414 q 825 431 856 431 q 701 507 749 431 q 680 555 684 535 q 675 607 675 576 l 677 720 q 574 714 589 714 q 496 732 530 714 q 439 779 454 752 q 423 847 423 806 q 439 937 423 897 q 492 1025 455 976 q 694 1198 570 1126 q 953 1290 819 1270 q 1013 1293 978 1293 q 1149 1285 1084 1293 q 1215 1270 1198 1279 q 1225 1262 1225 1265 q 1217 1260 1225 1260 q 1215 1259 1215 1260 q 1238 1246 1215 1257 q 1302 1221 1289 1221 q 1304 1291 1304 1221 q 1130 1527 1304 1449 q 980 1562 1057 1562 q 552 1330 780 1562 q 221 718 273 1042 q 216 650 216 684 q 239 520 216 566 q 293 463 254 496 q 364 416 332 430 q 562 385 439 385 m 904 677 q 909 678 906 677 q 934 684 925 684 q 986 724 943 684 q 1147 899 1091 823 q 1224 1016 1191 957 q 1284 1152 1257 1074 q 1295 1198 1295 1185 q 1284 1211 1295 1202 q 1202 1242 1256 1230 q 1154 1249 1172 1249 q 1138 1243 1138 1249 q 1150 1228 1138 1234 l 1151 1227 q 1068 1223 1151 1223 q 959 1215 975 1223 l 958 1213 q 993 1209 958 1209 l 1058 1211 q 1153 1203 1121 1211 q 1171 1198 1171 1199 q 1160 1196 1171 1196 q 1109 1199 1145 1196 q 1067 1200 1086 1200 q 866 1143 959 1200 q 823 1101 823 1116 l 823 1093 q 814 1084 823 1084 q 790 1046 801 1084 q 784 1017 784 1024 q 787 1013 784 1013 q 798 1017 790 1013 q 810 1022 805 1022 q 816 1011 816 1022 q 825 992 816 994 q 838 990 835 990 q 873 1001 852 990 l 903 1017 q 953 926 947 942 q 959 903 959 910 q 924 803 959 899 q 895 693 895 722 q 904 677 895 677 m 1569 707 q 1613 734 1573 707 q 1652 768 1652 761 q 1651 770 1652 770 q 1609 744 1643 770 q 1568 707 1568 713 l 1569 707 m 235 1232 q 243 1246 239 1234 q 245 1254 245 1251 q 243 1257 245 1257 q 239 1255 242 1257 q 233 1248 236 1253 q 230 1240 230 1244 q 233 1232 230 1232 l 235 1232 m 277 1304 q 429 1474 429 1468 q 427 1476 429 1476 q 337 1379 414 1476 l 277 1304 m 472 1513 q 500 1531 476 1513 q 555 1583 547 1567 q 555 1584 555 1584 q 495 1539 545 1584 q 471 1514 471 1518 q 472 1513 471 1513 m 1331 1602 q 1333 1606 1333 1602 q 1316 1623 1333 1611 q 1304 1632 1306 1632 q 1313 1619 1304 1630 q 1331 1602 1326 1602 m 1294 1633 q 1185 1704 1294 1655 q 1128 1724 1137 1724 q 1190 1687 1128 1721 q 1294 1633 1259 1648 m 937 1740 q 951 1743 951 1740 q 943 1748 951 1747 q 932 1746 937 1748 q 927 1742 927 1744 q 937 1740 927 1740 m 996 1740 q 1010 1743 1010 1740 q 1001 1748 1010 1747 q 990 1746 996 1748 q 985 1742 985 1744 q 996 1740 985 1740 z "},"A":{"ha":2791,"x_min":0,"x_max":2654,"o":"m 1921 -361 q 1855 -341 1893 -361 q 1787 -275 1811 -319 q 1771 -238 1775 -256 q 1763 -90 1763 -211 q 1771 70 1763 -6 q 1805 296 1779 146 q 1962 1092 1866 656 q 1986 1226 1986 1207 l 1986 1228 q 1811 1232 1978 1232 q 1538 1227 1621 1232 q 1383 1211 1459 1223 q 1190 1176 1245 1190 q 1126 1145 1135 1162 q 1052 933 1105 1111 q 1021 817 1030 862 q 1006 682 1006 743 q 1017 589 1006 631 q 1029 521 1027 543 q 1049 462 1032 492 q 1061 441 1061 444 l 1061 440 q 1000 526 1048 440 q 970 574 975 574 q 968 568 968 574 l 969 558 q 970 538 970 545 q 968 530 970 530 q 947 594 961 530 q 939 690 939 636 q 940 737 939 713 q 941 782 941 765 q 938 808 941 808 l 937 808 q 927 762 928 792 q 927 725 927 732 q 947 536 927 596 q 962 481 962 488 l 962 480 q 938 531 959 480 q 909 737 909 611 q 917 848 909 794 q 926 918 922 884 q 933 969 931 952 q 939 1006 935 987 q 948 1040 943 1026 q 952 1069 952 1055 q 947 1096 952 1083 l 945 1101 q 939 1113 943 1109 q 926 1117 936 1117 q 832 1097 907 1116 q 722 1068 798 1089 q 513 1007 632 1044 q 505 1006 508 1006 q 500 1008 500 1006 l 501 1013 q 497 1015 501 1015 q 375 979 474 1015 q 176 901 323 961 q 117 878 136 885 q 62 855 71 861 q 14 836 41 842 q 3 833 6 833 q 0 834 0 833 q 212 939 0 846 q 535 1067 414 1027 q 583 1088 583 1082 q 582 1088 583 1088 q 581 1088 582 1088 q 492 1065 567 1088 q 298 998 409 1038 q 179 960 197 960 q 177 960 178 960 q 176 962 176 961 q 183 965 176 965 q 212 983 193 965 q 382 1063 233 1004 q 531 1135 531 1123 l 530 1137 q 849 1258 530 1160 q 946 1288 905 1275 q 996 1303 987 1301 q 1004 1310 1004 1306 q 1003 1312 1004 1312 q 1001 1313 1002 1313 q 844 1282 979 1313 q 688 1251 707 1251 l 686 1251 q 828 1303 686 1259 q 945 1337 888 1322 q 1002 1353 983 1346 q 1028 1370 1020 1360 q 1044 1402 1036 1381 q 1059 1450 1059 1436 l 1059 1455 q 1151 1646 1059 1479 q 1530 2198 1274 1869 q 1866 2597 1704 2421 q 1919 2658 1904 2639 q 2075 2799 1952 2699 q 2169 2873 2128 2843 q 2365 2953 2287 2953 q 2460 2894 2424 2953 q 2490 2774 2489 2847 q 2313 1741 2481 2548 q 2246 1409 2247 1428 q 2343 1353 2247 1398 q 2654 875 2654 1204 q 2610 614 2654 743 q 2475 309 2572 503 q 2207 -138 2338 38 q 1987 -347 2077 -313 q 1921 -361 1946 -361 m 1885 -334 q 1888 -332 1888 -333 q 1868 -318 1888 -328 q 1842 -298 1855 -311 q 1820 -270 1828 -284 q 1799 -241 1804 -241 q 1797 -243 1797 -241 q 1807 -267 1797 -248 q 1844 -311 1819 -290 q 1885 -334 1868 -332 m 1790 -227 q 1791 -191 1790 -227 q 1792 -107 1792 -156 q 1794 -9 1792 -58 q 1799 62 1796 40 q 1801 92 1801 83 q 1801 97 1801 97 q 1795 87 1799 97 q 1784 18 1788 67 q 1780 -66 1780 -31 q 1779 -115 1779 -102 q 1790 -227 1779 -227 m 1986 -59 q 2011 -43 1994 -59 q 2040 -9 2026 -29 q 2246 331 2131 115 q 2412 691 2361 547 q 2436 776 2433 749 q 2440 829 2440 802 q 2391 1050 2440 972 q 2221 1173 2341 1128 q 2203 1178 2207 1178 l 2201 1178 q 2124 828 2193 1165 q 2020 297 2060 517 q 1973 -26 1973 34 q 1986 -59 1973 -59 m 1811 175 q 1825 227 1815 181 q 1828 260 1828 248 q 1827 266 1828 266 q 1819 246 1824 266 q 1809 180 1809 208 q 1810 175 1809 175 l 1811 175 m 1830 283 q 1834 292 1834 283 q 1832 302 1834 297 q 1829 307 1830 307 q 1826 297 1827 307 q 1830 283 1826 283 m 1021 519 q 1023 524 1023 519 q 1016 542 1023 530 q 1007 553 1009 553 q 1006 552 1006 553 q 1012 531 1006 547 q 1021 519 1017 519 m 1957 888 q 1961 897 1961 888 q 1959 908 1961 903 q 1956 913 1957 913 q 1953 903 1954 913 q 1957 888 1953 888 m 1967 941 q 1971 956 1971 941 q 1967 970 1971 970 q 1964 956 1964 970 q 1967 941 1964 941 m 1976 986 q 1981 996 1980 986 q 1979 1005 1981 1000 q 1976 1010 1977 1010 q 1973 1000 1973 1010 q 1976 986 1973 986 m 2004 1116 q 2017 1154 2008 1116 q 2028 1213 2028 1197 q 2027 1217 2028 1216 l 2026 1217 q 2012 1182 2021 1217 q 2003 1126 2003 1147 q 2004 1116 2003 1116 m 1267 1407 q 1276 1409 1272 1407 q 1415 1431 1303 1415 q 1789 1448 1533 1448 q 2041 1450 2041 1449 q 2119 1825 2041 1454 q 2273 2673 2273 2569 q 2273 2685 2273 2681 l 2271 2686 q 2063 2495 2250 2686 q 1914 2337 1981 2412 q 1361 1590 1588 1965 q 1325 1531 1345 1563 q 1291 1478 1305 1499 q 1260 1415 1260 1430 q 1267 1407 1260 1407 m 395 966 q 393 968 393 966 q 399 974 393 970 q 415 981 406 979 q 429 984 423 984 q 435 982 435 984 q 425 975 435 979 q 395 966 403 966 m 921 1025 q 920 1026 920 1025 q 923 1036 920 1029 q 929 1046 926 1044 q 933 1049 932 1049 q 937 1044 937 1049 q 928 1031 937 1039 q 921 1025 923 1025 z "},"B":{"ha":4209,"x_min":0,"x_max":4284,"o":"m 1404 -88 l 1353 -88 q 1244 -81 1280 -88 q 1086 43 1146 -55 q 1078 53 1081 53 q 1067 22 1073 53 q 1058 -16 1063 1 q 1046 -40 1050 -40 q 1044 -33 1044 -40 q 1058 36 1044 -20 q 1067 105 1067 72 q 1065 140 1067 123 q 1063 184 1063 157 q 1065 265 1063 231 q 1069 329 1069 302 q 1061 358 1068 349 q 1054 368 1054 366 l 1061 366 q 1069 363 1065 363 q 1073 369 1073 364 q 1065 379 1073 379 q 1050 469 1057 379 q 1028 614 1044 564 q 953 758 1008 675 q 900 816 914 816 q 898 814 898 816 q 918 776 898 806 q 928 760 928 762 l 928 760 q 891 791 924 760 q 728 894 827 853 q 467 968 630 935 q 286 1010 347 994 q 194 1043 226 1026 q 49 1267 49 1120 l 50 1301 q 44 1336 50 1335 q 39 1286 39 1336 q 47 1181 39 1213 q 70 1133 53 1156 q 181 1034 106 1072 q 433 951 256 997 q 601 900 529 925 q 651 880 651 882 q 650 879 651 879 q 575 895 646 879 q 469 917 528 904 q 139 1021 237 964 q 13 1183 40 1079 q 0 1272 0 1225 q 18 1379 1 1314 q 294 1884 90 1640 q 770 2272 484 2102 q 1396 2543 1057 2441 q 2083 2660 1735 2645 q 2168 2662 2127 2662 q 2546 2618 2380 2662 q 2855 2455 2745 2566 q 2939 2345 2917 2395 q 2962 2220 2962 2296 q 2946 2100 2962 2145 q 2701 1783 2891 1957 q 2207 1425 2511 1609 q 2091 1350 2091 1355 q 2138 1357 2100 1350 q 2245 1379 2182 1365 q 3751 1616 3204 1588 q 3836 1618 3795 1618 q 4284 1389 4284 1618 q 4020 989 4284 1204 q 3260 532 3769 785 q 2323 138 2804 307 q 1517 -79 1842 -31 q 1404 -88 1450 -88 m 1361 115 q 1508 130 1413 115 q 2201 316 1782 176 q 2923 606 2620 457 q 3075 675 2987 638 q 3423 846 3248 749 q 3744 1043 3598 943 q 3980 1230 3890 1144 q 4070 1362 4070 1315 q 4020 1398 4070 1388 q 3847 1408 3969 1408 q 3305 1364 3640 1408 q 2723 1261 2985 1321 q 2635 1243 2664 1246 q 2118 1134 2556 1230 q 1854 1074 1944 1095 q 1683 1034 1777 1055 q 1463 974 1495 990 q 1444 954 1444 964 q 1447 941 1444 947 q 1457 936 1451 936 q 1463 933 1463 935 q 1459 928 1463 931 q 1442 909 1449 921 q 1433 890 1434 897 q 1431 882 1431 884 q 1434 877 1431 877 q 1438 874 1438 877 q 1425 851 1438 867 q 1404 807 1404 824 q 1395 767 1404 791 q 1335 578 1386 744 q 1294 436 1297 458 q 1291 415 1291 421 q 1292 408 1291 410 q 1293 401 1293 406 q 1283 326 1293 379 q 1268 203 1268 248 q 1286 137 1268 158 q 1331 116 1304 116 q 1361 115 1358 115 m 1087 397 q 1095 412 1089 397 q 1101 454 1101 427 q 1095 520 1101 480 q 1019 751 1078 656 q 943 846 989 798 q 857 918 897 894 q 840 927 841 927 q 848 920 840 926 q 945 828 893 887 q 1021 720 996 768 q 1065 589 1048 664 q 1083 446 1082 514 q 1087 397 1084 397 m 1129 538 q 1132 541 1131 538 q 1139 561 1135 549 q 1146 583 1143 572 q 1210 741 1150 594 q 1284 924 1260 866 q 1286 928 1286 926 q 1277 932 1286 932 q 1260 930 1270 932 q 1240 928 1249 928 q 1177 951 1204 928 q 1141 1029 1141 981 q 1160 1069 1141 1044 q 1204 1117 1179 1095 q 1249 1145 1229 1139 q 1285 1161 1260 1149 q 1340 1187 1311 1172 q 1386 1212 1370 1202 q 1411 1238 1402 1223 q 1433 1280 1421 1253 q 1539 1550 1487 1402 q 1610 1790 1590 1699 q 1625 1836 1619 1836 q 1629 1831 1627 1836 q 1632 1826 1630 1826 q 1646 1881 1640 1826 q 1649 1944 1649 1911 q 1655 1976 1649 1976 q 1659 1973 1657 1976 q 1664 1952 1664 1972 q 1628 1683 1664 1905 q 1657 1725 1655 1725 q 1658 1725 1658 1725 q 1636 1626 1658 1704 q 1581 1454 1613 1548 q 1535 1311 1535 1326 q 1536 1310 1535 1310 q 1569 1387 1539 1310 q 1679 1727 1634 1558 q 1702 1794 1697 1794 q 1702 1792 1702 1794 q 1668 1648 1702 1769 q 1596 1411 1639 1547 q 1571 1316 1571 1332 q 1575 1310 1571 1310 q 1716 1384 1586 1310 q 2157 1643 1997 1541 q 2588 1965 2436 1820 q 2750 2207 2740 2109 q 2752 2232 2752 2222 q 2739 2260 2752 2256 q 2727 2271 2727 2264 l 2728 2275 q 2668 2337 2728 2291 q 2363 2440 2574 2409 q 2189 2448 2304 2448 q 2021 2443 2104 2448 q 1874 2431 1925 2439 l 1708 2400 q 920 2106 1318 2325 q 687 1948 815 2046 q 475 1765 559 1849 q 237 1371 319 1596 q 214 1270 214 1308 q 270 1191 214 1217 q 412 1142 298 1175 q 617 1083 481 1122 q 804 1012 724 1051 q 889 962 847 991 q 956 911 930 934 q 981 879 981 888 q 980 877 981 878 q 979 873 979 876 q 980 868 979 871 q 986 862 981 865 q 991 859 990 859 q 993 861 993 859 q 989 868 993 863 l 988 871 q 989 873 988 873 q 1003 863 991 873 q 1023 840 1022 846 q 1023 834 1023 835 q 1021 831 1023 831 q 1007 840 1018 831 q 995 848 997 848 q 1003 836 995 846 q 1024 821 1014 821 l 1026 821 q 1059 779 1036 821 q 1074 751 1074 753 q 1071 753 1073 751 q 1038 795 1042 795 q 1038 793 1038 795 q 1051 763 1038 789 q 1082 722 1073 722 q 1084 723 1083 722 q 1087 725 1085 725 q 1095 712 1091 725 q 1097 702 1097 705 q 1094 696 1097 696 q 1089 698 1092 696 q 1085 700 1087 700 q 1083 697 1083 700 q 1085 688 1083 694 q 1095 656 1088 682 q 1109 598 1101 630 q 1129 538 1122 538 m 1117 635 q 1108 649 1113 635 q 1103 675 1103 662 q 1104 678 1103 678 q 1113 663 1107 677 q 1119 640 1119 645 q 1117 635 1119 635 m 1663 1738 q 1659 1752 1659 1738 q 1662 1763 1660 1763 q 1665 1758 1664 1763 q 1667 1750 1667 1754 q 1663 1738 1667 1738 m 2064 1297 q 2074 1300 2070 1297 q 2079 1306 2079 1303 q 2072 1312 2079 1312 q 2063 1310 2068 1312 q 2053 1305 2058 1308 q 2049 1301 2049 1302 q 2064 1297 2049 1297 m 2141 1317 q 2155 1320 2155 1317 q 2146 1325 2155 1325 q 2136 1323 2141 1325 q 2131 1320 2131 1321 q 2141 1317 2131 1318 m 2003 1329 q 2110 1388 2012 1329 q 2173 1430 2173 1424 q 2172 1430 2173 1430 q 2085 1385 2164 1430 q 2001 1331 2001 1335 q 2003 1329 2001 1329 m 2281 1347 q 2387 1367 2308 1350 l 2464 1382 q 2621 1421 2621 1415 q 2620 1422 2621 1422 q 2443 1391 2597 1422 q 2274 1348 2274 1356 q 2277 1347 2274 1347 l 2281 1347 m 2717 1434 q 2731 1438 2731 1434 q 2722 1442 2731 1442 q 2712 1440 2717 1442 q 2707 1437 2707 1438 q 2717 1434 2707 1435 m 2198 1446 q 2225 1459 2203 1446 q 2260 1484 2260 1478 q 2259 1485 2260 1485 q 2230 1472 2253 1485 q 2196 1447 2196 1451 q 2198 1446 2196 1446 m 2771 1444 q 2780 1448 2780 1444 q 2771 1452 2780 1452 q 2760 1450 2766 1452 q 2755 1447 2755 1448 q 2771 1444 2755 1444 z "},"C":{"ha":3197,"x_min":0,"x_max":3335,"o":"m 513 -460 q 180 -317 309 -460 q 5 166 37 -165 q 0 266 0 214 q 216 1067 0 594 q 637 1782 373 1411 q 1201 2454 901 2154 q 1838 2949 1584 2831 q 2249 3067 2092 3067 q 2437 3029 2351 3067 q 2552 2937 2542 2985 q 2562 2872 2562 2888 q 2495 2663 2562 2793 q 2226 2239 2414 2506 q 1793 1612 1925 1811 q 1598 1289 1662 1412 q 1476 981 1476 1062 l 1476 978 q 1473 941 1476 956 q 1466 926 1470 926 q 1463 924 1463 926 q 1468 914 1463 920 q 1480 896 1480 901 q 1476 892 1480 892 q 1461 901 1472 892 q 1436 958 1442 920 q 1427 990 1430 990 q 1416 974 1423 990 q 1407 962 1409 962 q 1405 970 1405 962 q 1429 1083 1405 999 q 1476 1221 1455 1180 q 1486 1246 1486 1240 q 1485 1248 1486 1248 q 1459 1206 1479 1248 q 1392 980 1404 1093 l 1385 911 l 1383 965 q 1404 1099 1383 1014 q 1455 1252 1426 1183 q 1480 1320 1480 1309 q 1510 1394 1480 1331 q 1531 1456 1531 1440 q 1529 1461 1531 1461 q 1524 1468 1524 1463 q 1529 1483 1524 1474 q 1534 1498 1534 1493 q 1532 1502 1534 1502 q 1530 1503 1530 1502 q 1545 1516 1530 1506 q 1570 1558 1565 1531 q 1629 1685 1576 1584 q 1678 1788 1678 1775 l 1678 1790 q 1879 2106 1678 1817 q 2339 2825 2339 2760 q 2330 2844 2339 2837 q 2297 2851 2321 2850 q 2238 2853 2273 2853 q 2130 2847 2164 2853 q 2051 2822 2097 2840 q 1617 2552 1858 2746 q 1427 2381 1536 2487 q 1236 2189 1318 2276 q 1154 2087 1154 2102 l 1154 2086 q 1156 2081 1156 2083 q 1154 2080 1156 2080 l 1149 2081 q 960 1864 1126 2081 l 918 1809 q 816 1667 870 1748 q 593 1326 666 1447 q 449 1057 528 1218 q 324 783 370 897 q 261 586 291 696 q 219 390 232 475 q 212 275 212 334 q 235 52 212 168 q 263 -43 243 9 q 302 -131 283 -95 q 330 -168 321 -168 l 333 -167 q 348 -184 342 -167 q 421 -235 364 -222 q 526 -248 478 -248 q 604 -242 562 -248 q 724 -210 645 -235 q 899 -146 809 -184 q 1179 -9 1010 -100 q 1455 148 1338 76 q 1605 232 1508 180 q 1719 291 1714 291 q 1962 418 1725 291 q 2276 577 2209 549 q 2614 697 2413 635 q 2719 724 2696 722 q 2753 732 2753 726 l 2752 736 q 2758 741 2752 741 q 2769 730 2769 741 q 2773 724 2769 724 q 2777 725 2775 724 q 2852 739 2789 730 q 2987 753 2915 747 q 3101 760 3060 760 q 3282 734 3175 760 q 3335 714 3335 721 q 3330 712 3335 712 q 3315 714 3325 712 q 3103 735 3225 735 q 2912 718 3014 735 q 2726 677 2794 696 q 2694 665 2694 669 l 2697 665 q 2795 682 2712 665 q 2998 707 2885 702 l 3061 707 q 3078 706 3078 707 q 3074 705 3078 705 q 3042 692 3042 700 q 2971 678 3042 684 q 2795 642 2887 669 q 2741 617 2741 627 q 2749 613 2741 614 q 2750 612 2750 613 q 2644 564 2750 607 q 2292 402 2508 510 q 2176 334 2176 344 l 2176 333 l 2178 334 q 2447 454 2370 425 q 2593 505 2525 484 q 2627 513 2621 513 l 2629 513 q 2446 425 2624 508 q 1626 -9 2139 279 q 1176 -248 1398 -138 q 850 -395 953 -359 q 513 -460 654 -460 m 60 563 q 87 644 63 563 q 136 794 119 753 q 151 836 151 829 q 150 838 151 838 q 118 770 142 838 q 60 570 71 630 l 59 565 q 60 563 59 563 m 172 899 q 191 934 175 899 q 208 980 208 969 q 206 981 208 981 q 187 945 202 981 q 172 900 172 909 l 172 899 m 214 997 q 227 1008 222 997 q 230 1025 230 1015 q 228 1033 230 1033 q 220 1023 225 1033 q 211 1002 211 1008 q 214 997 211 997 m 498 1512 q 513 1531 502 1512 q 520 1550 520 1544 q 519 1551 520 1551 q 503 1531 515 1551 q 496 1514 496 1518 q 498 1512 496 1512 m 538 1576 q 569 1613 543 1576 q 586 1642 586 1637 q 585 1643 586 1643 q 555 1606 581 1643 q 538 1577 538 1583 q 538 1576 538 1576 m 622 1697 q 703 1803 627 1697 q 765 1898 765 1889 q 701 1817 760 1898 q 621 1698 621 1708 q 622 1697 621 1697 m 798 1942 q 821 1961 804 1942 q 834 1980 834 1976 q 833 1980 834 1980 q 811 1961 829 1980 q 798 1942 798 1945 q 798 1942 798 1942 m 2861 751 q 2850 753 2850 751 q 2855 757 2850 755 q 2866 759 2861 759 q 2874 754 2874 758 q 2861 751 2874 751 m 2920 762 q 2904 764 2904 762 q 2924 768 2904 768 q 2939 764 2939 768 q 2920 762 2939 762 m 1493 1404 q 1493 1407 1493 1404 q 1496 1419 1493 1411 q 1511 1434 1501 1434 q 1515 1431 1515 1434 q 1510 1420 1515 1427 q 1499 1409 1504 1413 q 1493 1404 1495 1404 m 1025 1893 q 1024 1894 1024 1893 q 1031 1912 1024 1900 q 1046 1931 1040 1931 q 1047 1929 1047 1931 q 1040 1912 1047 1926 q 1025 1893 1029 1893 z "},"D":{"ha":3185,"x_min":0,"x_max":3436,"o":"m 1146 28 q 981 37 981 28 q 967 46 981 46 l 958 46 q 928 52 943 46 q 915 56 920 56 q 906 50 908 56 q 900 41 903 44 q 892 37 896 37 q 886 42 886 37 q 888 46 886 44 q 889 50 889 48 q 872 61 889 58 q 766 81 854 64 q 564 137 665 101 q 393 214 463 173 q 295 282 295 274 l 300 281 q 327 267 309 277 q 981 81 584 112 q 1049 79 1028 79 q 1065 80 1065 79 q 955 97 1065 87 q 761 127 865 106 q 610 167 658 148 l 576 182 q 684 173 649 178 q 726 165 710 169 q 862 142 782 151 q 1012 134 941 134 q 1078 143 1069 134 q 1196 164 1086 153 q 1752 273 1495 189 q 1822 299 1818 295 l 1824 302 q 1822 304 1824 304 q 1767 290 1812 304 q 1329 216 1512 216 q 1313 218 1313 216 q 1479 253 1313 222 q 2506 712 2029 364 q 2767 944 2626 803 q 2985 1190 2909 1084 q 3225 1826 3225 1535 q 3068 2221 3225 2056 q 2772 2424 2951 2347 q 2323 2539 2592 2500 q 2002 2552 2224 2552 q 1543 2534 1706 2552 q 1230 2488 1396 2516 q 935 2431 1063 2459 q 630 2347 782 2395 q 387 2261 479 2300 q 294 2206 294 2222 l 295 2203 q 394 2194 302 2199 q 631 2185 486 2189 q 1054 2159 899 2180 q 1307 2087 1209 2138 q 1503 1940 1405 2037 q 1593 1857 1589 1857 q 1656 2004 1596 1861 q 1746 2218 1719 2152 q 1769 2251 1761 2251 l 1771 2250 q 1806 2309 1780 2250 q 1837 2367 1832 2367 l 1838 2366 q 1803 2270 1838 2355 q 1754 2120 1754 2157 q 1755 2119 1754 2119 q 1767 2131 1758 2119 q 1777 2148 1773 2140 q 1782 2161 1782 2156 q 1784 2165 1782 2165 q 1787 2164 1786 2165 q 1734 2009 1787 2142 q 1666 1819 1666 1830 q 1668 1815 1666 1815 q 1699 1885 1672 1815 q 1818 2178 1748 2013 q 1836 2212 1832 2212 l 1837 2212 l 1825 2172 q 1790 2082 1812 2136 q 1704 1845 1737 1944 l 1667 1734 l 1695 1678 q 1821 1262 1801 1457 q 1842 971 1842 1067 q 1805 633 1842 793 q 1713 419 1773 507 q 1598 307 1653 332 q 1505 281 1542 281 q 1434 297 1470 281 q 1278 682 1278 369 q 1447 1451 1278 941 l 1501 1610 l 1468 1664 q 1321 1830 1411 1757 q 1138 1932 1231 1903 q 1028 1957 1085 1948 q 874 1971 971 1966 q 605 1981 777 1976 q 352 1990 460 1985 q 224 1999 245 1995 l 156 2014 q 89 2047 126 2022 q 31 2100 52 2072 q 6 2171 16 2123 q 0 2212 0 2199 q 5 2224 0 2224 q 29 2260 9 2224 q 221 2410 70 2332 q 594 2559 372 2489 q 1074 2677 817 2630 q 1535 2746 1341 2726 q 1963 2765 1729 2765 q 2276 2755 2154 2765 q 2530 2717 2399 2745 q 2968 2561 2774 2667 q 3269 2313 3163 2455 q 3345 2209 3330 2229 q 3360 2180 3360 2186 q 3381 2127 3364 2163 q 3436 1808 3436 2001 q 3355 1413 3436 1609 q 3089 970 3274 1214 q 2994 862 3061 932 q 2734 609 2842 701 q 1992 184 2439 369 q 1697 84 1830 117 q 1146 28 1469 28 m 1128 78 q 1142 81 1142 78 q 1128 85 1142 85 q 1114 81 1114 85 q 1128 78 1114 78 m 1519 526 q 1586 634 1548 526 q 1608 709 1599 672 q 1632 960 1632 810 q 1600 1310 1632 1136 q 1589 1331 1595 1331 q 1571 1284 1584 1331 q 1536 1115 1551 1207 q 1531 1072 1531 1082 q 1532 1064 1531 1066 q 1533 1058 1533 1063 q 1517 964 1533 1038 q 1500 859 1505 913 q 1495 716 1495 804 q 1501 543 1495 562 q 1519 526 1508 526 m 1754 2197 q 1769 2219 1760 2197 q 1772 2230 1772 2226 q 1771 2233 1772 2233 q 1763 2224 1769 2233 q 1753 2200 1753 2210 q 1754 2197 1753 2197 m 454 2323 q 471 2327 460 2323 q 494 2338 482 2332 q 517 2353 505 2345 q 444 2324 444 2332 q 450 2323 444 2323 l 454 2323 m 565 2363 q 699 2401 578 2363 q 832 2439 827 2439 q 835 2441 835 2439 q 830 2445 835 2445 q 711 2416 814 2445 q 563 2364 563 2376 q 565 2363 563 2363 m 998 2473 q 1007 2475 1002 2473 q 1016 2480 1012 2477 q 1020 2484 1020 2483 q 1006 2488 1020 2488 q 991 2479 991 2488 q 998 2473 991 2473 m 1063 2489 q 1086 2492 1074 2489 l 1133 2506 l 1104 2507 q 1069 2498 1085 2507 q 1059 2490 1059 2493 q 1063 2489 1059 2489 m 2547 2518 q 2561 2521 2561 2518 q 2553 2526 2561 2526 q 2542 2524 2547 2526 q 2537 2521 2537 2522 q 2547 2518 2537 2519 m 2456 2538 q 2470 2541 2470 2538 q 2456 2546 2470 2546 q 2441 2541 2441 2546 q 2456 2538 2441 2538 m 2404 2549 q 2412 2550 2412 2549 q 2392 2557 2412 2552 q 2329 2564 2363 2564 l 2294 2563 q 2404 2549 2378 2549 m 2294 2569 l 2245 2576 q 2132 2583 2201 2583 l 2031 2582 q 2178 2572 2147 2574 q 2294 2569 2209 2570 m 1801 2578 q 1822 2581 1822 2578 q 1801 2584 1822 2584 q 1780 2581 1780 2584 q 1801 2578 1780 2578 m 1899 2579 q 1938 2582 1938 2579 q 1931 2583 1938 2582 q 1899 2585 1917 2585 q 1867 2583 1882 2585 q 1860 2582 1860 2582 q 1899 2579 1860 2579 m 1707 1757 q 1706 1758 1706 1757 q 1709 1769 1706 1761 q 1715 1779 1712 1776 q 1719 1782 1718 1782 q 1723 1777 1723 1782 q 1716 1764 1723 1770 q 1707 1757 1709 1757 z "},"E":{"ha":2949,"x_min":0,"x_max":2911,"o":"m 387 -380 q 277 -372 327 -380 q 115 -300 186 -355 q 17 -171 44 -245 q 0 -56 0 -118 q 28 122 0 25 q 215 497 79 294 q 343 672 281 596 q 515 854 406 748 q 831 1147 625 960 q 1046 1350 988 1290 l 1099 1404 q 922 1396 965 1396 q 758 1404 828 1396 q 364 1502 522 1427 q 142 1698 205 1578 q 119 1755 124 1730 q 114 1827 114 1781 l 114 1850 q 119 1923 114 1898 q 145 1993 125 1952 q 435 2321 221 2156 q 1022 2669 648 2485 q 1669 2941 1361 2836 q 2144 3070 1976 3046 q 2391 3093 2311 3093 q 2580 3065 2504 3093 q 2707 2970 2671 3029 q 2743 2852 2743 2910 q 2737 2802 2743 2828 q 2557 2489 2703 2652 q 2179 2180 2410 2326 q 1820 1996 1996 2066 q 1488 1915 1622 1915 q 1470 1918 1470 1915 q 1476 1921 1470 1919 q 1492 1928 1492 1926 q 1472 1931 1492 1931 l 1466 1931 q 1391 1951 1430 1933 q 1331 1995 1352 1970 q 1310 2030 1310 2022 q 1312 2033 1310 2033 q 1340 2007 1318 2033 q 1412 1959 1369 1973 q 1489 1944 1454 1944 q 1518 1946 1503 1944 q 1577 1966 1577 1957 q 1554 1971 1577 1971 l 1520 1973 q 1647 2007 1590 1988 q 1824 2075 1756 2043 q 1853 2094 1853 2089 l 1853 2095 l 1853 2095 q 1773 2066 1843 2095 q 1525 1997 1645 2012 l 1481 1991 q 1834 2116 1706 2043 q 2056 2274 2037 2234 q 2067 2289 2060 2289 q 2073 2287 2070 2289 q 2079 2285 2077 2285 q 2080 2286 2080 2285 q 2078 2291 2080 2287 q 2076 2297 2076 2294 q 2088 2310 2076 2304 q 2140 2347 2106 2316 q 2318 2522 2318 2508 l 2318 2523 q 2331 2543 2318 2526 q 2365 2584 2343 2560 q 2466 2710 2420 2644 q 2530 2845 2530 2803 q 2517 2865 2530 2856 q 2403 2886 2486 2886 q 2082 2844 2271 2886 q 1905 2798 1988 2823 q 1796 2762 1821 2774 q 1762 2752 1780 2752 q 1734 2743 1744 2752 q 1593 2690 1724 2734 q 1123 2494 1362 2612 q 693 2249 885 2376 q 410 2018 501 2123 q 336 1908 336 1931 q 338 1902 336 1905 q 340 1898 340 1900 q 334 1893 340 1893 q 323 1876 328 1893 q 316 1830 316 1853 q 319 1807 316 1817 q 360 1753 327 1783 q 433 1702 393 1723 q 916 1610 621 1610 q 1115 1625 1018 1610 q 1301 1646 1234 1646 q 1378 1632 1357 1646 q 1436 1546 1436 1605 q 1433 1519 1436 1533 q 1324 1335 1426 1453 q 980 997 1222 1217 q 648 687 785 818 q 479 503 557 597 q 402 385 402 408 q 396 372 402 372 l 393 373 q 363 337 387 373 q 310 248 339 301 q 260 148 281 195 q 214 -41 214 36 q 265 -147 214 -127 q 385 -161 303 -161 l 417 -161 q 602 -139 504 -161 q 935 -39 705 -115 q 1602 200 1314 83 q 2027 345 1744 257 q 2302 419 2267 419 q 2306 416 2306 419 q 2309 411 2306 414 q 2317 408 2312 408 q 2323 413 2323 408 q 2321 417 2323 415 q 2320 421 2320 420 q 2323 424 2320 424 q 2328 423 2325 424 q 2339 422 2332 422 q 2437 432 2369 422 q 2575 447 2528 446 q 2627 447 2622 447 q 2757 434 2712 447 q 2839 390 2798 421 q 2898 328 2881 359 q 2911 298 2911 302 q 2910 296 2911 296 q 2882 330 2906 296 q 2757 411 2833 395 q 2627 427 2682 427 q 2376 390 2530 427 q 2254 353 2254 360 q 2259 351 2254 351 q 2325 364 2277 351 q 2467 393 2392 381 q 2620 407 2559 407 q 2662 397 2662 407 q 2646 391 2662 391 q 2450 357 2601 390 q 2279 299 2279 319 q 2280 295 2279 297 q 2281 290 2281 293 q 2271 281 2281 281 q 2257 279 2266 281 q 2239 272 2247 276 q 2188 250 2231 267 q 2086 212 2144 233 q 1974 170 2028 191 q 1896 138 1921 149 q 1829 110 1872 127 q 1742 75 1785 92 q 1672 46 1699 58 q 1645 31 1645 33 l 1647 31 q 1746 62 1660 31 q 2010 154 1912 123 q 2062 169 2057 169 l 2064 168 q 2102 180 2071 168 q 2144 191 2137 191 q 2146 191 2146 191 q 1453 -85 2146 180 q 672 -344 899 -296 q 387 -380 495 -380 m 736 1023 q 764 1048 739 1023 q 782 1072 782 1069 q 781 1072 782 1072 q 753 1048 777 1072 q 735 1024 735 1028 q 736 1023 735 1023 m 800 1082 q 897 1168 806 1082 q 1033 1292 1002 1265 q 1076 1341 1075 1331 l 1076 1341 q 996 1272 1067 1341 q 854 1138 890 1171 q 800 1082 800 1087 m 1118 1377 q 1145 1407 1128 1377 q 1153 1423 1153 1419 q 1152 1423 1153 1423 q 1136 1410 1149 1423 q 1115 1383 1115 1392 q 1118 1377 1115 1377 m 796 1426 q 800 1428 800 1426 q 760 1442 800 1442 l 729 1441 q 796 1426 790 1426 m 871 1426 q 892 1429 892 1426 q 871 1432 892 1432 q 850 1429 850 1432 q 871 1426 850 1426 m 617 1455 q 631 1457 631 1455 q 617 1461 631 1461 q 603 1457 603 1461 q 617 1455 603 1455 m 573 1464 q 575 1465 575 1464 q 509 1492 575 1470 q 397 1530 431 1518 q 376 1537 380 1537 q 375 1537 375 1537 q 388 1526 375 1535 q 439 1502 401 1517 q 517 1476 477 1488 q 573 1464 557 1465 m 302 1570 q 304 1574 304 1570 q 288 1591 304 1577 q 275 1600 277 1600 l 275 1599 q 283 1588 275 1598 q 302 1570 298 1570 m 2403 439 q 2388 441 2388 439 q 2393 444 2388 442 q 2403 446 2398 446 q 2412 441 2412 446 q 2403 439 2412 439 m 2456 448 q 2446 451 2446 449 q 2451 454 2446 452 q 2459 456 2455 456 q 2471 452 2471 456 q 2456 448 2471 448 m 1823 2146 q 1818 2150 1818 2146 q 1822 2155 1818 2152 q 1832 2159 1826 2157 q 1841 2161 1838 2161 q 1843 2159 1843 2161 q 1834 2149 1843 2153 q 1823 2146 1828 2146 m 1996 2235 l 1992 2235 q 1984 2237 1984 2235 q 1994 2244 1984 2239 q 2016 2254 2009 2254 q 2020 2250 2020 2254 q 2018 2244 2020 2248 q 2009 2237 2016 2240 q 1996 2235 2003 2235 z "},"F":{"ha":2940,"x_min":0,"x_max":4967,"o":"m 2005 -665 q 1880 -615 1928 -665 q 1799 -292 1799 -534 q 1808 -117 1799 -214 q 1873 308 1826 45 q 1964 750 1920 571 q 1991 888 1991 866 q 1988 903 1991 898 q 1957 922 1984 911 q 1030 1058 1630 1058 q 626 1044 842 1058 q 435 1038 521 1038 q 201 1057 291 1038 q 17 1174 56 1087 q 0 1244 0 1207 q 131 1466 0 1344 q 755 1863 309 1632 q 935 1962 922 1949 q 944 1968 937 1965 q 959 1971 951 1971 q 1024 1994 978 1971 q 1251 2098 1080 2022 l 1471 2195 q 1588 2243 1514 2215 l 1698 2289 q 1739 2303 1730 2303 q 1791 2321 1748 2303 q 1876 2355 1826 2338 q 2013 2405 1917 2368 q 2174 2464 2127 2448 q 2352 2527 2270 2496 q 2448 2566 2434 2557 q 2469 2613 2459 2578 q 2514 2759 2508 2743 q 2527 2785 2523 2785 q 2529 2783 2528 2785 q 2531 2782 2530 2782 q 2560 2847 2539 2782 q 2586 2911 2580 2911 l 2587 2911 q 2582 2880 2587 2901 q 2566 2818 2576 2853 q 2533 2676 2533 2709 q 2536 2667 2533 2667 q 2548 2681 2542 2667 q 2555 2704 2552 2691 q 2566 2730 2561 2730 l 2567 2726 q 2555 2669 2567 2711 q 2542 2609 2542 2627 q 2544 2602 2542 2602 q 2575 2681 2550 2602 q 2603 2764 2600 2762 l 2606 2766 q 2607 2764 2607 2766 q 2589 2688 2607 2753 q 2572 2609 2572 2629 q 2693 2639 2589 2609 q 2941 2707 2818 2676 l 3263 2791 q 3512 2856 3421 2833 q 3680 2894 3603 2879 q 4118 2966 3845 2924 q 4279 2983 4233 2983 q 4306 2981 4296 2983 q 4325 2979 4318 2979 q 4333 2983 4333 2979 q 4332 2986 4333 2984 q 4330 2991 4330 2989 q 4331 2993 4330 2992 q 4336 2996 4331 2996 q 4349 2984 4344 2996 q 4359 2976 4351 2976 q 4372 2981 4364 2976 q 4664 2991 4398 2991 q 4967 2977 4967 2991 q 4924 2972 4967 2972 q 4839 2974 4894 2972 q 4771 2976 4806 2976 q 4318 2941 4576 2976 q 4210 2922 4210 2926 q 4219 2920 4210 2920 q 4361 2932 4247 2920 q 4621 2947 4504 2947 q 4681 2941 4681 2947 q 4675 2937 4681 2940 q 4647 2932 4658 2932 q 4638 2934 4641 2932 q 4634 2935 4636 2935 q 4630 2931 4630 2935 q 4600 2922 4630 2926 q 4525 2914 4569 2917 q 4342 2894 4422 2908 q 4251 2880 4264 2880 q 4243 2873 4243 2879 q 4244 2869 4243 2872 q 4246 2863 4246 2867 q 4208 2848 4243 2856 q 4064 2815 4179 2839 q 3518 2686 3724 2744 q 3468 2670 3468 2672 q 3470 2669 3468 2669 q 3672 2708 3491 2669 q 3912 2754 3812 2738 q 4038 2770 4011 2770 q 4049 2769 4047 2770 q 3914 2734 4049 2766 q 2694 2408 3221 2572 l 2500 2348 q 2448 2059 2451 2158 q 2439 2003 2448 2016 q 2437 1994 2437 1998 q 2442 1990 2437 1990 q 2447 1985 2447 1990 q 2439 1963 2447 1978 q 2430 1934 2434 1952 q 2424 1900 2425 1916 q 2415 1836 2423 1884 q 2395 1732 2407 1788 q 2378 1641 2384 1676 q 2372 1601 2372 1606 l 2372 1600 q 2465 1626 2375 1600 q 3017 1739 2869 1739 q 3040 1734 3038 1739 q 3049 1729 3042 1729 q 3060 1728 3057 1728 q 3080 1729 3069 1728 q 3108 1732 3097 1732 q 3124 1727 3123 1732 l 3124 1726 q 3082 1704 3124 1717 q 3030 1681 3030 1686 q 3037 1680 3030 1680 q 3067 1683 3046 1680 q 3092 1686 3084 1686 q 3102 1681 3102 1686 q 3091 1662 3102 1671 q 3075 1653 3084 1655 q 3047 1625 3057 1647 q 2995 1584 3038 1603 q 2950 1560 2952 1566 q 2970 1558 2950 1558 l 2991 1559 q 3014 1560 3006 1560 q 3026 1557 3026 1560 q 3021 1548 3026 1554 q 2774 1482 3009 1527 q 2344 1369 2634 1456 q 2283 1183 2330 1369 l 2237 1003 l 2264 982 q 2360 889 2308 948 q 2443 779 2412 831 q 2543 395 2543 607 q 2446 -64 2543 184 q 2256 -430 2370 -252 q 2070 -652 2142 -608 q 2005 -665 2043 -665 m 2026 -387 q 2058 -355 2036 -387 q 2111 -273 2077 -329 q 2335 391 2335 92 q 2225 728 2334 597 l 2190 769 l 2180 743 q 2087 325 2159 686 q 2026 -71 2043 92 q 2009 -304 2009 -235 q 2026 -387 2009 -387 m 1969 1092 q 1973 1102 1973 1092 q 1970 1108 1973 1105 q 1963 1112 1967 1112 q 1957 1107 1957 1112 q 1960 1101 1957 1105 q 1965 1095 1962 1097 q 1969 1092 1967 1092 m 2043 1112 q 2066 1177 2050 1112 q 2088 1267 2088 1263 q 2078 1278 2088 1278 q 1950 1220 2061 1278 q 1878 1173 1878 1182 q 1900 1164 1878 1169 q 1984 1135 1928 1158 q 2043 1112 2037 1112 m 1842 1141 q 1855 1144 1855 1141 q 1847 1151 1855 1146 q 1825 1160 1832 1160 q 1817 1151 1817 1160 q 1824 1144 1817 1147 q 1842 1141 1830 1141 m 1671 1182 q 1677 1183 1677 1182 q 1642 1196 1677 1186 q 1578 1206 1597 1206 q 1571 1204 1571 1206 q 1603 1193 1571 1201 q 1671 1182 1644 1182 m 1480 1210 q 1493 1213 1493 1210 q 1485 1218 1493 1217 q 1474 1216 1479 1218 q 1470 1213 1470 1214 q 1480 1210 1470 1211 m 304 1219 q 333 1223 333 1219 q 304 1231 333 1226 l 289 1232 q 275 1227 275 1232 q 304 1219 275 1219 m 436 1221 q 455 1223 455 1221 q 439 1227 455 1227 q 424 1225 431 1227 q 419 1223 419 1224 q 436 1221 419 1221 m 490 1221 q 504 1223 504 1221 q 490 1227 504 1227 q 475 1223 475 1227 q 490 1221 475 1221 m 563 1221 q 588 1223 588 1221 q 566 1227 588 1227 q 546 1225 555 1227 q 541 1223 541 1224 q 563 1221 541 1222 m 1392 1219 q 1406 1223 1406 1219 q 1397 1227 1406 1227 q 1387 1225 1392 1227 q 1381 1222 1381 1223 q 1392 1219 1381 1220 m 1654 1227 q 1672 1248 1668 1227 q 1689 1293 1678 1274 q 1797 1375 1708 1326 q 2024 1478 1886 1424 q 2095 1506 2063 1493 q 2137 1521 2126 1518 q 2158 1549 2147 1525 q 2184 1630 2168 1573 l 2227 1785 q 2370 2300 2370 2292 q 2285 2274 2362 2300 q 2107 2211 2208 2247 q 1929 2146 2006 2175 q 438 1437 966 1776 q 336 1363 384 1401 q 263 1299 289 1325 q 238 1264 238 1273 l 239 1261 q 407 1253 252 1253 q 827 1266 607 1253 q 1083 1275 968 1275 q 1346 1261 1191 1275 q 1632 1230 1577 1242 q 1654 1227 1646 1227 m 252 1230 q 262 1232 262 1230 q 243 1240 262 1234 q 217 1267 217 1249 q 238 1306 217 1282 q 250 1320 250 1319 q 229 1303 248 1320 q 197 1267 197 1274 q 205 1250 197 1259 q 252 1230 226 1230 m 1295 1231 q 1320 1234 1320 1232 q 1299 1237 1320 1237 q 1273 1234 1273 1237 q 1295 1231 1273 1232 m 267 1336 q 286 1353 272 1336 q 294 1365 294 1364 l 294 1366 q 270 1346 290 1366 q 265 1340 265 1341 q 267 1336 265 1336 m 2434 1420 q 2449 1422 2439 1420 q 2467 1428 2467 1426 q 2451 1432 2467 1432 q 2431 1426 2437 1432 q 2429 1422 2429 1423 q 2434 1420 2429 1420 m 4156 2910 q 4176 2913 4176 2910 q 4160 2917 4176 2917 q 4144 2915 4152 2917 q 4140 2912 4140 2913 q 4156 2910 4140 2911 m 2462 2078 q 2457 2085 2457 2078 q 2459 2094 2457 2088 q 2464 2103 2461 2099 q 2468 2108 2466 2108 q 2472 2093 2472 2108 q 2462 2078 2472 2078 z "},"G":{"ha":2599,"x_min":0,"x_max":2842,"o":"m 1689 -479 q 1620 -467 1669 -478 q 1466 -376 1487 -431 q 1444 -296 1444 -321 q 1503 -172 1444 -235 q 1813 -16 1590 -90 q 1892 13 1860 -1 q 1930 31 1925 26 q 2013 288 1950 65 q 2053 443 2039 378 q 2142 1226 2142 850 q 2140 1374 2142 1334 q 2130 1414 2137 1414 q 2064 1382 2116 1414 q 1891 1263 2012 1350 q 1552 1017 1769 1177 q 1004 643 1212 769 q 637 466 796 517 q 482 431 545 435 q 399 427 420 427 q 276 443 327 427 q 66 606 132 493 q 0 844 0 719 q 3 907 0 875 q 170 1334 28 1108 q 584 1830 312 1559 q 1234 2377 886 2136 q 1684 2648 1451 2529 q 2103 2820 1917 2766 q 2287 2860 2184 2842 q 2445 2879 2391 2877 q 2640 2851 2556 2877 q 2757 2781 2725 2825 q 2784 2717 2783 2745 q 2785 2685 2785 2690 q 2612 2412 2785 2571 q 2211 2098 2495 2306 q 1876 1841 1952 1906 q 1794 1780 1807 1780 l 1792 1780 q 1776 1772 1788 1780 q 1709 1712 1765 1765 q 1771 1788 1754 1770 q 1801 1820 1787 1807 q 1843 1870 1832 1849 q 1847 1881 1847 1878 q 1845 1883 1847 1883 q 1803 1851 1839 1883 q 1779 1832 1781 1832 l 1778 1832 q 1810 1868 1778 1834 q 1950 1992 1862 1921 q 2045 2075 2045 2070 q 2043 2075 2045 2075 q 1841 1919 2026 2075 q 1759 1852 1763 1852 q 1872 1960 1759 1858 q 1957 2035 1917 2001 q 2088 2150 2037 2101 q 2179 2232 2146 2203 q 2216 2267 2201 2251 q 2230 2290 2230 2284 q 2243 2317 2230 2304 q 2277 2336 2256 2330 q 2292 2344 2286 2339 q 2298 2353 2298 2349 q 2396 2456 2298 2363 q 2465 2525 2437 2496 q 2494 2560 2493 2555 q 2523 2605 2496 2573 q 2545 2641 2545 2629 q 2539 2653 2545 2649 q 2437 2664 2523 2664 q 2277 2650 2344 2664 q 2069 2587 2189 2631 q 1707 2426 1878 2519 q 1312 2177 1613 2374 q 946 1893 1217 2116 q 748 1705 876 1833 q 549 1494 621 1576 q 270 1083 330 1233 q 210 852 210 933 q 243 725 210 779 q 311 659 272 677 q 418 641 349 641 q 801 770 566 641 q 1473 1222 1039 901 q 1843 1487 1710 1396 q 2044 1611 1975 1578 q 2163 1647 2113 1645 l 2183 1647 q 2279 1615 2243 1647 q 2339 1489 2321 1579 q 2355 1245 2355 1399 q 2351 1086 2355 1173 q 2304 618 2340 815 q 2279 477 2295 570 q 2244 315 2268 404 l 2239 296 q 2197 128 2203 158 q 2192 94 2192 104 q 2197 87 2192 87 q 2205 90 2200 87 q 2215 92 2207 92 q 2232 84 2227 92 q 2241 77 2237 77 q 2247 81 2244 77 q 2264 89 2251 85 q 2294 92 2277 92 q 2351 96 2311 92 q 2435 105 2391 100 q 2522 112 2479 111 q 2593 114 2566 114 q 2713 105 2675 114 q 2762 84 2740 99 q 2840 -2 2830 43 q 2842 -11 2842 -9 q 2842 -13 2842 -13 q 2825 11 2838 -13 q 2758 69 2802 47 q 2679 90 2722 87 q 2591 90 2654 90 q 2406 78 2469 89 q 2201 33 2281 54 q 2165 22 2165 24 q 2169 21 2165 21 q 2271 37 2184 21 q 2475 62 2373 58 q 2542 65 2521 65 q 2560 62 2560 65 q 2543 54 2559 60 q 2493 40 2528 47 q 2421 28 2458 33 q 2348 17 2383 23 q 2299 7 2314 12 q 2262 -2 2283 3 q 2223 -12 2241 -7 q 2186 -32 2186 -20 l 2188 -38 q 2163 -54 2188 -49 q 2134 -69 2144 -57 q 2109 -113 2123 -81 q 1997 -296 2065 -210 q 1859 -427 1929 -382 q 1772 -463 1826 -446 q 1689 -479 1719 -479 m 1676 -258 q 1728 -239 1685 -258 q 1807 -192 1807 -205 q 1805 -190 1807 -190 q 1738 -218 1794 -190 q 1674 -257 1674 -251 q 1676 -258 1674 -258 m 434 448 q 444 457 444 448 q 439 464 444 461 q 428 467 434 467 q 418 461 418 467 q 420 456 418 459 q 426 450 422 453 q 434 448 430 448 m 370 459 q 389 462 389 459 q 374 466 389 466 q 358 464 366 466 q 353 461 353 463 q 370 459 353 460 m 248 487 l 248 488 q 234 499 248 490 q 144 577 189 528 q 76 677 100 627 q 44 732 50 732 q 43 730 43 732 q 67 665 45 709 q 118 586 90 622 q 162 543 135 566 q 214 504 189 520 q 248 487 238 487 m 1107 740 q 1183 783 1114 740 q 1240 825 1240 819 q 1177 791 1234 825 q 1106 741 1106 747 q 1107 740 1106 740 m 38 778 q 41 799 41 778 q 38 820 41 820 q 35 799 35 820 q 38 778 35 778 m 38 838 q 43 853 43 838 q 37 863 43 863 q 28 857 31 863 q 27 852 27 854 q 28 847 27 850 q 38 838 35 838 m 1304 869 q 1376 914 1312 869 q 1625 1098 1625 1091 q 1624 1100 1625 1099 q 1619 1098 1622 1100 q 1512 1025 1601 1088 l 1451 981 q 1303 870 1303 876 q 1304 869 1303 869 m 1647 1112 q 1665 1128 1651 1112 q 1674 1141 1674 1139 l 1673 1141 q 1649 1122 1668 1141 q 1645 1115 1645 1117 q 1647 1112 1645 1112 m 1792 1785 q 1820 1809 1796 1785 q 1839 1833 1839 1830 q 1838 1834 1839 1834 q 1810 1809 1833 1834 q 1792 1786 1792 1790 q 1792 1785 1792 1785 m 2009 2118 q 2006 2123 2006 2118 q 2014 2136 2006 2128 q 2060 2169 2024 2144 q 2014 2121 2019 2125 q 2009 2118 2009 2118 m 2171 2244 q 2169 2247 2169 2244 q 2179 2264 2169 2253 q 2199 2283 2195 2283 q 2199 2283 2199 2283 q 2191 2264 2199 2280 q 2171 2244 2180 2244 z "},"H":{"ha":2083,"x_min":0,"x_max":2393,"o":"m 1663 -391 q 1659 -387 1660 -391 q 1634 -153 1659 -383 q 1629 -286 1632 -273 q 1621 -299 1626 -299 q 1605 -279 1613 -299 q 1595 -238 1599 -262 q 1575 -185 1586 -185 l 1566 -186 q 1563 -185 1563 -186 q 1558 -159 1563 -184 q 1548 -99 1554 -134 q 1538 -29 1542 -64 q 1533 22 1533 5 q 1529 52 1533 52 q 1518 18 1522 52 q 1516 -33 1516 -5 q 1511 -106 1516 -100 l 1510 -106 q 1494 -54 1504 -106 q 1487 90 1487 -7 q 1497 402 1487 209 q 1557 1084 1517 753 q 1575 1254 1575 1231 q 1574 1258 1575 1258 q 1395 1159 1560 1258 q 1202 1038 1229 1060 q 1196 787 1199 1025 q 1175 354 1193 485 q 1111 186 1156 224 q 1008 141 1062 141 q 945 155 977 141 q 791 326 857 194 q 732 593 732 455 q 742 709 732 650 q 920 1067 777 909 l 987 1139 l 991 1292 l 869 1299 q 712 1312 783 1302 q 503 1347 640 1321 q 385 1371 419 1362 q 365 1380 365 1375 q 366 1383 365 1381 q 337 1397 366 1385 q 262 1424 309 1409 q 116 1479 164 1455 q 30 1541 68 1503 q 0 1570 0 1568 q 20 1556 2 1570 q 150 1489 70 1522 q 311 1438 229 1457 q 429 1416 410 1416 q 433 1417 433 1416 q 350 1444 433 1421 q 203 1491 245 1472 l 161 1509 q 201 1507 181 1508 q 266 1498 220 1506 q 356 1482 311 1491 q 419 1467 401 1473 l 423 1466 q 428 1470 428 1466 q 427 1476 428 1473 q 425 1481 425 1479 q 440 1489 425 1489 l 458 1487 l 606 1478 l 796 1468 q 836 1466 821 1466 q 861 1470 861 1466 q 767 1487 861 1478 q 629 1503 688 1493 q 571 1520 571 1514 q 608 1522 574 1522 q 778 1516 659 1522 q 978 1508 924 1508 q 991 1509 989 1508 q 1002 1544 1001 1514 q 1025 1832 1007 1668 q 1065 2110 1043 1995 q 1135 2342 1090 2224 q 1168 2408 1159 2408 q 1171 2405 1171 2408 q 1168 2391 1171 2400 l 1167 2386 q 1168 2385 1167 2385 q 1186 2412 1171 2385 q 1207 2446 1197 2431 q 1221 2464 1217 2460 q 1228 2467 1226 2467 q 1230 2466 1230 2467 q 1202 2410 1230 2460 q 1173 2332 1173 2355 q 1175 2313 1173 2313 q 1188 2327 1178 2313 q 1200 2341 1198 2341 q 1201 2340 1201 2341 q 1196 2323 1201 2336 q 1154 2153 1154 2179 q 1155 2148 1154 2148 q 1168 2186 1158 2148 q 1221 2336 1187 2256 q 1238 2367 1234 2367 l 1238 2367 q 1211 2276 1238 2353 q 1185 2163 1196 2228 q 1171 2014 1171 2077 q 1177 1965 1171 1980 q 1188 1879 1185 1943 q 1202 1751 1193 1805 q 1211 1598 1211 1691 l 1211 1503 q 1335 1499 1301 1499 q 1481 1501 1417 1499 q 1611 1504 1546 1503 l 1630 1601 q 1736 2112 1681 1867 q 1818 2450 1787 2334 q 1919 2767 1846 2550 q 1957 2874 1947 2850 q 1978 2928 1972 2905 q 2058 3121 1996 2988 q 2125 3246 2116 3246 q 2127 3246 2126 3246 q 2129 3245 2127 3245 q 2145 3257 2136 3245 q 2157 3269 2155 3269 q 2158 3268 2158 3269 q 2155 3257 2158 3265 q 2141 3201 2141 3217 q 2146 3191 2141 3191 q 2162 3204 2157 3191 l 2163 3206 q 2164 3204 2164 3206 q 2161 3187 2164 3200 q 2153 3158 2159 3174 q 2142 3130 2148 3142 q 2134 3109 2136 3118 q 2131 3096 2131 3100 q 2132 3091 2131 3091 q 2163 3147 2138 3091 q 2196 3208 2190 3208 q 2197 3207 2197 3208 q 2187 3176 2197 3202 q 2161 3080 2167 3127 q 2155 2970 2155 3033 l 2155 2908 q 2153 2846 2155 2871 q 2135 2757 2150 2807 q 2087 2608 2121 2707 q 2021 2394 2035 2455 q 1996 2300 2008 2332 q 1950 2124 1982 2258 q 1851 1643 1872 1788 l 1845 1593 l 1965 1626 q 2173 1673 2119 1668 q 2245 1678 2226 1678 q 2332 1659 2302 1678 q 2375 1614 2357 1643 q 2393 1563 2393 1586 q 2365 1492 2393 1544 q 2328 1438 2337 1440 q 2281 1417 2316 1436 q 2096 1355 2214 1384 q 1859 1312 1978 1325 q 1817 1306 1830 1309 q 1800 1296 1805 1303 q 1777 1156 1792 1284 q 1744 843 1751 951 l 1737 751 q 1712 374 1721 564 q 1694 -31 1702 185 q 1677 -199 1689 -192 q 1671 -205 1671 -203 q 1680 -207 1671 -207 l 1682 -207 q 1689 -209 1689 -207 q 1682 -215 1689 -211 q 1671 -277 1671 -220 l 1672 -324 q 1667 -389 1672 -382 q 1663 -391 1665 -391 m 970 433 l 977 457 q 985 668 985 487 q 978 785 985 785 q 952 710 969 778 q 940 595 940 657 q 958 462 940 509 l 970 433 m 971 848 q 982 858 976 848 q 983 862 983 861 q 977 867 983 867 q 970 864 973 867 q 967 858 967 861 q 971 848 967 848 m 1205 1073 q 1221 1087 1210 1073 q 1228 1097 1228 1095 q 1227 1099 1228 1099 q 1217 1096 1224 1099 q 1206 1089 1211 1093 q 1202 1081 1202 1084 q 1205 1073 1202 1073 m 1588 1143 q 1598 1177 1592 1143 q 1600 1208 1600 1194 q 1598 1237 1600 1237 q 1589 1180 1596 1237 q 1587 1150 1587 1159 q 1588 1143 1587 1143 m 1525 1261 q 1544 1268 1529 1261 q 1562 1278 1554 1274 q 1572 1284 1570 1282 q 1575 1288 1575 1286 q 1573 1289 1575 1289 q 1565 1286 1571 1289 q 1551 1281 1559 1284 q 1537 1272 1544 1277 q 1525 1261 1525 1263 m 1662 1590 q 1678 1636 1668 1590 q 1683 1670 1683 1658 q 1680 1678 1683 1678 q 1672 1665 1676 1678 q 1664 1634 1667 1652 q 1660 1602 1660 1616 q 1662 1590 1660 1590 m 317 1385 q 307 1388 307 1386 q 312 1392 307 1390 q 322 1394 317 1394 q 331 1389 331 1393 q 317 1385 331 1385 m 283 1396 q 269 1398 277 1396 q 254 1405 260 1400 q 247 1412 247 1410 q 250 1413 247 1413 q 279 1404 257 1413 q 290 1398 290 1400 q 283 1396 290 1396 m 545 1522 q 531 1525 531 1522 q 535 1528 531 1527 q 544 1530 540 1530 q 554 1527 551 1530 l 555 1526 q 545 1522 555 1522 z "},"I":{"ha":634,"x_min":0,"x_max":1101,"o":"m 217 -334 q 182 -317 197 -334 q 142 -252 164 -295 q 115 -214 123 -214 q 111 -217 112 -214 q 107 -219 109 -219 q 94 -201 102 -219 q 56 -42 71 -148 q 47 41 48 5 q 42 83 47 83 q 37 -3 37 83 l 37 -58 q 28 -133 37 -133 q 7 -40 20 -133 q 0 84 0 14 q 87 755 0 321 q 748 2709 298 1815 q 827 2883 827 2868 q 827 2884 827 2884 q 825 2884 827 2884 q 705 2818 808 2884 q 420 2622 593 2746 q 334 2563 369 2586 q 294 2541 299 2541 q 290 2542 293 2542 q 271 2536 282 2542 q 256 2530 260 2530 q 254 2532 254 2530 q 284 2566 254 2538 q 309 2600 309 2589 q 304 2605 309 2605 q 285 2596 298 2605 l 283 2595 q 331 2645 283 2599 q 379 2694 379 2690 l 378 2695 q 302 2640 372 2695 q 264 2614 268 2614 l 264 2614 q 343 2696 264 2616 q 415 2773 388 2740 q 443 2811 443 2805 l 443 2812 q 441 2816 441 2814 q 452 2838 441 2826 q 549 2948 549 2939 l 549 2949 q 588 2987 549 2957 q 680 3048 627 3016 q 898 3146 837 3139 q 974 3153 960 3153 q 1087 3094 1055 3153 q 1101 3021 1101 3064 q 1094 2954 1101 2991 q 1032 2800 1078 2866 q 924 2600 998 2751 q 779 2290 850 2450 q 683 2053 708 2130 l 618 1873 q 429 1280 522 1607 q 315 805 336 954 q 306 759 310 766 q 296 715 301 753 q 282 648 289 668 q 258 486 273 609 q 227 279 237 330 q 214 54 214 220 q 220 -187 214 -113 q 236 -267 224 -246 q 273 -293 249 -288 q 298 -303 298 -299 q 288 -310 298 -306 q 273 -312 280 -312 q 192 -237 232 -312 q 166 -198 172 -198 q 165 -201 165 -198 q 181 -255 165 -220 q 216 -311 197 -291 q 231 -330 231 -328 q 217 -334 231 -334 m 272 1409 q 297 1478 291 1458 q 311 1546 302 1498 q 287 1477 292 1497 q 272 1409 281 1457 m 323 1574 q 330 1584 326 1574 q 337 1604 334 1594 q 339 1619 339 1613 q 338 1625 339 1625 q 325 1596 333 1625 q 322 1580 322 1586 q 323 1574 322 1574 m 422 1864 q 429 1870 424 1864 q 436 1879 435 1876 q 437 1884 437 1883 q 434 1889 437 1889 q 430 1886 433 1889 q 424 1876 427 1883 q 421 1866 421 1868 q 422 1864 421 1864 m 466 1971 q 490 2018 471 1971 q 506 2075 506 2066 q 505 2077 506 2077 q 479 2029 498 2077 q 464 1975 464 1990 q 466 1971 464 1971 m 247 -255 q 233 -235 244 -255 q 224 -209 224 -220 q 227 -204 224 -204 q 240 -226 231 -204 q 248 -253 248 -248 q 247 -255 248 -255 z "},"J":{"ha":1958,"x_min":0,"x_max":2330,"o":"m 562 -313 q 503 -307 518 -313 q 370 -141 395 -263 q 368 -115 368 -128 q 397 10 368 -58 q 502 163 434 94 q 623 263 551 212 q 762 348 696 315 q 883 397 801 367 q 1041 452 964 427 q 1133 477 1118 477 q 1214 564 1145 477 q 1374 778 1283 650 q 1550 1034 1466 905 q 2117 2443 2117 1900 l 2117 2448 q 2025 2783 2117 2688 q 1845 2849 1961 2849 q 1734 2836 1794 2849 q 1205 2608 1503 2788 q 573 2133 907 2427 q 441 2011 505 2072 q 338 1908 377 1950 q 299 1860 299 1867 l 300 1859 q 302 1858 300 1858 q 412 1895 322 1858 q 634 1995 513 1936 q 837 2091 766 2060 q 991 2154 909 2123 q 1084 2184 1050 2178 q 1179 2190 1118 2190 l 1209 2190 q 1286 2186 1262 2190 q 1339 2169 1315 2182 q 1466 2035 1425 2122 q 1497 1939 1497 1963 q 1495 1935 1497 1935 q 1491 1940 1494 1935 q 1488 1943 1489 1943 q 1485 1923 1485 1943 q 1486 1887 1485 1909 q 1488 1841 1488 1855 q 1486 1826 1488 1826 q 1471 1895 1482 1826 q 1447 1988 1462 1946 q 1419 2029 1431 2029 q 1417 2024 1417 2029 q 1421 2003 1417 2014 q 1428 1978 1428 1983 q 1428 1976 1428 1976 q 1402 2013 1423 1976 q 1311 2102 1364 2078 q 1221 2126 1257 2126 q 1171 2117 1196 2126 q 1166 2113 1166 2115 q 1213 2108 1166 2108 q 1294 2098 1265 2108 q 1352 2058 1323 2087 q 1387 2012 1374 2036 q 1411 1947 1399 1989 q 1416 1927 1416 1931 q 1415 1925 1416 1925 q 1387 1983 1409 1925 q 1227 2093 1345 2093 q 1090 2062 1169 2093 q 995 2018 1037 2041 q 947 1980 953 1994 q 934 1965 942 1965 q 931 1967 932 1965 q 927 1968 929 1968 q 922 1963 922 1968 q 917 1954 922 1957 q 903 1951 911 1951 q 883 1943 883 1951 q 783 1873 883 1935 q 679 1800 682 1811 q 616 1761 675 1790 q 483 1699 557 1731 q 359 1653 408 1668 q 198 1629 271 1629 q 119 1637 156 1629 q 1 1731 17 1659 q 0 1750 0 1740 q 5 1798 0 1780 q 400 2262 44 1932 q 532 2380 473 2330 q 918 2667 623 2456 q 1223 2854 1048 2759 q 1735 3047 1545 3025 q 1860 3057 1818 3057 q 2178 2926 2050 3057 q 2299 2709 2263 2838 q 2330 2454 2330 2592 q 2150 1693 2330 2112 q 1695 869 1980 1293 q 1611 732 1617 753 q 1598 713 1608 716 q 1523 623 1587 708 q 1461 531 1461 540 q 1462 530 1461 530 q 1466 530 1462 530 q 1552 541 1489 530 q 1699 553 1633 553 l 1777 552 q 1495 505 1594 524 q 1422 480 1422 491 q 1428 477 1422 477 q 1446 480 1434 477 q 1581 498 1503 489 l 1542 478 q 1442 447 1498 457 q 1396 436 1412 441 q 1367 414 1381 430 q 1329 366 1353 399 q 1246 259 1284 304 q 1139 139 1208 214 q 1070 61 1097 94 q 909 -117 1020 2 q 846 -184 866 -164 q 760 -252 812 -217 q 670 -300 707 -286 q 562 -313 635 -313 m 598 -90 q 624 -80 606 -90 q 660 -56 642 -71 q 714 -7 679 -42 q 786 67 749 28 q 846 133 823 106 q 868 163 868 159 q 867 164 868 164 q 783 115 858 164 q 670 28 720 75 q 587 -78 605 -33 q 585 -85 585 -83 q 598 -90 585 -90 m 720 126 q 838 184 728 126 q 962 260 962 249 q 957 262 962 262 q 863 214 951 262 q 719 127 719 136 q 720 126 719 126 m 1776 1356 q 1792 1375 1781 1356 q 1799 1393 1799 1388 q 1797 1394 1799 1394 q 1782 1375 1792 1394 q 1775 1358 1775 1361 q 1776 1356 1775 1356 m 1811 1417 q 1879 1533 1817 1417 q 1948 1678 1922 1616 q 1957 1704 1957 1700 q 1941 1678 1956 1704 q 1905 1610 1927 1652 q 1862 1525 1884 1568 q 1826 1451 1841 1482 q 1811 1417 1811 1421 m 1982 1767 q 2005 1809 1984 1767 q 2035 1877 2032 1863 q 2033 1883 2035 1883 q 2002 1824 2026 1883 q 1982 1767 1982 1773 q 1982 1767 1982 1767 m 2147 2337 q 2151 2357 2151 2337 q 2150 2368 2151 2363 q 2147 2373 2148 2373 q 2145 2357 2146 2373 q 2147 2337 2145 2337 m 2148 2555 q 2151 2573 2151 2555 q 2134 2666 2151 2608 q 2108 2729 2115 2729 q 2106 2724 2106 2729 q 2117 2677 2106 2713 q 2140 2586 2132 2633 q 2148 2555 2145 2555 m 2090 2762 q 2091 2764 2091 2762 q 2083 2783 2091 2768 q 2069 2797 2076 2797 q 2066 2793 2066 2797 q 2075 2776 2066 2787 q 2090 2762 2087 2762 m 973 1980 q 971 1984 971 1980 q 988 2001 971 1988 q 1000 2010 999 2010 l 1001 2009 q 992 1998 1001 2008 q 973 1980 978 1980 m 2171 2977 q 2143 2997 2167 2977 q 2127 3012 2127 3010 l 2127 3012 q 2139 3007 2129 3012 q 2157 2996 2149 3002 q 2168 2985 2165 2991 q 2171 2978 2171 2980 q 2171 2977 2171 2977 z "},"K":{"ha":2888,"x_min":0,"x_max":2908,"o":"m 689 -118 q 675 -13 680 -118 q 671 71 672 30 q 668 145 671 145 q 663 125 666 145 q 657 77 659 106 q 654 24 654 49 q 652 -19 654 -13 q 646 -25 650 -25 q 639 -21 644 -25 q 624 62 624 -15 q 621 121 624 103 q 609 142 617 138 q 593 190 598 147 q 585 330 587 233 q 583 368 584 365 l 581 370 q 560 277 575 370 q 551 239 555 239 q 544 252 549 239 q 537 309 537 271 q 538 326 537 317 q 538 342 538 334 q 531 374 538 373 q 389 367 523 373 q 304 364 344 364 q 100 394 170 364 q 0 547 0 437 q 44 669 0 604 q 216 839 94 741 q 547 1073 338 936 l 719 1185 l 775 1356 q 1222 2420 945 1868 q 1396 2776 1356 2684 q 1448 2913 1429 2854 q 1467 2985 1467 2971 q 1466 2990 1467 2989 q 1462 2991 1465 2991 q 1303 2898 1435 2991 q 1190 2811 1242 2855 l 1082 2723 q 899 2551 1028 2678 q 805 2460 840 2492 q 766 2428 769 2428 q 765 2429 765 2428 l 766 2432 q 765 2433 766 2433 q 755 2423 763 2433 q 740 2407 747 2413 q 730 2401 733 2401 q 728 2403 728 2401 q 741 2429 728 2412 q 760 2475 760 2458 q 756 2479 760 2479 q 734 2462 750 2479 q 725 2451 726 2451 l 724 2451 q 732 2467 724 2454 q 774 2525 743 2492 q 817 2580 817 2576 l 765 2532 q 710 2479 715 2479 q 709 2479 709 2479 q 766 2559 709 2485 q 819 2640 819 2630 q 839 2669 819 2650 q 854 2698 854 2682 q 853 2704 854 2700 q 852 2710 852 2707 q 863 2732 852 2724 q 878 2753 878 2745 q 886 2771 878 2757 q 907 2802 895 2785 q 937 2855 937 2844 q 1012 2936 937 2872 q 1183 3068 1088 3000 q 1345 3171 1278 3136 q 1530 3223 1451 3223 q 1600 3211 1568 3223 q 1656 3147 1634 3196 q 1678 3043 1678 3099 q 1627 2804 1678 2945 q 1437 2381 1575 2662 q 1288 2073 1324 2150 q 1053 1512 1156 1788 q 1009 1377 1009 1395 q 1202 1491 1026 1377 q 1611 1767 1378 1606 q 2135 2139 1915 1975 q 2366 2328 2184 2177 q 2640 2591 2511 2451 q 2809 2808 2770 2732 q 2833 2839 2825 2839 q 2835 2834 2835 2839 q 2831 2821 2835 2829 q 2824 2803 2824 2806 q 2825 2801 2824 2801 q 2854 2847 2831 2801 q 2878 2882 2873 2882 q 2879 2881 2879 2882 q 2860 2830 2879 2868 q 2841 2774 2841 2792 q 2845 2765 2841 2765 q 2861 2781 2849 2766 q 2872 2792 2870 2792 q 2873 2790 2873 2792 q 2830 2711 2867 2770 q 2793 2654 2812 2682 q 2762 2604 2762 2609 q 2763 2603 2762 2603 q 2842 2707 2772 2603 l 2907 2802 q 2908 2802 2908 2802 q 2868 2724 2908 2794 q 2786 2591 2821 2643 q 2758 2541 2765 2562 q 2733 2502 2751 2521 q 2719 2482 2725 2495 q 2713 2458 2713 2469 q 2700 2422 2713 2431 q 2675 2391 2686 2414 q 2619 2317 2660 2365 q 2579 2257 2579 2268 l 2579 2256 q 2465 2141 2577 2238 q 2204 1933 2353 2044 q 1728 1592 1952 1745 q 1133 1204 1503 1438 q 944 1080 976 1105 q 913 1049 922 1062 q 898 1019 905 1036 q 840 809 865 939 q 814 688 831 758 q 804 619 804 636 q 804 615 804 616 q 812 614 804 614 q 1097 643 853 614 q 1718 676 1398 676 q 2318 629 2131 676 q 2446 584 2379 612 q 2557 532 2513 556 q 2601 496 2601 507 q 2600 492 2600 494 q 2608 481 2600 486 q 2613 478 2612 478 q 2614 479 2614 478 q 2611 486 2614 481 q 2608 493 2608 491 q 2611 496 2608 496 q 2624 490 2618 496 q 2628 481 2627 486 q 2648 453 2629 477 q 2698 399 2668 430 q 2825 189 2811 279 q 2827 172 2827 177 q 2825 168 2827 168 q 2793 228 2821 168 q 2704 358 2756 303 q 2570 465 2650 412 q 2524 486 2536 486 q 2522 486 2522 486 q 2548 466 2522 481 q 2634 400 2589 440 q 2710 323 2679 360 q 2743 269 2742 286 q 2738 265 2743 265 q 2730 274 2735 267 q 2713 286 2719 286 q 2711 286 2712 286 q 2710 285 2711 285 q 2679 315 2704 285 q 2580 399 2653 349 q 2542 418 2551 418 q 2540 412 2540 418 q 2541 406 2540 409 q 2542 401 2542 402 q 2538 399 2542 399 q 2491 413 2527 399 q 2382 450 2436 436 q 2207 482 2306 471 q 2161 486 2173 486 q 2152 485 2154 486 q 2231 463 2152 479 q 2396 412 2314 446 q 2428 393 2428 398 q 2426 393 2428 393 q 2344 409 2413 393 q 2095 450 2222 439 q 1747 461 1968 461 q 1332 450 1480 461 q 870 406 1055 425 q 763 394 770 396 q 739 251 758 386 q 726 162 730 197 q 711 101 720 101 l 710 101 q 704 77 707 101 q 701 11 701 54 q 689 -118 699 -118 m 297 381 q 316 383 316 381 q 300 388 316 387 q 285 386 292 388 q 280 383 280 385 q 297 381 280 382 m 199 391 q 219 393 219 391 q 204 395 219 393 q 35 500 68 422 q 24 514 28 514 q 22 509 22 514 q 35 477 22 499 q 104 415 58 439 q 199 391 150 391 m 23 568 q 29 570 25 568 q 35 577 33 572 q 38 588 38 583 q 46 610 38 593 q 67 646 55 627 q 84 675 80 666 q 89 686 89 684 q 87 687 89 687 q 64 656 83 687 q 18 572 22 589 q 23 568 18 568 m 340 576 q 568 589 401 576 q 617 818 612 785 q 629 857 622 845 q 631 865 631 861 q 629 867 631 867 q 591 847 625 867 q 513 795 558 826 q 424 730 468 764 q 299 631 332 662 q 265 590 265 601 q 340 576 265 576 m 380 919 q 409 936 386 919 q 438 962 438 957 q 437 962 438 962 q 409 945 432 962 q 380 920 380 924 q 380 919 380 919 m 448 965 q 575 1042 457 965 q 635 1081 610 1065 q 662 1099 659 1097 q 664 1102 664 1100 l 662 1106 q 559 1044 654 1106 q 447 966 447 971 l 448 965 m 920 1699 q 931 1712 922 1699 q 946 1740 946 1731 q 944 1746 946 1746 q 927 1717 940 1746 q 920 1699 920 1702 l 920 1699 m 947 1755 q 975 1807 952 1755 q 990 1852 990 1845 q 989 1853 990 1853 q 966 1809 985 1853 q 946 1758 946 1765 q 947 1755 946 1755 m 998 1876 q 1010 1887 1001 1876 q 1024 1921 1024 1906 q 1021 1927 1024 1927 q 1010 1912 1018 1927 q 996 1879 996 1887 q 998 1876 996 1876 m 1143 2188 q 1156 2200 1147 2188 q 1171 2228 1171 2219 q 1169 2231 1171 2231 q 1156 2219 1165 2231 q 1142 2190 1142 2200 q 1143 2188 1142 2188 m 1182 2260 q 1206 2297 1187 2260 q 1226 2346 1226 2334 q 1225 2348 1226 2348 q 1201 2314 1219 2348 q 1181 2262 1181 2274 q 1182 2260 1181 2260 m 1232 2363 q 1241 2370 1234 2363 q 1249 2383 1249 2377 q 1245 2386 1249 2386 q 1240 2384 1243 2386 q 1235 2374 1238 2381 q 1232 2364 1232 2367 q 1232 2363 1232 2363 m 2731 391 q 2681 433 2728 391 q 2641 476 2641 470 q 2642 477 2641 477 q 2694 433 2651 477 q 2731 391 2731 394 l 2731 391 m 2793 2547 q 2791 2551 2791 2547 q 2809 2568 2791 2555 q 2821 2576 2819 2576 l 2821 2576 q 2812 2564 2821 2574 q 2793 2547 2798 2547 m 828 2684 q 823 2688 823 2684 q 825 2694 823 2690 q 830 2700 827 2698 q 834 2703 833 2703 q 839 2693 839 2703 q 836 2687 839 2690 q 828 2684 833 2684 z "},"L":{"ha":2669,"x_min":0,"x_max":3094,"o":"m 137 -332 q 71 -315 98 -332 q 0 -168 0 -265 q 21 -47 0 -115 q 967 1502 147 315 q 1206 1871 1206 1846 q 1205 1873 1206 1873 q 1204 1875 1204 1873 q 1209 1885 1204 1879 q 1226 1931 1218 1897 q 1271 2053 1233 1961 q 1304 2146 1304 2131 l 1303 2148 q 1329 2205 1303 2157 q 1464 2430 1390 2322 q 1789 2841 1621 2654 q 2045 3075 1958 3028 q 2108 3091 2079 3091 q 2178 3058 2149 3091 q 2205 2990 2205 3028 q 2146 2843 2205 2940 q 1973 2584 2091 2753 q 1335 1652 1335 1668 q 1329 1642 1335 1642 l 1328 1642 q 1250 1542 1314 1640 q 1213 1478 1225 1503 q 1177 1370 1192 1430 q 1147 1292 1158 1303 q 1129 1244 1135 1283 q 1118 1212 1122 1212 q 1116 1222 1116 1212 q 1123 1283 1116 1240 q 1130 1341 1130 1322 q 1126 1356 1130 1356 q 1117 1340 1124 1356 q 1098 1312 1111 1321 q 1004 1180 1084 1298 q 867 980 929 1068 q 608 581 749 808 q 360 168 467 353 q 254 -44 254 -18 q 265 -58 254 -58 q 335 -22 279 -58 q 572 116 450 49 q 780 221 694 183 q 1076 332 906 275 q 1348 409 1245 388 q 1399 419 1368 412 q 1461 432 1431 426 q 1776 456 1585 456 q 2262 412 2079 456 q 2446 353 2348 389 q 2613 286 2545 317 q 2681 243 2681 254 l 2681 243 q 2680 239 2680 241 q 2683 237 2680 237 q 2690 239 2686 237 q 2698 241 2695 241 q 2704 237 2704 241 l 2703 235 q 2763 185 2703 226 q 2828 148 2816 148 q 2829 148 2829 148 q 2829 149 2829 148 q 2774 189 2829 155 q 2715 231 2715 226 l 2715 231 q 2742 219 2719 231 q 2795 187 2770 203 q 2832 160 2820 170 q 2844 145 2844 149 q 2843 143 2844 144 q 2842 142 2842 142 q 2898 92 2842 132 q 2999 6 2945 56 q 3091 -90 3053 -44 l 3094 -93 l 3093 -94 q 3038 -50 3088 -94 q 2747 157 2883 83 q 2591 236 2669 201 q 2560 248 2565 248 q 2559 248 2559 248 q 2654 193 2559 244 q 2814 96 2738 148 q 2920 12 2890 45 l 2945 -16 q 2887 28 2897 23 q 2873 33 2877 33 l 2869 31 q 2806 65 2856 31 q 2679 138 2743 107 q 2612 165 2625 165 q 2608 163 2608 165 q 2620 146 2608 159 q 2627 138 2627 139 q 2625 137 2627 137 q 2610 143 2622 137 q 2554 165 2598 150 q 2456 198 2509 181 q 2363 225 2403 214 q 2241 251 2323 237 q 2085 275 2160 266 q 2061 277 2068 277 q 2056 276 2056 277 q 2081 267 2056 273 q 2144 253 2106 260 q 2403 179 2302 226 q 2437 159 2437 162 q 2435 158 2437 158 l 2432 159 q 2110 224 2237 207 q 1853 242 1983 242 q 1029 91 1444 242 q 744 -38 915 47 q 455 -197 573 -124 q 317 -281 367 -253 q 235 -319 267 -309 q 137 -332 194 -332 m 200 272 q 216 291 205 272 q 222 309 222 305 q 221 311 222 311 q 205 291 216 311 q 199 273 199 278 q 200 272 199 272 m 228 321 q 303 434 233 321 q 369 551 369 543 q 309 459 363 551 l 237 342 q 227 322 227 326 q 228 321 227 321 m 404 604 q 439 651 409 604 q 469 707 469 698 q 469 707 469 707 q 442 671 465 707 l 413 625 q 403 606 403 608 q 403 604 403 605 q 404 604 403 604 m 727 1092 q 753 1121 732 1092 q 769 1150 769 1145 q 768 1151 769 1151 q 743 1121 763 1151 q 726 1093 726 1099 q 727 1092 726 1092 m 785 1170 q 815 1212 789 1170 l 842 1253 l 812 1219 q 781 1173 781 1183 q 785 1170 781 1170 m 864 1287 q 921 1363 869 1287 q 981 1456 981 1449 l 981 1456 q 931 1397 973 1456 q 873 1307 894 1345 q 863 1288 863 1291 q 864 1287 863 1287 m 1234 1464 q 1234 1466 1234 1464 q 1237 1476 1234 1468 q 1242 1486 1240 1483 q 1246 1489 1245 1489 q 1250 1484 1250 1489 q 1243 1471 1250 1477 q 1234 1464 1236 1464 z "},"M":{"ha":2111,"x_min":0,"x_max":2199,"o":"m 1911 -382 q 1876 -347 1908 -382 q 1789 -166 1820 -286 q 1741 189 1759 -47 l 1733 286 l 1731 176 q 1737 28 1731 111 q 1761 -163 1745 -74 l 1741 -127 q 1694 172 1708 -69 q 1684 275 1689 275 l 1683 274 q 1675 262 1679 262 q 1664 344 1666 262 l 1664 354 q 1669 508 1664 404 q 1700 921 1682 787 q 1709 1014 1709 984 q 1707 1027 1709 1027 q 1662 735 1699 1027 q 1626 496 1632 507 q 1622 525 1622 496 q 1634 725 1622 586 q 1691 1171 1649 921 q 1866 2073 1725 1383 l 1910 2287 q 1923 2362 1922 2348 q 1923 2367 1923 2367 q 1917 2361 1921 2367 q 1742 1931 1904 2339 q 1278 825 1408 1096 q 1158 610 1206 675 q 1069 529 1109 544 q 1010 517 1038 517 q 966 525 987 517 q 890 598 918 543 q 858 918 858 660 q 925 2116 858 1274 q 946 2430 946 2378 l 946 2435 q 905 2315 941 2435 q 684 1605 878 2222 q 466 959 578 1274 q 281 479 353 643 q 159 230 214 331 q 90 128 104 129 q 36 81 81 128 q 0 47 3 47 l 0 47 q 43 106 0 52 q 102 198 77 149 q 128 262 128 248 q 125 268 128 268 q 109 252 121 268 q 102 245 103 245 q 100 247 100 245 q 174 418 100 257 q 211 505 198 469 q 224 549 224 541 l 223 551 q 192 489 218 551 q 85 265 148 387 q 44 197 49 197 l 44 198 q 90 300 44 207 q 179 503 136 394 q 237 677 221 612 q 267 783 246 713 q 281 847 281 829 q 279 856 281 854 q 267 877 267 865 q 271 883 267 883 q 276 881 273 883 q 281 879 279 879 q 284 882 284 879 q 282 891 284 885 q 279 902 279 897 q 291 927 279 915 q 302 949 302 940 q 301 953 302 951 q 300 958 300 954 q 315 1029 300 975 q 367 1263 361 1196 q 514 1761 368 1305 q 605 2049 595 2017 l 707 2381 q 812 2723 751 2521 l 851 2860 q 958 3155 884 2974 q 1005 3264 989 3232 q 1107 3343 1048 3343 q 1142 3337 1124 3343 q 1197 3284 1179 3324 q 1212 3211 1212 3257 q 1205 3060 1212 3179 q 1164 2508 1194 2882 q 1080 1278 1090 1603 q 1071 1029 1076 1122 q 1069 978 1069 999 q 1080 923 1069 923 q 1624 2210 1114 923 q 1750 2523 1734 2487 q 1940 2916 1892 2842 q 2029 3000 1983 2983 q 2075 3006 2046 3006 q 2118 3001 2103 3006 q 2146 2979 2132 2995 q 2188 2910 2178 2947 q 2199 2816 2199 2873 q 2195 2698 2199 2751 q 2153 2425 2190 2632 q 2057 1922 2119 2233 q 1960 1457 1994 1610 q 1849 791 1904 1203 q 1782 126 1794 379 l 1782 93 q 1808 -146 1782 -29 q 1887 -345 1837 -279 q 1912 -381 1912 -378 l 1911 -382 m 92 136 q 108 164 95 136 q 116 182 116 179 l 115 182 q 104 170 114 182 q 90 141 90 150 q 92 136 90 136 m 924 624 q 926 627 926 625 q 923 638 926 631 q 918 647 920 645 q 913 650 916 650 q 911 644 911 650 q 914 633 911 640 q 924 624 920 624 l 924 624 m 904 667 q 908 682 908 667 q 904 696 908 696 q 901 682 901 696 q 904 667 901 667 m 895 726 q 899 741 899 726 q 897 758 899 750 q 895 762 895 762 q 892 745 892 762 q 895 726 892 726 m 887 842 q 897 853 893 842 q 900 869 900 861 q 892 883 900 883 q 883 872 887 883 q 880 857 880 865 q 887 842 880 842 m 895 958 q 899 986 899 958 q 895 1018 899 1018 q 893 989 893 1018 q 895 958 893 958 m 1324 987 q 1330 990 1326 987 q 1336 997 1333 992 q 1339 1005 1339 1001 q 1335 1010 1339 1010 q 1329 1008 1333 1010 q 1322 1002 1325 1006 q 1320 993 1320 997 q 1324 987 1320 987 m 1344 1034 q 1369 1078 1350 1034 q 1388 1131 1388 1122 q 1387 1132 1388 1132 q 1360 1084 1381 1132 q 1343 1036 1343 1044 q 1344 1034 1343 1034 m 897 1118 q 906 1196 901 1118 q 909 1303 909 1251 q 907 1363 909 1363 q 897 1219 902 1363 q 895 1143 895 1168 q 897 1118 895 1118 m 1421 1209 q 1475 1328 1426 1209 q 1521 1449 1521 1435 l 1521 1450 q 1486 1378 1516 1450 l 1425 1232 q 1418 1212 1418 1217 q 1421 1209 1418 1209 m 915 1407 q 916 1412 916 1407 q 918 1434 918 1421 q 916 1455 918 1446 q 915 1461 916 1461 q 912 1434 912 1461 q 915 1407 912 1407 m 1527 1463 q 1539 1483 1530 1463 q 1553 1522 1553 1511 q 1552 1525 1553 1525 q 1539 1503 1548 1525 q 1525 1464 1525 1472 q 1527 1463 1525 1463 m 1567 1556 q 1573 1565 1569 1556 q 1583 1595 1581 1580 q 1581 1598 1583 1598 q 1574 1591 1579 1598 q 1567 1575 1569 1584 q 1565 1560 1565 1567 q 1567 1556 1565 1556 m 248 780 q 245 789 245 780 q 248 805 245 798 q 262 816 253 816 q 264 812 264 816 q 256 789 264 804 q 248 780 250 780 z "},"N":{"ha":1805,"x_min":0,"x_max":1982,"o":"m 1197 -457 q 1135 -441 1167 -457 q 1044 -342 1080 -416 q 982 -106 1009 -269 q 927 350 956 57 q 848 1375 880 826 q 794 2182 821 1836 q 758 2553 768 2528 q 632 2301 746 2553 q 224 1168 338 1649 q 153 608 153 860 q 166 394 153 479 q 208 241 178 313 q 223 195 223 204 q 222 192 223 192 q 216 195 220 192 q 206 203 208 203 q 205 201 205 203 q 228 159 205 194 q 245 136 237 146 q 258 110 258 119 q 256 106 258 106 q 193 191 243 106 q 152 243 163 243 q 150 239 150 243 q 155 218 150 233 q 162 195 162 199 q 161 193 162 193 q 136 240 157 193 q 100 359 115 286 q 81 444 86 428 q 74 456 77 456 q 71 446 71 456 q 104 295 71 409 q 135 206 121 239 q 156 152 156 161 q 155 151 156 151 l 154 151 q 90 297 125 173 q 32 577 55 421 q 9 701 14 701 q 0 836 0 701 q 6 1048 0 939 q 358 2200 24 1402 q 550 2611 445 2407 q 706 2877 654 2815 q 779 2927 730 2903 q 808 2937 800 2937 q 838 2921 819 2937 q 905 2837 882 2882 q 1024 1888 970 2712 q 1059 1419 1044 1590 q 1073 1190 1064 1348 q 1131 430 1097 798 q 1200 -57 1176 -57 q 1227 -6 1213 -57 q 1322 559 1255 110 q 1352 741 1347 726 q 1361 810 1354 745 q 1376 921 1367 874 q 1400 1087 1383 963 q 1468 1536 1444 1423 q 1551 2029 1494 1654 q 1632 2393 1567 2121 q 1680 2573 1670 2555 q 1687 2581 1685 2581 l 1689 2581 q 1691 2589 1691 2581 q 1690 2602 1691 2594 q 1689 2614 1689 2610 q 1693 2622 1689 2622 l 1696 2622 q 1714 2652 1701 2622 q 1747 2735 1728 2681 q 1855 2984 1803 2896 q 1967 3101 1908 3071 q 1980 3107 1978 3107 q 1982 3106 1982 3107 q 1950 3075 1982 3103 q 1742 2613 1834 2969 q 1728 2547 1728 2558 q 1729 2543 1728 2543 q 1761 2631 1735 2543 q 1824 2821 1793 2743 q 1866 2898 1854 2898 q 1869 2894 1869 2898 q 1864 2879 1869 2888 q 1858 2856 1858 2866 q 1859 2850 1858 2852 q 1860 2846 1860 2848 q 1846 2794 1860 2831 q 1806 2659 1828 2749 q 1779 2552 1786 2577 q 1776 2540 1776 2543 q 1777 2538 1776 2538 q 1789 2546 1780 2538 q 1793 2549 1792 2547 q 1802 2555 1799 2555 q 1803 2549 1803 2555 q 1787 2448 1803 2533 q 1761 2295 1780 2411 q 1743 2181 1749 2228 l 1718 2015 q 1708 1940 1708 1958 q 1710 1932 1708 1932 q 1742 2064 1716 1932 q 1805 2332 1783 2286 q 1810 2341 1809 2341 q 1812 2332 1812 2341 q 1771 2053 1811 2299 q 1586 872 1668 1424 q 1436 -49 1478 148 q 1290 -416 1370 -353 q 1197 -457 1238 -457 m 990 3 q 994 13 994 3 q 987 30 994 22 q 981 33 983 33 q 980 31 980 33 q 983 17 980 26 q 990 3 987 3 m 980 62 q 984 77 984 62 q 982 94 984 86 q 980 98 981 98 q 977 81 978 98 q 980 62 977 62 m 970 137 q 972 142 971 137 q 975 164 975 153 q 972 186 975 176 q 970 191 971 191 q 968 164 968 191 q 970 137 968 137 m 961 225 q 964 252 964 225 q 961 279 964 279 q 958 252 958 279 q 961 225 958 225 m 954 301 q 960 314 960 301 q 954 343 960 326 q 950 350 951 350 q 946 326 946 350 q 954 301 946 301 m 940 413 q 944 494 944 484 q 928 545 944 545 q 927 543 927 545 q 930 532 927 540 q 935 505 932 524 q 938 464 937 486 l 940 413 m 71 479 q 76 488 75 479 q 74 497 76 492 q 71 503 72 503 q 68 492 68 503 q 71 479 68 479 m 882 1349 q 885 1405 883 1349 l 886 1432 q 878 1512 886 1494 q 871 1525 873 1525 q 870 1518 870 1525 q 872 1489 870 1510 q 877 1437 875 1468 q 880 1381 879 1407 q 882 1349 880 1349 m 872 1575 q 876 1590 876 1575 q 872 1604 876 1604 q 869 1590 869 1604 q 872 1575 869 1575 m 1710 2676 q 1708 2679 1708 2676 q 1718 2709 1710 2694 q 1725 2717 1723 2717 q 1727 2713 1726 2717 q 1724 2698 1727 2707 q 1717 2683 1721 2690 q 1710 2676 1712 2676 z "},"O":{"ha":2024,"x_min":0,"x_max":2127,"o":"m 840 -42 q 698 -24 758 -42 q 371 275 469 54 q 317 470 340 350 q 292 685 294 590 q 306 858 292 741 q 337 1094 319 975 q 565 1869 383 1404 q 791 2357 684 2174 q 821 2416 821 2406 q 821 2418 821 2418 q 759 2367 812 2418 q 649 2257 706 2317 q 564 2161 591 2197 q 414 1920 490 2060 q 292 1653 339 1780 q 162 1183 222 1458 q 98 766 102 907 q 81 694 97 694 l 77 695 q 68 652 68 695 q 61 598 68 606 q 56 646 56 598 q 57 697 56 667 q 58 749 58 728 q 52 794 58 794 q 43 781 47 794 q 39 760 39 771 q 35 740 39 740 l 34 740 q 33 755 33 742 q 53 1013 33 807 q 56 1044 56 1035 q 54 1050 56 1050 q 39 977 50 1050 q 24 863 31 927 q 1 707 7 707 q 0 713 0 707 q 4 777 0 728 q 33 1108 23 992 q 43 1249 42 1224 q 43 1278 43 1274 q 39 1313 43 1313 q 35 1320 35 1314 q 40 1335 35 1325 q 45 1349 45 1344 q 40 1354 45 1354 q 36 1360 36 1354 q 44 1377 37 1367 q 54 1407 54 1392 q 54 1413 54 1411 q 57 1454 54 1428 q 88 1616 71 1539 q 102 1668 97 1654 q 105 1679 105 1675 q 99 1685 105 1685 q 96 1690 96 1685 q 168 1891 96 1713 q 321 2174 220 2021 q 524 2433 421 2326 q 748 2617 625 2536 q 975 2731 872 2699 q 1017 2752 1000 2738 q 1057 2803 1034 2767 q 1451 3238 1196 3008 q 1559 3325 1547 3325 q 1560 3324 1560 3325 q 1558 3317 1560 3322 q 1555 3310 1555 3312 q 1556 3308 1555 3309 l 1556 3308 q 1637 3345 1563 3308 q 1879 3413 1772 3413 q 1958 3403 1921 3413 q 2042 3362 1994 3392 q 2119 3301 2090 3332 q 2127 3289 2127 3291 l 2092 3314 q 1880 3389 1994 3389 q 1692 3343 1790 3389 q 1564 3264 1637 3317 q 1455 3174 1491 3212 q 1451 3168 1451 3169 l 1458 3171 q 1499 3202 1470 3179 q 1839 3364 1706 3362 q 1858 3362 1858 3363 q 1850 3358 1858 3360 q 1820 3344 1829 3352 q 1763 3321 1811 3337 q 1584 3218 1673 3290 q 1537 3172 1537 3181 q 1540 3170 1537 3170 q 1564 3180 1546 3170 q 1571 3183 1569 3183 q 1573 3182 1573 3183 q 1548 3153 1573 3177 q 1416 3009 1487 3093 q 1300 2862 1346 2926 q 1253 2783 1253 2798 q 1261 2779 1253 2779 q 1263 2780 1262 2779 q 1343 2881 1297 2827 q 1426 2970 1389 2934 l 1487 3028 l 1296 2774 l 1358 2764 q 1781 2521 1612 2716 q 2007 2018 1950 2327 q 2025 1840 2024 1919 q 2026 1744 2026 1762 q 1839 852 2026 1349 q 1787 739 1823 809 q 1453 255 1640 447 q 1059 -9 1266 63 q 916 -40 976 -37 q 840 -42 856 -42 m 859 136 q 886 138 886 136 q 881 140 886 139 q 859 142 871 142 q 838 140 847 142 q 832 138 832 139 q 859 136 832 136 m 790 144 q 799 146 799 144 q 790 151 799 151 q 780 149 785 151 q 774 146 774 147 q 790 144 774 144 m 926 144 q 992 158 945 144 q 1059 186 1039 172 q 1072 197 1072 195 l 1071 197 q 1047 187 1067 197 q 960 158 1020 174 q 920 144 920 148 q 926 144 920 144 m 747 153 q 750 154 750 153 q 743 161 750 156 q 729 169 736 166 q 718 172 722 172 q 714 170 714 172 q 722 163 714 168 q 736 155 729 158 q 747 153 743 153 m 847 166 q 1139 265 998 166 q 1285 391 1204 310 q 1565 777 1446 553 q 1750 1256 1684 1000 q 1816 1766 1816 1512 q 1764 2146 1816 1990 q 1597 2414 1711 2302 q 1260 2563 1453 2563 l 1157 2559 l 1106 2475 q 739 1717 892 2115 q 531 983 585 1319 q 513 698 513 855 q 771 175 513 241 q 847 166 804 166 m 1121 219 q 1144 230 1126 219 q 1208 274 1182 252 q 1225 289 1222 285 q 1225 290 1225 290 q 1181 264 1220 290 q 1120 220 1120 225 q 1121 219 1120 219 m 1552 685 q 1571 707 1562 696 q 1586 727 1580 718 q 1592 741 1592 736 q 1590 748 1592 747 q 1569 714 1588 748 l 1552 685 m 1605 768 q 1615 783 1610 770 q 1617 790 1617 787 q 1615 793 1617 793 q 1605 785 1610 793 q 1601 777 1601 781 q 1604 768 1601 768 l 1605 768 m 1670 907 q 1702 974 1676 907 q 1742 1090 1730 1045 q 1746 1113 1746 1108 l 1746 1115 q 1706 1020 1740 1115 q 1670 909 1671 925 q 1670 907 1670 907 m 1771 1190 q 1776 1198 1775 1190 q 1774 1208 1776 1203 q 1771 1213 1772 1213 q 1768 1203 1769 1213 q 1771 1190 1768 1190 m 1499 3263 q 1544 3293 1508 3263 q 1552 3303 1552 3301 q 1550 3305 1552 3305 q 1522 3288 1543 3305 q 1498 3263 1498 3270 q 1499 3263 1498 3263 m 1573 3330 q 1572 3330 1572 3330 q 1601 3350 1572 3336 q 1630 3362 1623 3362 l 1631 3361 q 1601 3341 1631 3356 q 1573 3330 1579 3330 z "},"P":{"ha":3227,"x_min":0,"x_max":4443,"o":"m 1814 -254 l 1808 -254 q 1750 -246 1785 -254 q 1662 -222 1720 -239 l 1611 -209 l 1662 -6 q 1762 762 1762 381 q 1761 787 1762 783 q 1756 787 1760 787 q 1598 765 1727 787 q 1437 742 1502 747 q 1264 736 1371 736 q 809 786 968 736 q 587 951 651 836 q 565 1002 571 976 q 558 1084 559 1029 l 555 1173 l 564 1102 q 695 866 581 947 q 1099 771 829 771 q 1223 776 1172 771 l 1321 785 l 1160 786 q 875 813 993 788 q 720 880 757 838 q 718 885 718 884 q 719 886 718 886 q 746 876 724 886 q 1001 821 802 850 q 1052 819 1018 819 q 1168 822 1101 819 q 1292 836 1292 829 l 1291 837 q 1301 840 1291 840 q 1315 838 1306 840 q 1328 837 1323 837 q 1333 839 1333 837 q 1325 846 1333 841 q 1317 854 1317 850 q 1319 855 1317 855 q 1529 896 1342 857 q 1739 943 1723 937 q 1766 962 1766 954 q 1746 970 1766 970 q 1726 968 1738 970 q 1625 957 1645 957 q 1618 958 1618 957 q 1761 997 1618 964 l 1757 1061 q 1711 1315 1750 1185 q 1617 1530 1672 1444 q 1435 1708 1539 1649 q 1171 1784 1331 1767 q 1087 1788 1132 1788 q 530 1701 867 1788 q 288 1645 365 1657 q 168 1632 210 1632 q 28 1691 72 1632 q 0 1778 0 1729 q 14 1851 0 1811 q 151 2049 47 1947 q 311 2183 216 2111 q 355 2213 350 2213 q 431 2256 361 2213 q 671 2382 502 2299 q 1714 2766 1099 2585 q 2898 3037 2329 2947 q 3218 3077 3097 3067 q 3537 3087 3340 3087 q 3819 3081 3723 3087 q 3957 3062 3915 3075 l 4055 3033 q 4272 2923 4177 2995 q 4407 2767 4367 2851 q 4441 2638 4439 2694 q 4443 2571 4443 2582 q 4420 2410 4443 2484 q 4372 2305 4408 2374 q 4301 2177 4337 2235 q 4070 1904 4227 2062 q 3773 1647 3912 1746 l 3664 1567 q 3523 1470 3579 1504 q 3418 1405 3495 1455 q 3021 1202 3276 1314 q 2458 984 2766 1090 q 2174 890 2222 903 q 2136 877 2148 883 q 2118 861 2123 871 q 2107 828 2112 850 l 2058 650 q 1940 224 1977 367 q 1879 -47 1904 81 q 1841 -225 1851 -189 q 1828 -249 1834 -244 q 1814 -254 1822 -254 m 1295 739 q 1305 743 1305 739 q 1303 745 1305 743 q 1298 747 1301 747 q 1293 747 1295 747 q 1285 745 1289 747 q 1280 742 1280 743 q 1295 739 1280 739 m 1360 789 q 1385 792 1385 790 q 1364 795 1385 795 q 1337 792 1337 795 q 1360 789 1337 790 m 1437 798 q 1451 801 1451 798 q 1442 806 1451 805 q 1432 804 1437 806 q 1427 800 1427 802 q 1437 798 1427 798 m 2160 1063 q 2234 1086 2174 1063 l 2268 1099 q 2178 1079 2199 1087 q 2156 1065 2156 1071 q 2160 1063 2156 1063 m 1971 1087 q 2009 1202 1979 1099 q 2190 1734 2071 1407 q 2383 2233 2308 2061 q 2458 2401 2414 2299 q 2516 2507 2507 2507 l 2517 2506 q 2564 2580 2527 2506 q 2610 2659 2603 2659 q 2611 2658 2611 2659 q 2571 2565 2611 2645 q 2511 2434 2532 2487 q 2490 2367 2490 2381 q 2491 2363 2490 2364 l 2492 2363 q 2522 2405 2500 2363 q 2540 2437 2539 2437 l 2541 2437 q 2453 2214 2541 2431 q 2374 2003 2374 2016 l 2374 2002 q 2410 2078 2379 2002 q 2519 2337 2460 2200 q 2592 2492 2587 2492 l 2592 2492 q 2523 2319 2592 2480 q 2377 1924 2450 2142 q 2285 1609 2304 1707 q 2283 1590 2283 1596 q 2287 1581 2283 1581 q 2294 1584 2290 1581 q 2302 1588 2300 1588 l 2302 1587 q 2295 1576 2302 1585 q 2287 1560 2287 1567 q 2289 1555 2287 1557 q 2291 1552 2291 1553 q 2286 1549 2291 1549 q 2278 1542 2281 1549 q 2275 1527 2275 1536 q 2265 1476 2275 1506 q 2214 1281 2250 1435 q 2180 1122 2180 1139 q 2181 1120 2180 1121 q 2184 1120 2182 1120 q 2330 1162 2207 1120 q 2635 1275 2464 1209 q 2926 1396 2805 1341 q 3528 1738 3255 1548 q 3984 2125 3802 1928 q 4220 2495 4167 2323 q 4234 2584 4234 2542 q 4126 2770 4234 2700 q 3905 2855 4036 2830 q 3564 2880 3773 2880 l 3533 2880 q 3270 2871 3387 2880 q 2957 2832 3145 2861 q 2006 2629 2495 2762 q 1101 2334 1517 2496 q 343 1941 582 2132 q 256 1854 256 1870 q 260 1851 256 1851 q 425 1890 271 1851 q 792 1969 653 1947 q 1055 1992 930 1992 l 1084 1992 q 1668 1786 1458 1992 q 1952 1163 1894 1575 q 1970 1087 1964 1087 l 1971 1087 m 2305 1637 q 2302 1644 2302 1637 q 2317 1672 2302 1653 q 2327 1685 2325 1685 q 2328 1683 2328 1685 q 2325 1668 2328 1679 q 2317 1649 2322 1657 q 2309 1639 2311 1640 q 2305 1637 2306 1637 m 2287 1099 q 2298 1102 2294 1099 q 2302 1109 2302 1105 q 2296 1114 2302 1114 q 2287 1113 2292 1114 q 2277 1108 2281 1111 q 2273 1103 2273 1105 q 2287 1099 2273 1099 m 311 1966 q 353 1991 320 1966 q 393 2026 393 2020 l 391 2026 q 350 2001 384 2026 q 311 1967 312 1973 q 311 1966 311 1966 m 430 2048 q 470 2070 432 2048 q 693 2193 642 2167 q 736 2220 736 2216 l 734 2220 q 585 2148 719 2220 q 431 2054 444 2070 q 429 2049 429 2051 q 430 2048 429 2048 m 813 2252 q 824 2255 817 2252 q 839 2263 831 2258 q 846 2270 846 2268 q 842 2271 846 2271 q 831 2268 838 2271 q 817 2261 825 2266 q 810 2254 810 2256 q 813 2252 810 2252 m 859 2274 q 869 2277 862 2274 q 880 2283 877 2280 q 882 2287 882 2285 q 878 2290 882 2290 q 873 2289 876 2290 q 864 2282 869 2287 q 858 2275 858 2277 q 859 2274 858 2274 m 928 2302 q 960 2316 943 2302 q 974 2328 974 2326 q 960 2322 971 2328 q 926 2308 942 2313 q 916 2303 916 2305 q 928 2302 916 2302 m 1030 2340 q 1053 2350 1037 2340 q 1061 2357 1061 2355 q 1053 2359 1061 2359 q 1038 2357 1044 2359 q 1026 2344 1026 2352 q 1030 2340 1026 2340 m 1892 2624 q 1907 2626 1898 2624 q 1922 2633 1915 2629 q 1929 2640 1929 2638 q 1926 2641 1929 2641 q 1897 2633 1919 2641 q 1886 2626 1886 2628 q 1892 2624 1886 2624 m 1964 2643 q 2039 2662 1977 2643 q 2089 2680 2089 2676 q 2087 2681 2089 2681 q 1994 2660 2064 2681 q 1961 2645 1961 2650 q 1964 2643 1961 2643 m 2201 2703 q 2216 2706 2205 2703 q 2273 2718 2226 2708 q 2378 2742 2319 2729 q 2474 2766 2437 2755 q 2512 2778 2512 2776 l 2510 2778 q 2363 2750 2493 2778 q 2199 2704 2199 2714 q 2201 2703 2199 2703 m 2542 2781 q 2591 2789 2555 2781 q 2611 2795 2611 2793 q 2600 2797 2611 2797 q 2547 2789 2571 2797 q 2531 2783 2531 2784 q 2538 2781 2531 2781 l 2542 2781 m 2644 2800 q 2658 2803 2658 2800 q 2644 2807 2658 2807 q 2630 2803 2630 2807 q 2644 2800 2630 2800 m 2703 2810 q 2717 2813 2717 2810 q 2703 2817 2717 2817 q 2688 2813 2688 2817 q 2703 2810 2688 2810 m 689 904 q 666 926 684 904 l 647 948 q 691 907 691 912 q 689 904 691 904 m 1539 935 q 1525 937 1525 935 q 1529 940 1525 939 q 1537 942 1533 942 q 1548 939 1545 942 l 1549 938 q 1539 935 1549 935 m 30 1960 q 45 1986 30 1963 q 83 2028 68 2017 q 86 2030 85 2030 q 87 2030 87 2030 q 66 2001 87 2025 q 30 1960 33 1960 z "},"Q":{"ha":2450,"x_min":0,"x_max":2786,"o":"m 2730 -726 q 2687 -690 2724 -726 q 2648 -663 2658 -663 q 2644 -665 2646 -663 q 2639 -668 2643 -668 q 2610 -644 2631 -668 q 2548 -553 2583 -612 q 2509 -497 2514 -497 q 2508 -499 2508 -497 q 2520 -537 2508 -506 q 2563 -652 2540 -585 l 2544 -633 q 2439 -449 2523 -612 q 2319 -229 2353 -279 q 2047 -3 2206 -64 q 1788 44 1921 44 q 1676 18 1698 44 q 1646 -19 1668 9 q 1596 -83 1624 -48 q 1416 -282 1520 -180 q 1236 -435 1312 -384 q 1085 -517 1139 -499 q 954 -536 1031 -536 l 937 -536 q 863 -534 890 -536 q 818 -527 836 -532 q 775 -509 799 -521 q 721 -476 751 -496 q 670 -435 691 -455 l 621 -389 q 279 -604 385 -535 q 163 -665 188 -662 l 139 -667 q 180 -615 180 -625 q 174 -611 180 -611 q 163 -613 170 -611 l 162 -613 q 161 -612 161 -613 q 195 -574 161 -606 q 230 -538 230 -542 l 229 -538 q 187 -565 224 -538 q 144 -593 149 -593 q 144 -592 144 -593 q 198 -534 144 -587 q 269 -444 269 -463 q 272 -430 269 -435 q 279 -424 275 -424 q 288 -412 288 -424 q 317 -369 288 -401 q 342 -335 342 -341 l 341 -333 q 358 -313 341 -328 q 405 -277 375 -298 q 465 -239 434 -257 l 520 -208 l 496 -142 q 380 514 414 74 q 368 843 368 663 q 376 1423 368 1031 q 381 1608 379 1564 q 384 1670 384 1651 q 382 1686 384 1686 q 371 1666 379 1686 q 212 1094 290 1481 q 192 958 201 1038 q 174 783 183 877 q 167 579 167 692 q 183 270 167 382 q 209 64 209 101 q 208 56 209 56 q 182 157 203 56 q 122 650 138 387 l 114 802 q 122 448 120 498 q 126 344 125 374 q 128 300 128 314 q 127 292 128 292 q 125 294 126 292 q 111 326 121 311 q 81 539 99 347 q 73 670 74 616 q 68 718 71 718 q 66 716 67 718 q 53 699 62 699 q 42 774 42 699 q 69 1172 42 947 q 98 1348 82 1278 q 117 1455 117 1438 q 117 1459 117 1459 q 99 1411 113 1459 q 33 1099 68 1305 q 1 939 5 939 q 0 954 0 939 q 1 1002 0 970 q 130 1627 17 1294 q 370 2131 212 1870 l 433 2237 q 494 2740 492 2717 q 496 2743 495 2743 q 503 2721 498 2743 q 509 2695 507 2695 q 511 2715 511 2695 q 524 2808 515 2757 q 539 2863 535 2863 q 541 2854 541 2863 q 532 2768 541 2831 q 524 2662 524 2700 q 528 2618 524 2655 q 548 2671 546 2671 q 549 2664 549 2671 q 531 2464 549 2629 q 525 2381 525 2406 q 526 2373 525 2374 q 527 2372 526 2372 q 546 2477 535 2372 q 578 2710 571 2710 q 579 2705 579 2710 q 567 2553 579 2660 q 556 2418 556 2449 q 557 2410 556 2411 q 558 2409 557 2409 q 593 2443 566 2409 q 706 2564 629 2487 q 867 2718 784 2642 q 1004 2834 951 2794 q 1605 3138 1304 3055 q 1786 3167 1714 3165 q 1874 3170 1858 3170 q 2324 3012 2161 3170 q 2555 2353 2555 2803 q 2277 1130 2555 1826 q 1910 380 2121 743 q 1841 255 1841 258 q 1883 250 1841 250 q 2022 225 1929 250 q 2174 172 2114 201 q 2295 99 2231 143 q 2388 24 2359 55 q 2596 -273 2555 -161 q 2650 -395 2608 -307 q 2706 -522 2679 -458 q 2737 -614 2734 -593 l 2738 -626 q 2766 -663 2741 -639 q 2786 -684 2786 -681 q 2772 -687 2786 -687 q 2747 -676 2763 -687 q 2716 -648 2732 -665 q 2683 -618 2688 -618 q 2681 -620 2681 -618 q 2714 -671 2681 -628 q 2740 -718 2740 -705 q 2730 -726 2740 -726 m 935 -340 q 992 -328 956 -340 q 1151 -243 1072 -302 q 1282 -128 1195 -213 q 1362 -40 1362 -51 q 1361 -39 1362 -39 q 1358 -39 1360 -39 q 1282 -63 1344 -39 q 941 -213 1127 -122 q 817 -288 817 -273 q 827 -302 817 -294 q 880 -331 847 -321 q 935 -340 912 -340 m 709 -96 q 731 -87 718 -96 q 781 -60 760 -68 q 873 -16 812 -47 q 1196 124 1006 52 q 1504 221 1385 195 q 1575 243 1561 232 q 1653 357 1594 259 q 1709 465 1709 452 l 1708 466 q 1708 469 1708 467 q 1718 481 1708 476 q 1834 671 1737 491 q 1900 802 1874 744 q 1943 895 1923 854 q 2056 1154 1969 944 q 2118 1306 2092 1242 q 2321 2037 2251 1653 q 2344 2258 2344 2176 l 2344 2346 q 2321 2596 2344 2500 q 2140 2893 2265 2825 q 1879 2960 2015 2960 q 1583 2909 1732 2960 q 1385 2827 1418 2852 q 1292 2768 1363 2810 q 1206 2721 1211 2721 q 1177 2696 1201 2721 q 1144 2672 1156 2672 q 1069 2616 1133 2672 q 795 2351 924 2490 q 737 2276 737 2288 q 690 2210 737 2271 q 603 2083 642 2147 l 562 2016 l 568 1926 q 576 1212 572 1815 q 582 700 577 886 q 597 401 586 514 q 654 76 613 241 q 709 -96 698 -96 m 1884 56 q 1898 59 1898 56 q 1896 62 1898 60 q 1891 63 1894 63 q 1886 63 1887 63 q 1878 61 1882 63 q 1873 58 1873 60 q 1884 56 1873 56 m 1758 66 q 1777 69 1777 66 q 1761 73 1777 73 q 1746 71 1753 73 q 1742 69 1742 70 q 1758 66 1742 67 m 1826 67 q 1851 69 1851 67 q 1830 73 1851 73 q 1809 71 1819 73 q 1804 69 1804 70 q 1826 67 1804 68 m 2041 692 q 2047 695 2043 692 q 2053 702 2050 697 q 2056 710 2056 706 q 2051 715 2056 715 q 2046 713 2049 715 q 2039 707 2042 711 q 2036 698 2036 702 q 2041 692 2036 692 m 2085 784 q 2119 844 2089 784 q 2189 1002 2158 924 q 2201 1036 2201 1032 l 2201 1036 q 2146 927 2197 1035 q 2085 785 2085 797 l 2085 784 m 2233 1121 q 2241 1129 2235 1121 q 2251 1154 2251 1143 q 2249 1157 2251 1157 q 2241 1148 2247 1157 q 2232 1124 2232 1134 q 2233 1121 2232 1121 m 2255 1171 q 2261 1173 2258 1171 q 2268 1180 2265 1175 q 2271 1189 2271 1185 q 2266 1194 2271 1194 q 2260 1192 2264 1194 q 2254 1185 2256 1190 q 2251 1177 2251 1181 q 2255 1171 2251 1171 m 2282 1238 q 2289 1245 2284 1238 q 2297 1260 2294 1253 q 2300 1270 2300 1267 q 2298 1274 2300 1274 q 2291 1266 2296 1274 q 2283 1252 2286 1259 q 2281 1241 2281 1245 q 2282 1238 2281 1238 m 2481 1914 q 2487 1918 2483 1914 q 2493 1927 2491 1922 q 2494 1935 2494 1932 q 2490 1944 2494 1944 q 2483 1931 2487 1944 q 2480 1917 2480 1921 q 2481 1914 2480 1914 m 2498 1977 q 2511 2035 2502 1977 q 2513 2058 2513 2049 q 2511 2070 2513 2070 q 2505 2051 2509 2070 q 2497 1993 2498 2025 q 2498 1977 2497 1977 m 2525 2161 q 2530 2218 2529 2161 q 2532 2315 2532 2264 q 2528 2487 2532 2487 q 2522 2304 2525 2487 l 2522 2243 q 2525 2161 2522 2161 m 2519 2540 q 2523 2560 2523 2540 q 2519 2576 2523 2576 q 2517 2559 2517 2576 q 2519 2540 2517 2540 m 2764 -648 q 2749 -629 2760 -648 q 2743 -610 2743 -616 q 2743 -609 2743 -609 q 2759 -629 2747 -609 q 2766 -646 2766 -642 q 2764 -648 2766 -648 z "},"R":{"ha":2866,"x_min":0,"x_max":3697,"o":"m 982 -165 q 972 -72 973 -165 l 971 31 q 954 -79 958 -58 q 944 -103 949 -103 q 929 -72 935 -103 q 925 -32 925 -56 q 912 6 925 6 q 891 44 899 6 q 884 143 884 81 q 876 196 884 196 l 875 196 q 866 154 866 189 q 860 97 866 119 q 844 75 854 75 q 840 97 840 75 q 852 360 840 266 l 859 397 l 758 397 q 583 406 670 397 q 441 431 496 415 q 324 496 368 452 q 281 593 281 541 q 328 720 281 659 q 497 859 376 781 q 837 1048 619 937 q 1002 1135 987 1126 q 1032 1253 1006 1141 q 1234 1879 1088 1482 q 1786 2623 1512 2623 q 1846 2615 1823 2623 q 1868 2599 1868 2607 l 1868 2595 q 1888 2575 1868 2586 q 1909 2559 1909 2566 q 1906 2557 1909 2557 q 1874 2568 1895 2557 q 1835 2582 1847 2582 q 1820 2583 1822 2583 q 1804 2574 1804 2583 q 1807 2567 1804 2570 q 1816 2563 1811 2563 q 1817 2563 1817 2563 q 1780 2554 1817 2560 q 1718 2532 1734 2547 q 1712 2524 1712 2525 q 1714 2523 1712 2523 q 1747 2533 1720 2523 q 1792 2543 1775 2543 q 1815 2538 1804 2543 q 1829 2529 1829 2532 q 1828 2528 1829 2528 q 1799 2526 1826 2526 q 1738 2511 1760 2525 q 1696 2454 1713 2492 q 1690 2433 1690 2440 q 1691 2428 1690 2430 q 1692 2423 1692 2426 q 1681 2375 1692 2411 q 1670 2328 1670 2344 q 1670 2323 1670 2325 l 1660 2296 q 1628 2239 1648 2273 q 1472 1921 1560 2125 q 1340 1549 1423 1809 q 1260 1272 1260 1303 q 1261 1268 1260 1270 q 1704 1489 1282 1268 q 2355 1842 2145 1721 q 3226 2479 2932 2175 q 3480 2935 3471 2729 l 3481 2962 q 3467 3036 3481 3009 q 3394 3095 3448 3070 q 3085 3148 3280 3148 q 2376 3046 2795 3148 q 1645 2816 2030 2960 q 882 2478 1261 2671 q 618 2334 703 2387 q 347 2140 494 2256 q 263 2068 284 2090 q 199 1984 225 2026 q 173 1923 173 1942 q 248 1858 173 1889 q 448 1805 322 1826 q 732 1776 574 1783 q 876 1764 876 1771 l 875 1763 q 901 1759 875 1759 l 936 1760 q 972 1761 958 1761 q 993 1758 993 1761 q 956 1748 993 1752 q 905 1744 932 1745 q 807 1735 854 1743 q 773 1727 773 1730 q 780 1726 773 1727 q 794 1722 787 1725 q 803 1714 800 1718 l 804 1713 q 751 1708 804 1708 q 655 1710 715 1708 q 547 1712 602 1712 q 507 1710 507 1712 q 703 1695 517 1703 l 890 1687 l 652 1691 q 382 1698 467 1693 q 254 1716 298 1704 q 209 1723 227 1723 q 201 1722 204 1723 q 194 1721 198 1721 q 170 1727 182 1721 q 157 1731 161 1731 q 156 1730 156 1731 q 159 1725 156 1729 q 161 1719 161 1721 q 159 1718 161 1718 q 145 1724 156 1718 q 115 1754 123 1735 q 92 1773 104 1773 q 62 1791 80 1773 q 28 1834 44 1809 q 0 1931 0 1878 q 46 2089 0 2012 q 67 2129 67 2123 q 66 2129 67 2129 l 66 2129 q 61 2128 63 2128 q 56 2134 56 2128 q 101 2189 56 2142 q 203 2289 146 2237 q 300 2371 260 2341 q 1325 2913 647 2628 l 1374 2934 q 1526 2998 1473 2976 q 1631 3037 1579 3019 q 1780 3085 1684 3054 l 1828 3100 q 2063 3174 1976 3147 q 2217 3218 2150 3200 q 2375 3256 2285 3236 q 3086 3356 2805 3356 q 3265 3344 3185 3356 q 3368 3332 3339 3332 q 3396 3324 3396 3330 q 3440 3302 3396 3318 q 3538 3252 3484 3287 q 3669 3098 3640 3183 q 3697 2947 3697 3012 q 3680 2821 3697 2887 q 3398 2349 3624 2580 q 2365 1603 3063 1995 q 1874 1339 2186 1502 q 1598 1186 1598 1195 q 1594 1181 1598 1181 q 1589 1183 1592 1181 l 1588 1183 q 1384 1090 1570 1183 q 1214 1000 1245 1020 q 1189 978 1195 987 q 1162 880 1180 964 q 1145 797 1152 833 q 1129 708 1143 777 q 1122 640 1122 665 q 1122 629 1122 633 q 1176 620 1125 620 q 1292 622 1222 620 q 1495 625 1390 625 q 1833 616 1710 625 q 2114 588 2008 602 q 2219 564 2219 574 l 2219 563 q 2229 559 2219 559 q 2244 561 2236 559 q 2258 562 2253 562 q 2270 556 2270 562 l 2270 555 q 2372 515 2270 546 q 2554 450 2477 485 q 2687 376 2626 416 q 2757 316 2747 336 q 2770 299 2762 299 q 2810 252 2778 299 l 2841 206 l 2800 253 q 2324 498 2635 429 q 2180 521 2216 521 q 2169 517 2169 521 q 2179 515 2169 515 q 2226 506 2189 514 q 2311 486 2264 498 q 2488 431 2407 462 q 2597 376 2568 399 l 2619 357 q 2596 368 2607 363 q 2572 378 2584 374 q 2551 383 2559 382 q 2511 393 2542 384 q 2443 415 2481 402 q 2361 439 2405 427 q 2287 455 2317 450 q 2230 464 2258 459 q 2189 471 2203 468 q 2160 475 2175 473 l 2209 444 l 2175 450 q 1980 459 2132 455 q 1635 463 1827 463 q 1467 454 1467 463 q 1662 444 1467 449 q 1932 428 1932 435 q 1549 414 1932 420 q 1099 401 1122 406 q 1080 361 1091 397 q 1060 275 1069 325 q 1047 177 1051 224 q 1033 56 1042 105 q 1015 -5 1024 6 q 1007 -34 1011 -12 q 1000 -85 1002 -57 q 985 -163 994 -150 q 982 -165 983 -165 m 1340 448 q 1359 450 1359 448 q 1343 454 1359 454 q 1324 450 1324 454 q 1340 448 1324 448 m 2116 525 q 2130 528 2130 525 q 2116 532 2130 532 q 2102 528 2102 532 q 2116 525 2102 525 m 852 615 q 889 620 878 616 q 901 636 899 624 q 926 768 909 669 q 939 863 939 849 q 938 865 939 864 q 937 865 938 865 q 918 854 931 865 q 808 792 897 837 q 690 728 714 744 q 610 675 663 709 q 558 633 558 642 l 558 632 q 683 622 565 625 q 804 618 800 621 q 852 615 808 615 m 1036 1161 q 1049 1173 1044 1161 q 1052 1190 1052 1179 q 1050 1196 1052 1196 q 1042 1187 1048 1196 q 1033 1165 1033 1173 q 1036 1161 1033 1161 m 1112 1417 q 1126 1440 1116 1417 q 1137 1475 1137 1463 q 1135 1478 1137 1478 q 1121 1457 1130 1478 q 1112 1421 1112 1435 q 1112 1417 1112 1417 m 2205 1728 q 2224 1734 2211 1728 q 2243 1750 2243 1746 q 2241 1751 2243 1751 q 2224 1744 2237 1751 q 2204 1729 2204 1733 q 2205 1728 2204 1728 m 2273 1766 q 2509 1898 2289 1766 q 2622 1975 2622 1967 q 2621 1976 2622 1976 q 2603 1967 2618 1976 q 2424 1860 2549 1933 l 2329 1804 q 2273 1767 2273 1772 q 2273 1766 2273 1766 m 2686 2009 q 2721 2031 2691 2011 q 2819 2102 2819 2096 q 2818 2104 2819 2103 q 2811 2101 2816 2104 q 2798 2093 2807 2099 q 2774 2078 2789 2087 q 2738 2054 2760 2068 q 2699 2025 2715 2038 q 2683 2011 2683 2013 q 2685 2009 2683 2009 l 2686 2009 m 3231 2428 q 3259 2452 3238 2428 q 3278 2476 3278 2473 q 3277 2477 3278 2477 q 3249 2452 3272 2477 q 3230 2429 3230 2432 q 3231 2428 3230 2428 m 3295 2495 q 3368 2579 3303 2495 q 3383 2601 3383 2599 q 3352 2569 3381 2601 q 3297 2501 3309 2524 q 3295 2496 3295 2498 l 3295 2495 m 1851 2595 q 1861 2597 1861 2595 q 1851 2602 1861 2602 q 1842 2600 1847 2602 q 1836 2597 1836 2598 q 1851 2595 1836 2595 m 3442 2691 q 3458 2712 3446 2691 q 3505 2827 3483 2757 q 3520 2908 3520 2878 q 3520 2911 3520 2911 q 3512 2886 3518 2911 q 3487 2814 3501 2854 q 3460 2742 3473 2774 q 3442 2704 3447 2711 q 3437 2694 3437 2697 q 3442 2691 3437 2691 m 3522 2984 q 3532 2989 3532 2984 q 3529 2993 3532 2990 q 3523 2999 3526 2996 q 3518 3001 3520 3001 q 3512 2995 3512 3001 q 3522 2984 3512 2984 m 1017 -60 q 1014 -52 1014 -60 q 1016 -37 1014 -37 q 1019 -42 1017 -37 q 1021 -52 1021 -47 q 1017 -60 1021 -60 m 2351 535 q 2336 538 2336 535 q 2351 542 2336 542 q 2365 538 2365 542 q 2351 535 2365 535 m 246 1695 q 232 1705 232 1695 q 239 1710 232 1710 q 247 1708 242 1710 q 257 1704 252 1706 q 261 1699 261 1701 q 246 1695 261 1695 m 3665 3170 q 3648 3187 3663 3170 q 3639 3199 3639 3197 l 3640 3199 q 3652 3191 3642 3199 q 3669 3172 3669 3177 q 3665 3170 3669 3170 z "},"S":{"ha":3762,"x_min":0,"x_max":3706,"o":"m 1252 -267 q 1126 -252 1178 -267 q 1020 -195 1053 -233 q 987 -93 987 -157 q 1103 127 987 11 q 1463 381 1219 243 q 1654 484 1562 437 q 1805 553 1747 531 q 1820 558 1816 558 q 1823 556 1823 558 q 1821 551 1823 555 q 1818 546 1818 548 q 1821 545 1818 545 q 1832 548 1824 545 q 2098 638 1908 580 q 2342 688 2253 685 l 2407 690 q 2496 681 2464 690 q 2506 677 2506 678 q 2427 671 2506 671 q 1710 450 2148 671 q 1674 429 1674 433 l 1676 429 q 1735 453 1686 429 q 2060 582 1871 519 q 2233 627 2199 627 q 2242 623 2242 627 q 2233 614 2242 618 q 2218 612 2226 612 q 2190 600 2202 612 q 2059 548 2174 587 q 1877 475 1957 512 q 1797 426 1797 437 q 1802 420 1797 420 q 1816 425 1807 420 q 1829 431 1825 430 q 1834 433 1833 433 q 1836 431 1836 433 q 1803 409 1836 427 q 1346 117 1529 264 q 1191 -26 1209 6 l 1190 -30 q 1191 -31 1190 -31 q 1232 1 1196 -31 q 1588 247 1371 134 q 1661 283 1655 283 l 1662 283 q 1501 170 1662 279 q 1380 82 1439 127 q 1291 9 1320 36 l 1226 -54 l 1319 -49 q 1836 47 1483 -41 q 2604 276 2267 153 q 3153 524 2941 399 q 3423 763 3366 649 q 3444 830 3444 801 q 3402 895 3444 871 q 3006 942 3317 942 q 2640 924 2848 942 q 1875 831 2364 899 q 974 716 1265 747 q 495 686 683 686 l 463 686 q 253 697 328 686 q 120 737 174 708 q 54 788 85 756 q 11 850 22 820 q 0 915 0 880 q 69 1114 0 1013 q 543 1557 195 1292 q 1359 2107 890 1822 q 2315 2631 1827 2393 q 2724 2819 2567 2753 q 3067 2945 2882 2885 q 3444 3022 3297 3022 q 3689 2888 3638 3022 q 3706 2783 3706 2841 q 3690 2663 3706 2728 q 3562 2389 3657 2531 q 3475 2270 3523 2331 q 3389 2169 3426 2209 q 3342 2129 3352 2129 l 3340 2129 q 3296 2096 3328 2129 q 3250 2055 3256 2055 q 3250 2056 3250 2055 q 3312 2134 3250 2065 q 3389 2223 3360 2185 q 3417 2270 3417 2261 q 3416 2272 3417 2272 q 3374 2235 3411 2272 q 3360 2222 3362 2222 l 3359 2222 q 3396 2277 3359 2226 q 3564 2540 3522 2446 q 3583 2589 3583 2584 l 3583 2590 q 3547 2530 3579 2590 q 3482 2418 3518 2475 q 3345 2239 3442 2357 q 3296 2186 3301 2186 q 3295 2186 3295 2186 q 3306 2205 3295 2190 q 3488 2457 3446 2387 q 3531 2542 3511 2497 q 3564 2618 3554 2591 q 3577 2670 3575 2646 q 3579 2735 3579 2694 q 3551 2862 3579 2862 q 3540 2857 3546 2862 q 3529 2852 3534 2852 q 3521 2857 3524 2852 q 3510 2863 3517 2863 q 3505 2862 3507 2863 q 3499 2860 3502 2860 q 3483 2867 3491 2860 q 3463 2873 3474 2873 q 3434 2867 3453 2873 q 3328 2838 3379 2850 q 3167 2785 3233 2813 q 3140 2768 3140 2773 l 3140 2767 q 3065 2732 3140 2761 q 2260 2370 2720 2601 q 1499 1944 1800 2138 q 1373 1868 1421 1894 q 1035 1657 1259 1809 q 331 1101 548 1326 q 217 939 217 983 l 217 937 q 442 893 230 893 q 1251 963 718 893 l 1914 1051 q 2681 1140 2307 1104 q 2994 1152 2821 1152 q 3318 1136 3214 1152 q 3514 1075 3443 1114 q 3638 931 3602 1027 q 3646 891 3644 914 q 3648 826 3648 868 q 3646 757 3648 781 q 3635 710 3644 733 q 3605 647 3625 687 q 3574 588 3587 611 q 3559 565 3562 565 q 3496 512 3552 565 q 3241 332 3408 431 q 2913 167 3074 233 q 2808 121 2836 136 q 2759 102 2789 111 q 2574 40 2740 98 q 1881 -170 2338 -43 q 1550 -237 1740 -208 q 1252 -267 1361 -266 m 1198 -92 q 1198 -91 1198 -92 q 1190 -72 1198 -86 q 1175 -57 1181 -57 q 1173 -60 1173 -58 q 1182 -76 1173 -64 q 1198 -92 1192 -92 m 905 739 q 1044 754 958 743 q 1184 775 1184 770 q 1162 777 1184 777 q 1007 762 1128 777 q 882 743 886 747 q 880 741 880 742 q 891 739 880 739 l 905 739 m 1319 789 q 1333 791 1333 789 q 1319 795 1333 795 q 1305 791 1305 795 q 1319 789 1305 789 m 1365 788 q 1387 797 1373 788 q 1395 804 1395 802 q 1385 806 1395 806 q 1358 797 1358 806 q 1365 788 1358 788 m 1464 808 q 1473 811 1473 808 q 1464 815 1473 815 q 1454 813 1459 815 q 1449 810 1449 811 q 1464 808 1449 808 m 2201 899 q 2259 907 2206 899 q 2346 920 2346 919 q 2342 921 2346 921 q 2285 918 2330 921 q 2224 911 2250 916 q 2193 901 2193 907 q 2201 899 2193 899 m 2467 929 q 2487 930 2475 929 q 2559 937 2504 932 q 2803 961 2803 958 q 2787 962 2803 962 q 2608 951 2731 962 q 2457 931 2457 938 q 2467 929 2457 929 m 2886 965 q 2905 967 2905 965 q 2886 971 2905 971 q 2874 970 2880 971 q 2869 967 2869 968 q 2886 965 2869 966 m 2993 964 q 3006 967 3006 964 q 2998 972 3006 971 q 2987 970 2992 972 q 2982 966 2982 968 q 2993 964 2982 964 m 3343 2135 q 3379 2174 3347 2135 q 3406 2212 3406 2208 l 3405 2213 q 3369 2174 3400 2213 q 3343 2136 3343 2140 l 3343 2135 m 1890 585 q 1889 585 1889 585 q 1913 598 1889 589 q 1948 608 1938 608 l 1950 608 q 1927 595 1950 604 q 1890 585 1900 585 z "},"T":{"ha":2866,"x_min":0,"x_max":4827,"o":"m 2094 -345 q 2068 -269 2085 -345 q 2056 -204 2061 -237 q 2041 -142 2045 -142 q 2039 -171 2039 -142 l 2039 -211 l 2040 -231 q 2038 -256 2040 -248 q 2030 -263 2036 -263 q 2006 -208 2015 -263 q 1986 -136 1997 -136 q 1981 -140 1984 -136 q 1979 -142 1980 -142 q 1956 -45 1967 -142 q 1950 41 1950 0 q 1942 113 1950 113 q 1935 99 1938 113 q 1932 62 1932 84 q 1926 -24 1931 5 q 1914 -54 1921 -54 q 1904 -6 1906 -54 l 1903 41 q 1917 245 1903 143 q 2082 963 1961 519 q 2336 1783 2203 1407 q 2405 1987 2405 1975 l 2398 1988 q 1942 1944 2345 1988 q 1608 1906 1748 1923 q 1290 1863 1468 1889 q 808 1789 1112 1836 q 469 1738 586 1754 q 310 1719 351 1722 q 246 1716 269 1716 q 197 1718 219 1716 q 3 1847 26 1734 q 0 1873 0 1860 q 67 1992 0 1935 q 355 2138 149 2059 q 1488 2470 804 2313 q 1946 2568 1728 2526 q 2610 2681 2165 2609 q 2675 2698 2667 2691 q 2717 2799 2684 2709 q 2767 2921 2757 2901 q 2834 3082 2780 2946 q 2934 3303 2923 3303 q 2936 3302 2935 3303 q 2938 3301 2936 3301 q 2954 3318 2945 3301 q 2963 3330 2961 3330 q 2964 3326 2964 3330 q 2961 3298 2964 3320 q 2958 3271 2958 3281 q 2962 3260 2958 3260 q 2966 3261 2964 3260 q 2971 3263 2969 3263 q 2976 3255 2976 3263 q 2962 3204 2976 3242 q 2949 3160 2949 3174 q 2951 3156 2949 3156 q 2979 3215 2957 3156 q 3004 3267 2999 3267 q 3006 3265 3006 3267 q 2990 3212 3006 3247 q 2972 3050 2974 3177 q 2963 2917 2968 2928 q 2962 2911 2962 2914 q 2967 2905 2962 2907 q 2972 2895 2972 2903 q 2935 2781 2972 2879 q 2920 2728 2920 2738 q 2925 2726 2920 2726 q 3042 2736 2944 2726 q 3751 2770 3381 2770 q 4471 2705 4182 2770 q 4697 2637 4568 2681 q 4761 2607 4761 2614 q 4758 2605 4761 2605 q 4744 2608 4754 2605 l 4740 2608 q 4740 2608 4740 2608 q 4778 2585 4740 2603 q 4827 2557 4827 2560 q 4825 2556 4827 2556 q 4757 2580 4818 2556 q 4685 2601 4701 2601 q 4670 2598 4670 2601 q 4691 2580 4670 2593 q 4709 2568 4709 2570 q 4707 2568 4709 2568 q 4658 2581 4704 2568 q 4481 2622 4510 2622 q 4477 2620 4477 2622 q 4525 2604 4477 2616 q 4694 2553 4635 2574 q 4721 2539 4721 2542 q 4719 2538 4721 2538 q 4636 2559 4702 2538 q 4474 2596 4536 2592 q 4378 2601 4411 2601 q 4207 2590 4303 2601 q 4078 2582 4167 2586 q 3992 2573 3992 2579 q 3673 2561 3992 2568 q 3187 2540 3345 2555 q 2947 2514 3056 2529 q 2822 2492 2839 2500 q 2801 2440 2813 2485 q 2756 2325 2785 2389 q 2711 2207 2721 2243 l 2696 2157 l 2746 2145 q 2924 2072 2866 2115 q 2998 1959 2983 2029 q 2999 1940 2999 1951 q 2985 1858 2999 1902 q 2964 1826 2973 1826 q 2963 1829 2963 1826 q 2967 1847 2963 1836 q 2977 1922 2977 1876 q 2810 2099 2977 2053 q 2690 2120 2732 2120 q 2674 2115 2674 2120 q 2702 2106 2674 2106 q 2785 2089 2734 2106 q 2877 2050 2837 2072 q 2918 2016 2918 2029 q 2915 2010 2918 2010 q 2906 2015 2911 2010 q 2880 2026 2894 2024 q 2811 2045 2867 2026 q 2692 2068 2743 2068 q 2666 2062 2669 2068 q 2654 2042 2662 2050 q 2592 1881 2643 2024 q 2257 808 2387 1301 q 2228 689 2234 720 q 2201 568 2223 658 q 2161 374 2176 458 q 2136 253 2146 281 q 2101 -65 2122 208 q 2095 -119 2099 -97 q 2087 -140 2091 -140 q 2083 -173 2083 -140 q 2094 -304 2083 -222 q 2096 -335 2096 -325 q 2094 -345 2096 -345 m 2169 1189 q 2182 1221 2171 1189 q 2209 1308 2209 1297 q 2208 1310 2209 1310 q 2192 1278 2205 1310 q 2167 1193 2167 1215 q 2169 1189 2167 1189 m 2217 1334 q 2225 1343 2219 1334 q 2235 1373 2235 1359 q 2233 1383 2235 1383 q 2225 1373 2231 1383 q 2216 1339 2216 1357 q 2217 1334 2216 1334 m 2336 1672 q 2347 1691 2339 1672 q 2361 1734 2361 1718 q 2359 1737 2360 1737 q 2346 1720 2355 1737 q 2334 1676 2334 1689 q 2336 1672 2334 1672 m 475 1952 q 624 1974 478 1952 q 835 2009 727 1988 q 981 2033 905 2021 q 1141 2056 1029 2039 q 1337 2085 1175 2060 q 1896 2157 1604 2127 q 2346 2188 2188 2186 l 2482 2188 q 2518 2277 2505 2243 q 2571 2426 2561 2394 q 2577 2457 2577 2448 q 2570 2466 2577 2466 q 2312 2426 2544 2466 q 1742 2313 2013 2373 q 1395 2231 1544 2270 l 1093 2153 q 652 2021 897 2102 q 472 1952 472 1961 q 475 1952 472 1952 m 2154 2001 q 2181 2003 2165 2001 q 2321 2011 2224 2008 q 2426 2031 2426 2015 q 2403 2037 2426 2037 q 2304 2030 2370 2037 q 2140 2003 2140 2013 q 2154 2001 2140 2001 m 135 2008 q 143 2011 138 2008 q 149 2017 147 2013 q 151 2021 151 2020 q 149 2023 151 2023 q 141 2021 146 2023 q 126 2011 126 2016 q 135 2008 126 2008 m 193 2037 q 202 2040 197 2037 q 208 2046 206 2043 q 210 2050 210 2049 q 207 2052 210 2052 q 199 2051 204 2052 q 184 2041 184 2045 q 193 2037 184 2037 m 228 2059 q 345 2102 233 2059 l 412 2127 q 454 2144 452 2142 q 456 2148 456 2146 q 456 2149 456 2149 q 454 2150 455 2150 q 353 2116 443 2150 q 227 2060 227 2068 q 228 2059 227 2059 m 505 2165 q 574 2184 519 2165 q 601 2194 600 2192 q 603 2197 603 2195 q 600 2199 603 2199 q 545 2184 589 2199 q 503 2165 503 2168 l 505 2165 m 1011 2311 q 1028 2314 1020 2311 q 1038 2320 1036 2316 q 1040 2326 1040 2324 q 1036 2329 1040 2329 q 1009 2320 1029 2329 q 996 2313 996 2315 q 1005 2311 996 2311 l 1011 2311 m 1126 2340 q 1139 2344 1139 2340 q 1131 2348 1139 2348 q 1120 2346 1125 2348 q 1115 2343 1115 2344 q 1126 2340 1115 2341 m 1193 2360 q 1271 2375 1205 2360 q 1362 2404 1362 2396 q 1357 2405 1362 2405 q 1334 2403 1350 2405 q 1293 2394 1318 2401 q 1243 2380 1268 2388 q 1205 2367 1219 2372 q 1192 2361 1192 2363 q 1193 2360 1192 2360 m 1414 2408 q 1422 2411 1418 2408 q 1428 2417 1426 2414 q 1430 2421 1430 2420 q 1428 2423 1430 2423 q 1420 2422 1425 2423 q 1405 2411 1405 2416 q 1414 2408 1405 2408 m 2825 2136 q 2796 2144 2818 2136 q 2785 2151 2785 2149 q 2791 2153 2785 2153 q 2806 2151 2797 2153 q 2821 2144 2814 2148 q 2828 2137 2828 2139 q 2825 2136 2828 2136 m 2751 2155 q 2736 2157 2736 2155 q 2741 2161 2736 2159 q 2751 2163 2746 2163 q 2760 2159 2760 2163 q 2751 2155 2760 2155 z "},"U":{"ha":2592,"x_min":0,"x_max":2662,"o":"m 454 -440 q 365 -431 404 -440 q 7 118 60 -351 q 0 288 0 186 q 22 717 0 540 q 198 1536 78 1105 q 474 2351 319 1967 q 791 2985 630 2735 q 894 3120 880 3120 q 897 3116 897 3120 q 897 3115 897 3115 q 937 3146 905 3115 l 979 3185 q 849 3002 852 3025 l 848 2993 q 850 2989 848 2989 q 874 3008 857 2989 l 899 3038 q 795 2856 857 2966 q 724 2712 724 2726 q 724 2711 724 2711 q 775 2796 729 2711 q 908 3014 840 2912 q 943 3059 938 3059 l 943 3058 q 892 2972 943 3048 q 799 2804 844 2896 q 730 2643 754 2712 q 705 2546 705 2574 q 707 2536 705 2540 q 708 2525 708 2531 q 702 2511 708 2515 q 698 2510 699 2510 q 696 2513 696 2510 q 698 2521 696 2515 q 701 2530 701 2528 q 699 2533 701 2533 q 683 2516 690 2533 q 678 2493 678 2505 q 683 2481 678 2484 q 687 2473 687 2478 q 682 2457 687 2466 q 677 2439 677 2448 q 679 2434 677 2436 q 680 2431 680 2433 q 671 2412 680 2422 q 657 2381 659 2396 q 624 2253 656 2367 q 589 2110 591 2140 q 551 1973 583 2070 q 433 1597 469 1718 q 365 1349 397 1476 q 237 714 252 914 q 220 592 233 661 q 208 323 210 534 l 208 309 q 222 61 208 150 q 272 -101 235 -33 q 373 -215 319 -197 q 465 -234 427 -234 q 691 -168 563 -234 q 779 -117 744 -141 q 813 -81 813 -93 l 812 -79 q 810 -75 810 -76 q 811 -74 810 -74 q 818 -77 813 -74 l 819 -77 q 886 -25 831 -77 q 1013 105 944 29 q 1128 241 1082 180 q 1301 491 1202 341 q 1459 743 1400 642 q 1748 1310 1588 969 q 2043 1988 1908 1651 q 2165 2305 2123 2188 q 2264 2603 2207 2422 q 2330 2777 2306 2733 q 2393 2841 2364 2834 q 2433 2848 2422 2848 q 2499 2817 2469 2848 q 2528 2743 2528 2791 q 2473 2530 2528 2686 q 2378 2237 2412 2354 q 2339 2106 2358 2168 q 2267 1838 2298 1957 l 2229 1691 q 2135 1272 2161 1433 q 2102 905 2109 1110 q 2100 824 2100 861 q 2114 664 2100 724 q 2188 539 2134 580 q 2207 519 2207 523 q 2206 518 2207 518 l 2201 519 q 2188 522 2192 522 q 2187 522 2187 522 q 2195 515 2187 520 q 2247 503 2214 503 q 2317 512 2277 503 q 2490 583 2401 532 q 2562 621 2556 621 q 2618 651 2569 621 q 2661 675 2656 675 l 2662 674 q 2569 606 2662 668 q 2234 475 2369 475 q 2190 480 2207 475 q 2125 521 2159 489 l 2083 557 l 2121 516 q 2194 464 2159 476 q 2245 457 2216 457 q 2406 493 2311 457 l 2478 521 l 2448 492 q 2241 427 2376 427 q 2146 441 2189 427 q 2107 452 2119 452 q 2101 450 2101 452 q 2124 432 2101 445 q 2143 418 2143 421 q 2140 416 2143 417 q 2104 437 2127 417 q 1977 627 2009 514 q 1943 863 1946 734 q 1941 967 1941 924 q 1948 1114 1941 1086 q 1950 1126 1950 1122 q 1949 1128 1950 1128 q 1940 1121 1947 1128 q 1930 1064 1933 1116 q 1927 871 1927 1012 q 1926 742 1927 789 q 1925 677 1926 696 q 1921 658 1923 658 q 1913 673 1919 658 q 1902 751 1905 694 q 1898 1127 1899 814 l 1785 906 q 1081 -128 1436 214 q 669 -406 871 -339 q 536 -435 593 -431 q 454 -440 479 -440 m 1164 6 q 1181 23 1168 6 q 1190 35 1190 33 l 1190 35 q 1177 26 1188 35 q 1160 8 1160 12 q 1164 6 1160 6 m 1194 45 q 1211 62 1196 45 q 1219 74 1219 73 l 1219 75 q 1206 66 1217 75 q 1190 47 1190 52 q 1194 45 1190 45 m 1230 85 q 1263 119 1235 85 q 1337 221 1295 159 q 1375 281 1375 276 q 1341 240 1372 281 q 1248 117 1282 166 q 1229 86 1230 90 q 1230 85 1229 85 m 1487 448 q 1502 460 1493 448 q 1519 490 1519 481 q 1518 492 1519 492 q 1512 489 1516 492 q 1502 479 1508 487 q 1491 463 1496 472 q 1486 450 1486 453 q 1487 448 1486 448 m 1800 992 q 1839 1061 1804 992 q 1869 1128 1869 1121 l 1868 1129 q 1829 1061 1864 1129 q 1799 993 1799 1000 l 1800 992 m 1897 1191 q 1903 1193 1900 1191 q 1909 1200 1906 1195 q 1912 1208 1912 1204 q 1908 1214 1912 1214 q 1902 1212 1905 1214 q 1895 1205 1898 1209 q 1893 1196 1893 1200 q 1897 1191 1893 1191 m 864 3066 q 877 3077 868 3066 q 887 3092 883 3084 q 895 3109 895 3106 q 893 3111 895 3111 q 872 3086 890 3111 q 863 3067 863 3071 q 864 3066 863 3066 m 938 64 q 936 68 936 64 q 953 85 936 72 q 965 94 963 94 l 965 94 q 957 81 965 92 q 938 64 943 64 m 2259 515 q 2243 518 2243 516 q 2262 522 2243 522 q 2278 518 2278 522 q 2259 515 2278 516 m 1947 574 q 1938 587 1942 574 q 1932 614 1932 603 q 1933 617 1933 617 q 1943 602 1936 617 q 1949 578 1949 587 q 1947 574 1948 575 m 783 2682 q 780 2691 780 2682 q 783 2699 780 2694 q 788 2705 785 2703 q 793 2707 791 2707 q 795 2705 795 2707 q 793 2696 795 2702 q 783 2682 787 2682 z "},"V":{"ha":1597,"x_min":0,"x_max":2972,"o":"m 746 -376 q 702 -369 726 -376 q 625 -282 636 -346 q 615 75 620 -237 q 399 1972 591 1473 q 321 2115 355 2084 q 307 2123 313 2123 q 286 2105 300 2123 q 180 1836 230 2032 q 100 1377 130 1640 q 84 1282 90 1282 q 81 1286 83 1282 q 77 1295 79 1295 q 74 1261 75 1295 q 62 1197 73 1214 q 58 1193 60 1193 q 55 1209 55 1193 q 57 1244 55 1221 q 60 1293 60 1272 q 48 1347 60 1347 q 41 1342 45 1347 l 40 1341 q 36 1379 36 1341 q 37 1441 36 1403 l 39 1491 q 36 1518 39 1518 q 15 1373 31 1518 l 5 1280 q 20 1678 20 1596 q 9 1764 20 1757 q 0 1779 0 1771 q 6 1796 0 1786 q 20 1876 16 1817 q 28 1961 23 1935 q 38 2032 33 1986 q 78 2155 43 2083 q 149 2267 112 2227 q 304 2339 222 2339 q 476 2252 396 2339 q 674 1776 598 2119 q 790 841 751 1434 q 815 426 812 540 q 819 374 815 374 q 871 494 827 374 q 1054 949 939 686 q 1388 1647 1208 1303 q 1567 1968 1449 1766 l 1665 2138 q 1816 2369 1715 2225 q 1874 2447 1858 2428 q 2008 2620 1901 2477 q 2220 2873 2121 2770 q 2439 3069 2319 2977 q 2591 3168 2502 3119 q 2636 3189 2627 3188 l 2637 3189 q 2576 3151 2637 3185 q 2494 3095 2511 3114 q 2488 3087 2488 3088 q 2489 3086 2488 3086 q 2511 3099 2492 3086 q 2645 3170 2566 3137 q 2841 3218 2761 3218 q 2907 3204 2871 3218 q 2972 3172 2972 3183 q 2970 3171 2972 3171 q 2958 3175 2967 3171 q 2847 3196 2905 3196 q 2584 3105 2728 3196 q 2464 3023 2501 3053 q 2446 3005 2446 3008 q 2448 3004 2446 3004 q 2517 3048 2454 3004 q 2629 3113 2568 3083 q 2768 3166 2734 3166 q 2778 3160 2778 3166 q 2774 3153 2778 3156 q 2764 3150 2770 3150 q 2747 3142 2751 3150 q 2677 3104 2743 3134 q 2556 3029 2603 3067 q 2534 3002 2534 3010 q 2538 2999 2534 2999 q 2553 3004 2543 2999 l 2555 3004 l 2555 3004 q 2477 2919 2555 2996 q 2258 2672 2370 2811 q 2214 2608 2214 2617 l 2214 2608 q 2289 2687 2221 2608 q 2484 2872 2375 2786 l 2486 2873 l 2486 2873 q 2387 2750 2486 2867 q 1124 568 1649 1890 q 978 150 1050 376 q 868 -238 905 -76 q 746 -376 835 -376 m 673 -306 q 675 -302 675 -305 q 672 -292 675 -299 q 667 -282 669 -285 q 663 -280 665 -280 q 660 -286 660 -280 q 663 -296 660 -290 q 673 -306 669 -306 l 673 -306 m 654 -157 q 656 -148 655 -157 q 658 -111 658 -131 q 656 -75 658 -92 q 654 -66 655 -66 q 652 -111 652 -66 q 654 -157 652 -157 m 848 -178 q 851 -176 850 -178 q 852 -171 852 -174 q 852 -166 852 -168 q 851 -158 852 -162 q 848 -153 849 -153 q 845 -164 846 -153 q 848 -178 845 -178 m 654 -24 q 658 -2 657 -24 q 656 18 658 9 q 654 24 654 24 q 651 1 652 24 q 654 -24 652 -24 m 984 266 q 996 286 987 266 q 1015 344 1009 314 q 1016 353 1016 351 q 1015 355 1016 355 q 1001 328 1013 355 q 982 270 984 289 q 984 266 983 266 m 1040 423 q 1088 533 1045 423 q 1133 657 1133 646 l 1133 658 q 1084 548 1128 658 q 1040 423 1041 437 z "},"W":{"ha":2713,"x_min":0,"x_max":2774,"o":"m 1788 -626 q 1708 -616 1737 -626 q 1501 -416 1579 -572 q 1403 -119 1441 -302 q 1341 371 1364 64 q 1304 1163 1318 678 q 1280 1529 1293 1517 q 1260 1490 1278 1528 q 1219 1395 1242 1452 l 1051 992 q 649 75 800 384 q 405 -341 499 -235 q 259 -451 311 -448 q 203 -454 208 -454 q 54 -361 111 -454 q 12 -232 24 -312 q 0 -5 0 -152 q 8 246 0 127 q 71 777 21 443 q 152 1251 127 1143 q 175 1363 170 1335 q 289 1883 218 1598 q 432 2389 361 2168 q 515 2613 505 2613 q 518 2603 518 2613 q 519 2601 518 2601 q 547 2656 524 2601 q 594 2739 582 2739 q 595 2738 595 2739 q 593 2730 595 2736 q 579 2696 590 2724 q 553 2633 568 2668 q 527 2563 538 2597 q 513 2510 516 2528 q 507 2471 511 2491 q 543 2525 539 2525 q 543 2525 543 2525 l 543 2521 q 513 2418 538 2506 q 469 2271 488 2331 q 450 2188 450 2208 q 452 2185 450 2185 q 465 2218 456 2185 q 560 2513 508 2363 q 583 2571 580 2570 l 583 2570 q 544 2426 583 2551 q 446 1978 450 2123 q 439 1917 446 1917 q 438 1918 439 1917 q 433 1927 435 1927 q 426 1879 430 1927 q 436 1869 426 1869 l 445 1870 q 448 1868 448 1870 q 441 1858 448 1865 q 435 1843 435 1851 q 436 1839 435 1841 q 438 1836 438 1837 q 430 1832 438 1832 q 421 1828 421 1832 q 427 1820 421 1826 q 433 1807 433 1815 q 429 1792 433 1800 q 415 1712 420 1771 q 406 1627 410 1653 q 387 1483 394 1575 q 385 1442 385 1454 q 386 1432 385 1434 q 387 1424 387 1430 q 372 1312 387 1400 q 206 -31 206 406 q 236 -197 206 -197 q 436 106 285 -197 q 850 1050 593 423 q 938 1267 904 1179 q 971 1364 971 1356 q 970 1369 970 1367 q 974 1373 970 1373 q 985 1382 979 1373 q 997 1404 991 1392 q 1094 1624 1042 1515 q 1173 1774 1146 1733 q 1264 1863 1223 1844 q 1331 1882 1305 1882 q 1478 1694 1434 1882 q 1497 1580 1489 1647 q 1524 963 1509 1465 q 1555 325 1537 550 q 1608 -62 1573 100 q 1727 -376 1655 -294 q 1763 -410 1750 -402 q 1794 -417 1777 -417 q 1838 -410 1812 -417 q 1931 -358 1887 -395 q 1972 -317 1957 -336 q 1988 -290 1988 -298 l 1986 -284 q 1996 -274 1986 -279 q 2082 -117 2016 -263 q 2129 1 2109 -55 q 2216 309 2160 92 q 2246 441 2238 396 l 2258 497 q 2358 1154 2327 845 q 2374 1328 2364 1222 q 2393 1528 2384 1434 q 2416 2074 2416 1777 q 2346 2845 2416 2608 q 2289 2951 2314 2951 q 2260 2941 2277 2951 q 2238 2930 2243 2930 q 2237 2930 2237 2930 q 2261 2951 2237 2936 q 2285 2962 2277 2962 q 2301 2954 2292 2962 q 2317 2947 2309 2947 q 2321 2950 2321 2947 q 2302 2966 2321 2957 q 2279 2972 2290 2972 q 2258 2966 2268 2972 q 2194 2894 2237 2953 q 2113 2764 2152 2835 q 2070 2691 2077 2698 q 2041 2639 2062 2686 q 2016 2597 2021 2597 q 2015 2598 2015 2597 q 2015 2599 2015 2598 q 2063 2712 2015 2615 q 2150 2873 2116 2818 q 2290 3004 2233 3004 q 2333 2989 2316 3004 q 2372 2930 2350 2974 q 2388 2907 2385 2907 q 2389 2909 2389 2907 l 2387 2916 q 2354 2982 2378 2950 q 2294 3021 2323 3021 q 2174 2940 2241 3021 l 2088 2833 q 2114 2880 2111 2871 q 2116 2892 2116 2888 q 2115 2895 2116 2894 q 2115 2898 2115 2896 q 2159 2968 2115 2915 q 2298 3059 2237 3059 q 2392 2998 2349 3059 q 2423 2966 2415 2966 q 2426 2969 2426 2966 q 2412 3002 2426 2976 q 2401 3023 2401 3021 l 2401 3024 q 2407 3019 2403 3024 q 2516 2742 2469 2941 q 2575 2306 2562 2544 q 2582 2212 2578 2250 q 2589 2174 2586 2174 q 2593 2213 2593 2174 q 2573 2548 2593 2317 q 2561 2720 2561 2686 q 2562 2733 2561 2733 q 2578 2677 2566 2733 q 2611 2458 2601 2582 q 2625 1914 2625 2268 q 2614 1558 2625 1729 q 2446 358 2563 878 q 2171 -400 2329 -161 q 1788 -626 2013 -626 m 1419 -72 q 1421 -64 1421 -72 q 1418 -45 1420 -57 q 1411 -28 1415 -28 q 1407 -40 1407 -28 q 1413 -64 1407 -52 q 1419 -72 1415 -72 m 1402 4 q 1403 8 1402 4 q 1405 26 1405 16 q 1403 43 1405 35 q 1402 47 1402 47 q 1399 26 1399 47 q 1402 4 1399 4 m 1394 68 q 1394 76 1394 69 q 1387 198 1394 102 q 1367 353 1376 317 q 1361 369 1363 369 q 1360 364 1360 369 q 1362 338 1360 357 q 1394 68 1388 69 m 1362 460 q 1366 475 1366 460 q 1362 489 1366 489 q 1359 475 1359 489 q 1362 460 1359 460 m 1353 524 q 1356 564 1356 524 q 1353 608 1356 608 q 1351 568 1352 608 q 1353 524 1351 524 m 1352 652 q 1356 661 1356 652 q 1354 671 1356 667 q 1351 676 1352 676 q 1348 666 1349 676 q 1352 652 1348 652 m 1333 1313 q 1335 1317 1334 1313 q 1337 1334 1337 1324 q 1335 1351 1337 1343 q 1333 1355 1334 1355 q 1331 1334 1331 1355 q 1333 1313 1331 1313 m 1329 1412 q 1338 1422 1338 1412 q 1329 1432 1338 1432 q 1318 1422 1318 1432 q 1329 1412 1318 1412 m 1322 1539 q 1325 1550 1323 1539 q 1326 1558 1326 1553 q 1319 1591 1326 1573 q 1295 1616 1309 1616 q 1266 1593 1282 1616 q 1251 1564 1251 1568 q 1251 1563 1251 1563 q 1270 1579 1254 1563 q 1289 1597 1284 1597 q 1304 1584 1295 1597 q 1320 1550 1318 1565 q 1322 1539 1320 1539 m 2592 2029 q 2597 2038 2596 2029 q 2595 2048 2597 2043 q 2591 2053 2593 2053 q 2589 2043 2589 2053 q 2592 2029 2589 2029 m 2769 787 q 2765 790 2768 787 q 2759 796 2762 793 q 2757 802 2757 800 q 2763 807 2757 807 q 2774 797 2774 807 q 2769 787 2774 787 m 1046 1599 q 1045 1603 1045 1599 q 1048 1614 1045 1607 q 1056 1628 1050 1621 q 1063 1635 1061 1635 q 1064 1632 1064 1635 q 1061 1621 1064 1628 q 1054 1607 1059 1614 q 1046 1599 1048 1599 m 2553 2762 q 2550 2770 2550 2762 q 2552 2786 2550 2786 q 2555 2781 2553 2786 q 2557 2770 2557 2776 q 2553 2762 2557 2762 z "},"X":{"ha":2406,"x_min":0,"x_max":2748,"o":"m 2512 -401 l 2483 -401 q 2446 -386 2466 -401 q 2386 -329 2426 -372 q 2318 -248 2318 -258 q 2313 -241 2318 -241 q 2302 -254 2302 -241 q 2304 -260 2302 -258 l 2305 -262 q 2281 -238 2303 -262 q 2159 -24 2242 -193 q 2103 98 2123 47 q 2078 149 2083 149 q 2077 148 2077 149 q 2196 -184 2077 125 l 2197 -186 l 2196 -187 q 2162 -136 2193 -187 q 1988 298 2076 5 q 1800 1078 1901 591 q 1761 1236 1767 1232 q 1731 1175 1756 1236 q 1565 808 1655 1002 q 1527 719 1527 728 q 1493 644 1527 710 q 1393 432 1459 574 q 1371 380 1371 385 q 1337 325 1371 376 q 1263 192 1307 277 q 1188 63 1234 136 q 1101 -63 1141 -9 q 1051 -117 1061 -117 l 1049 -116 q 1014 -145 1036 -116 q 948 -199 989 -177 l 907 -220 l 962 -163 q 1078 -4 1036 -85 q 1085 12 1085 9 q 1084 13 1085 13 q 1025 -60 1080 13 q 971 -121 979 -121 q 966 -113 966 -121 q 972 -87 966 -102 q 985 -62 977 -73 q 1015 -14 997 -48 q 1025 13 1025 7 q 1023 15 1025 15 q 1015 13 1020 15 q 1004 9 1008 9 q 1000 13 1000 9 q 1009 33 1000 19 q 1065 159 1030 73 q 1099 250 1099 240 l 1099 250 q 1073 214 1093 250 q 1021 134 1050 175 q 996 104 1000 104 q 995 106 995 104 q 1176 490 995 126 q 1376 902 1291 718 q 1689 1603 1459 1081 l 1614 1960 q 1474 2558 1539 2315 q 1371 2865 1409 2800 q 1350 2889 1360 2882 q 1324 2896 1339 2896 q 1122 2781 1251 2892 q 852 2485 994 2669 q 496 1902 670 2241 q 248 1305 323 1563 q 209 1168 227 1227 q 189 1059 197 1133 q 180 926 180 986 q 307 702 180 722 q 339 694 339 699 q 330 688 339 691 q 325 684 325 686 q 340 682 325 682 l 372 683 q 404 677 404 683 q 361 670 404 670 q 303 656 318 670 q 268 642 288 642 q 204 665 241 642 q 165 686 174 686 q 163 686 164 686 q 163 684 163 685 q 182 665 163 676 q 239 636 205 650 q 302 618 274 622 q 310 616 310 616 q 303 615 310 615 q 112 715 186 615 q 79 763 94 738 q 61 802 65 788 q 51 826 57 817 q 40 836 45 836 q 35 844 35 836 q 37 852 35 848 q 39 859 39 857 q 37 862 39 862 l 34 861 q 15 926 25 861 q 0 1096 0 1018 q 4 1175 0 1137 q 74 1447 16 1282 q 458 2262 219 1868 q 910 2867 697 2658 q 1000 2970 1000 2957 l 1000 2972 q 1002 2974 1000 2974 q 1004 2973 1002 2974 q 1008 2972 1006 2972 q 1061 3000 1023 2972 q 1184 3070 1118 3040 q 1330 3109 1270 3109 q 1474 3061 1409 3109 q 1596 2888 1552 3004 q 1670 2640 1624 2810 q 1760 2288 1716 2469 q 1822 1998 1803 2107 q 1839 1929 1833 1929 q 1965 2171 1845 1929 q 2362 2873 2191 2627 q 2679 3204 2533 3120 q 2688 3208 2687 3208 q 2690 3208 2690 3208 q 2679 3194 2690 3206 q 2669 3180 2669 3183 q 2671 3179 2669 3179 q 2689 3190 2673 3179 q 2746 3216 2730 3216 q 2748 3215 2748 3216 q 2715 3190 2748 3212 q 2673 3148 2673 3163 q 2679 3143 2673 3143 q 2689 3145 2683 3143 l 2690 3145 q 2692 3144 2692 3145 q 2652 3096 2692 3136 q 2615 3054 2615 3058 q 2678 3104 2620 3054 q 2724 3138 2718 3138 q 2709 3117 2724 3135 q 2669 3072 2694 3099 q 2628 3023 2645 3046 q 2611 2993 2611 3000 q 2608 2979 2611 2986 q 2600 2969 2605 2972 q 2595 2962 2596 2966 q 2594 2955 2594 2958 q 2595 2948 2594 2952 q 2597 2938 2597 2944 q 2592 2918 2597 2926 q 2560 2837 2576 2886 q 2555 2812 2555 2817 l 2555 2809 q 2532 2762 2555 2801 q 2424 2584 2499 2706 q 2327 2418 2361 2483 q 2258 2291 2289 2345 q 2047 1864 2209 2205 q 1916 1579 1974 1712 q 1966 1314 1946 1396 q 2005 1139 1986 1238 q 2064 872 2030 1015 q 2118 665 2098 729 q 2153 519 2130 625 q 2198 341 2168 438 q 2437 -239 2337 -111 q 2478 -297 2462 -271 l 2479 -300 l 2479 -300 q 2418 -233 2473 -300 q 2402 -214 2403 -214 l 2401 -215 q 2439 -276 2401 -222 q 2509 -340 2467 -315 q 2587 -368 2550 -366 q 2611 -373 2611 -369 q 2608 -376 2611 -374 q 2574 -385 2595 -385 q 2507 -369 2540 -385 q 2456 -329 2488 -359 q 2394 -266 2424 -300 q 2352 -208 2365 -231 q 2332 -180 2338 -180 q 2331 -182 2331 -180 q 2363 -242 2331 -193 q 2439 -341 2401 -302 q 2476 -375 2460 -363 l 2512 -401 m 1051 -108 q 1074 -91 1059 -108 q 1090 -68 1083 -81 q 1095 -56 1095 -58 q 1095 -55 1095 -55 q 1074 -71 1091 -55 q 1048 -104 1048 -96 q 1051 -108 1048 -108 m 1558 1250 q 1581 1285 1561 1250 q 1605 1339 1605 1329 q 1604 1340 1605 1340 q 1581 1305 1600 1340 q 1557 1251 1557 1261 q 1558 1250 1557 1250 m 1617 1363 q 1625 1373 1619 1363 q 1634 1402 1634 1388 q 1632 1412 1634 1412 q 1625 1402 1630 1412 q 1615 1369 1615 1386 q 1617 1363 1615 1363 m 1619 2058 l 1620 2059 q 1598 2181 1620 2077 q 1569 2296 1575 2296 q 1568 2292 1568 2296 q 1585 2191 1568 2273 q 1614 2066 1609 2079 q 1619 2058 1617 2058 m 1554 2353 q 1555 2367 1555 2355 q 1546 2417 1555 2391 q 1541 2425 1544 2425 l 1539 2416 q 1542 2384 1539 2400 q 1553 2353 1548 2353 l 1554 2353 m 1425 2838 q 1426 2841 1426 2839 q 1422 2854 1426 2844 q 1414 2864 1419 2864 q 1411 2859 1411 2864 q 1415 2848 1411 2854 q 1424 2838 1421 2838 l 1425 2838 m 1385 2907 q 1388 2909 1388 2907 q 1376 2921 1388 2912 q 1336 2934 1358 2934 l 1308 2932 q 1351 2923 1341 2927 q 1365 2915 1361 2919 q 1385 2907 1375 2907 m 1268 2916 q 1279 2919 1272 2916 q 1294 2927 1286 2922 q 1301 2934 1301 2932 q 1297 2935 1301 2935 q 1286 2932 1293 2935 q 1272 2925 1280 2930 q 1265 2917 1265 2920 q 1268 2916 1265 2916 m 108 661 q 90 677 104 661 q 81 689 81 688 l 82 690 q 94 681 83 690 q 111 663 111 667 q 108 661 111 661 z "},"Y":{"ha":985,"x_min":0,"x_max":2003,"o":"m 59 -796 q 56 -787 56 -796 q 87 -605 56 -764 q 107 -486 107 -506 l 107 -485 q 77 -577 104 -485 l 56 -654 q 40 -695 44 -695 q 33 -684 38 -695 l 33 -682 q 31 -664 31 -676 q 40 -585 31 -630 q 49 -522 48 -540 q 42 -502 49 -505 q 36 -485 36 -498 q 55 -378 36 -460 q 96 -214 83 -256 q 106 -174 106 -181 q 105 -172 106 -172 q 63 -268 97 -172 q 5 -399 16 -399 q 3 -395 3 -399 q 48 -213 6 -348 q 146 58 91 -78 q 189 176 189 162 q 186 180 189 180 q 178 174 184 180 q 170 171 174 171 q 144 191 159 171 q 99 268 122 218 q 62 376 77 317 q 47 413 52 413 l 46 413 q 45 406 45 412 q 57 328 45 384 q 83 222 71 253 q 88 205 88 210 q 87 203 88 203 q 62 234 78 203 q 44 273 52 252 q 8 421 17 343 q 0 665 0 499 q 23 1100 1 858 q 101 1738 46 1342 q 115 1877 115 1841 q 109 1917 115 1903 q 90 1949 96 1949 q 84 1954 86 1949 q 81 1967 81 1959 q 73 1993 81 1984 q 52 2042 65 2002 q 29 2087 39 2082 q 21 2134 22 2096 q 24 2306 21 2241 q 38 2451 28 2388 q 121 2745 71 2676 q 252 2829 181 2829 q 368 2738 323 2827 q 404 2630 398 2681 q 410 2537 410 2578 q 403 2397 410 2478 q 353 2013 389 2260 q 264 1364 306 1685 q 250 1229 250 1244 q 245 1183 250 1210 q 233 1070 237 1135 q 213 646 213 831 q 225 409 213 486 q 247 309 241 312 q 271 355 252 309 q 419 694 309 445 q 1466 2705 975 1953 q 1671 2963 1583 2884 q 1841 3042 1758 3042 q 1965 2967 1927 3042 q 2003 2784 2003 2892 q 1973 2533 2003 2698 q 1879 2102 1924 2259 q 1851 2031 1859 2031 q 1849 2033 1850 2031 q 1845 2039 1847 2039 q 1836 2010 1841 2039 q 1829 1981 1833 1992 q 1822 1969 1824 1969 q 1819 1983 1819 1969 q 1823 2019 1819 1997 q 1828 2056 1828 2041 q 1821 2077 1828 2077 q 1810 2067 1816 2077 q 1803 2057 1804 2057 l 1802 2057 q 1801 2060 1801 2058 q 1815 2140 1801 2070 q 1827 2213 1827 2199 l 1826 2217 q 1800 2130 1820 2214 q 1773 2041 1778 2041 q 1773 2047 1773 2042 q 1780 2096 1773 2062 q 1800 2302 1800 2193 q 1783 2363 1800 2363 q 1778 2362 1781 2363 q 1774 2361 1775 2361 q 1773 2361 1773 2361 q 1776 2371 1773 2364 q 1783 2401 1780 2377 q 1786 2456 1785 2426 q 1780 2535 1786 2528 q 1777 2561 1777 2537 q 1781 2618 1777 2585 q 1790 2726 1790 2694 q 1775 2759 1790 2759 q 1757 2748 1769 2759 q 1734 2720 1746 2737 q 1672 2637 1708 2679 q 1318 2050 1563 2498 q 858 1148 1074 1602 q 634 659 715 842 q 589 552 589 557 q 547 452 589 547 q 471 278 509 374 l 409 120 q 344 -30 388 64 q 273 -212 303 -116 q 206 -395 245 -293 q 159 -524 176 -467 q 141 -560 149 -560 q 139 -559 140 -560 q 137 -557 138 -557 q 118 -595 131 -557 q 86 -718 103 -640 q 59 -796 68 -796 m 678 1211 q 706 1253 683 1211 q 741 1328 741 1316 l 740 1329 q 712 1285 736 1329 q 677 1212 679 1222 q 678 1211 677 1211 m 760 1374 q 781 1403 763 1374 q 793 1435 793 1428 q 791 1437 793 1437 q 772 1407 786 1437 q 760 1375 760 1379 l 760 1374 m 93 1525 q 115 1617 111 1593 q 119 1664 119 1640 q 118 1672 119 1672 q 104 1610 114 1672 q 93 1525 100 1588 m 915 1677 q 924 1684 917 1677 q 930 1697 930 1690 q 927 1702 930 1702 q 923 1698 926 1702 q 917 1688 920 1695 q 914 1678 914 1681 q 915 1677 914 1677 m 125 1700 q 129 1720 129 1700 q 125 1736 129 1736 q 123 1720 123 1736 q 125 1700 123 1700 m 945 1725 q 960 1744 951 1725 q 967 1762 967 1756 q 966 1764 967 1764 q 951 1744 961 1764 q 944 1727 944 1733 q 945 1725 944 1725 m 971 1775 q 1005 1828 975 1775 q 1038 1893 1037 1883 q 1034 1900 1038 1900 q 1000 1842 1029 1900 q 970 1776 970 1784 l 971 1775 m 1043 1910 q 1058 1929 1048 1910 q 1065 1947 1065 1942 q 1063 1949 1065 1949 q 1048 1929 1057 1949 q 1042 1912 1042 1918 q 1043 1910 1042 1910 z "}}}
